<mxfile host="app.diagrams.net" modified="2024-05-14T07:29:58.980Z" agent="Mozilla/5.0 (Windows NT 10.0; Win64; x64) AppleWebKit/537.36 (KHTML, like Gecko) Chrome/124.0.0.0 Safari/537.36" etag="HA3iHSEg7QM2pPLi-4XL" version="24.3.1" type="device" pages="7">
  <diagram name="Common" id="bW95kN9QqXJHFxKbWP41">
    <mxGraphModel dx="1194" dy="778" grid="1" gridSize="10" guides="1" tooltips="1" connect="1" arrows="1" fold="1" page="1" pageScale="1" pageWidth="850" pageHeight="1100" math="0" shadow="0">
      <root>
        <mxCell id="0" />
        <mxCell id="1" parent="0" />
        <mxCell id="v6Tpj4lxTPGDnxm5rCQ8-85" value="" style="rounded=0;whiteSpace=wrap;html=1;fillColor=none;" parent="1" vertex="1">
          <mxGeometry x="910" y="340" width="390" height="190" as="geometry" />
        </mxCell>
        <mxCell id="v6Tpj4lxTPGDnxm5rCQ8-3" value="" style="group" parent="1" vertex="1" connectable="0">
          <mxGeometry x="70" y="150" width="60" height="80" as="geometry" />
        </mxCell>
        <mxCell id="v6Tpj4lxTPGDnxm5rCQ8-1" value="" style="shape=actor;whiteSpace=wrap;html=1;" parent="v6Tpj4lxTPGDnxm5rCQ8-3" vertex="1">
          <mxGeometry x="10" width="40" height="50" as="geometry" />
        </mxCell>
        <mxCell id="v6Tpj4lxTPGDnxm5rCQ8-2" value="Клиент&lt;br&gt;(Customer)" style="text;html=1;align=center;verticalAlign=middle;whiteSpace=wrap;rounded=0;" parent="v6Tpj4lxTPGDnxm5rCQ8-3" vertex="1">
          <mxGeometry y="50" width="60" height="30" as="geometry" />
        </mxCell>
        <mxCell id="v6Tpj4lxTPGDnxm5rCQ8-4" value="" style="group" parent="1" vertex="1" connectable="0">
          <mxGeometry x="70" y="260" width="60" height="80" as="geometry" />
        </mxCell>
        <mxCell id="v6Tpj4lxTPGDnxm5rCQ8-5" value="" style="shape=actor;whiteSpace=wrap;html=1;" parent="v6Tpj4lxTPGDnxm5rCQ8-4" vertex="1">
          <mxGeometry x="10" width="40" height="50" as="geometry" />
        </mxCell>
        <mxCell id="v6Tpj4lxTPGDnxm5rCQ8-6" value="Ресторан&lt;br&gt;(Restraunt)" style="text;html=1;align=center;verticalAlign=middle;whiteSpace=wrap;rounded=0;" parent="v6Tpj4lxTPGDnxm5rCQ8-4" vertex="1">
          <mxGeometry y="50" width="60" height="30" as="geometry" />
        </mxCell>
        <mxCell id="v6Tpj4lxTPGDnxm5rCQ8-7" value="" style="group" parent="1" vertex="1" connectable="0">
          <mxGeometry x="70" y="380" width="60" height="80" as="geometry" />
        </mxCell>
        <mxCell id="v6Tpj4lxTPGDnxm5rCQ8-8" value="" style="shape=actor;whiteSpace=wrap;html=1;" parent="v6Tpj4lxTPGDnxm5rCQ8-7" vertex="1">
          <mxGeometry x="10" width="40" height="50" as="geometry" />
        </mxCell>
        <mxCell id="v6Tpj4lxTPGDnxm5rCQ8-9" value="Курьер&lt;br&gt;(Courier)" style="text;html=1;align=center;verticalAlign=middle;whiteSpace=wrap;rounded=0;" parent="v6Tpj4lxTPGDnxm5rCQ8-7" vertex="1">
          <mxGeometry y="50" width="60" height="30" as="geometry" />
        </mxCell>
        <mxCell id="v6Tpj4lxTPGDnxm5rCQ8-48" style="edgeStyle=orthogonalEdgeStyle;rounded=0;orthogonalLoop=1;jettySize=auto;html=1;exitX=1;exitY=0.5;exitDx=0;exitDy=0;entryX=0;entryY=0.5;entryDx=0;entryDy=0;" parent="1" source="v6Tpj4lxTPGDnxm5rCQ8-11" target="v6Tpj4lxTPGDnxm5rCQ8-27" edge="1">
          <mxGeometry relative="1" as="geometry" />
        </mxCell>
        <mxCell id="v6Tpj4lxTPGDnxm5rCQ8-11" value="" style="rounded=0;whiteSpace=wrap;html=1;fillColor=none;" parent="1" vertex="1">
          <mxGeometry x="200" y="120" width="280" height="360" as="geometry" />
        </mxCell>
        <mxCell id="v6Tpj4lxTPGDnxm5rCQ8-12" value="customer mobile app" style="rounded=1;whiteSpace=wrap;html=1;fillColor=#dae8fc;strokeColor=#6c8ebf;" parent="1" vertex="1">
          <mxGeometry x="240" y="142" width="200" height="40" as="geometry" />
        </mxCell>
        <mxCell id="v6Tpj4lxTPGDnxm5rCQ8-13" value="customer web app" style="rounded=1;whiteSpace=wrap;html=1;fillColor=#dae8fc;strokeColor=#6c8ebf;" parent="1" vertex="1">
          <mxGeometry x="240" y="190" width="200" height="40" as="geometry" />
        </mxCell>
        <mxCell id="v6Tpj4lxTPGDnxm5rCQ8-15" value="courier mobile app" style="shape=trapezoid;perimeter=trapezoidPerimeter;whiteSpace=wrap;html=1;fixedSize=1;fillColor=#dae8fc;strokeColor=#6c8ebf;" parent="1" vertex="1">
          <mxGeometry x="240" y="398" width="200" height="40" as="geometry" />
        </mxCell>
        <mxCell id="v6Tpj4lxTPGDnxm5rCQ8-16" value="restraunt mobile app" style="shape=parallelogram;perimeter=parallelogramPerimeter;whiteSpace=wrap;html=1;fixedSize=1;fillColor=#dae8fc;strokeColor=#6c8ebf;" parent="1" vertex="1">
          <mxGeometry x="240" y="278" width="200" height="40" as="geometry" />
        </mxCell>
        <mxCell id="v6Tpj4lxTPGDnxm5rCQ8-18" style="edgeStyle=orthogonalEdgeStyle;rounded=0;orthogonalLoop=1;jettySize=auto;html=1;exitX=1;exitY=0.75;exitDx=0;exitDy=0;" parent="1" source="v6Tpj4lxTPGDnxm5rCQ8-8" target="v6Tpj4lxTPGDnxm5rCQ8-15" edge="1">
          <mxGeometry relative="1" as="geometry" />
        </mxCell>
        <mxCell id="v6Tpj4lxTPGDnxm5rCQ8-19" style="edgeStyle=orthogonalEdgeStyle;rounded=0;orthogonalLoop=1;jettySize=auto;html=1;exitX=1;exitY=0.75;exitDx=0;exitDy=0;entryX=0;entryY=0.5;entryDx=0;entryDy=0;" parent="1" source="v6Tpj4lxTPGDnxm5rCQ8-5" target="v6Tpj4lxTPGDnxm5rCQ8-16" edge="1">
          <mxGeometry relative="1" as="geometry" />
        </mxCell>
        <mxCell id="v6Tpj4lxTPGDnxm5rCQ8-23" value="" style="endArrow=classic;html=1;rounded=0;entryX=0;entryY=0.5;entryDx=0;entryDy=0;exitX=1;exitY=0.75;exitDx=0;exitDy=0;" parent="1" source="v6Tpj4lxTPGDnxm5rCQ8-1" target="v6Tpj4lxTPGDnxm5rCQ8-12" edge="1">
          <mxGeometry width="50" height="50" relative="1" as="geometry">
            <mxPoint x="140" y="140" as="sourcePoint" />
            <mxPoint x="190" y="90" as="targetPoint" />
          </mxGeometry>
        </mxCell>
        <mxCell id="v6Tpj4lxTPGDnxm5rCQ8-24" value="" style="endArrow=classic;html=1;rounded=0;exitX=1;exitY=0.75;exitDx=0;exitDy=0;entryX=0;entryY=0.5;entryDx=0;entryDy=0;" parent="1" source="v6Tpj4lxTPGDnxm5rCQ8-1" target="v6Tpj4lxTPGDnxm5rCQ8-13" edge="1">
          <mxGeometry width="50" height="50" relative="1" as="geometry">
            <mxPoint x="140" y="270" as="sourcePoint" />
            <mxPoint x="190" y="220" as="targetPoint" />
          </mxGeometry>
        </mxCell>
        <mxCell id="v6Tpj4lxTPGDnxm5rCQ8-25" value="Platforms" style="text;html=1;align=left;verticalAlign=middle;whiteSpace=wrap;rounded=0;fontStyle=1;fontSize=18;" parent="1" vertex="1">
          <mxGeometry x="200" y="80" width="60" height="30" as="geometry" />
        </mxCell>
        <mxCell id="v6Tpj4lxTPGDnxm5rCQ8-26" value="Mobile app:&lt;br&gt;- iOS&lt;br&gt;- Android" style="text;html=1;align=left;verticalAlign=middle;whiteSpace=wrap;rounded=0;fontSize=10;" parent="1" vertex="1">
          <mxGeometry x="420" y="80" width="60" height="30" as="geometry" />
        </mxCell>
        <mxCell id="v6Tpj4lxTPGDnxm5rCQ8-65" style="edgeStyle=orthogonalEdgeStyle;rounded=0;orthogonalLoop=1;jettySize=auto;html=1;exitX=1;exitY=0.5;exitDx=0;exitDy=0;entryX=0;entryY=0.5;entryDx=0;entryDy=0;" parent="1" source="v6Tpj4lxTPGDnxm5rCQ8-27" target="v6Tpj4lxTPGDnxm5rCQ8-63" edge="1">
          <mxGeometry relative="1" as="geometry" />
        </mxCell>
        <mxCell id="v6Tpj4lxTPGDnxm5rCQ8-84" style="edgeStyle=orthogonalEdgeStyle;rounded=0;orthogonalLoop=1;jettySize=auto;html=1;exitX=1;exitY=0.5;exitDx=0;exitDy=0;entryX=0;entryY=0.5;entryDx=0;entryDy=0;" parent="1" source="v6Tpj4lxTPGDnxm5rCQ8-27" target="v6Tpj4lxTPGDnxm5rCQ8-85" edge="1">
          <mxGeometry relative="1" as="geometry">
            <mxPoint x="909.9999999999998" y="430" as="targetPoint" />
          </mxGeometry>
        </mxCell>
        <mxCell id="v6Tpj4lxTPGDnxm5rCQ8-27" value="" style="rounded=0;whiteSpace=wrap;html=1;fillColor=none;" parent="1" vertex="1">
          <mxGeometry x="560" y="120" width="280" height="360" as="geometry" />
        </mxCell>
        <mxCell id="v6Tpj4lxTPGDnxm5rCQ8-39" style="edgeStyle=orthogonalEdgeStyle;rounded=0;orthogonalLoop=1;jettySize=auto;html=1;exitX=0;exitY=0.5;exitDx=0;exitDy=0;entryX=0;entryY=0.5;entryDx=0;entryDy=0;" parent="1" source="v6Tpj4lxTPGDnxm5rCQ8-28" target="v6Tpj4lxTPGDnxm5rCQ8-35" edge="1">
          <mxGeometry relative="1" as="geometry" />
        </mxCell>
        <mxCell id="v6Tpj4lxTPGDnxm5rCQ8-44" style="edgeStyle=orthogonalEdgeStyle;rounded=0;orthogonalLoop=1;jettySize=auto;html=1;exitX=1;exitY=0.5;exitDx=0;exitDy=0;entryX=1;entryY=0.5;entryDx=0;entryDy=0;" parent="1" source="v6Tpj4lxTPGDnxm5rCQ8-28" target="v6Tpj4lxTPGDnxm5rCQ8-34" edge="1">
          <mxGeometry relative="1" as="geometry" />
        </mxCell>
        <mxCell id="v6Tpj4lxTPGDnxm5rCQ8-28" value="authorization REST API" style="rounded=0;whiteSpace=wrap;html=1;fillColor=#d5e8d4;strokeColor=#82b366;flipH=0;" parent="1" vertex="1">
          <mxGeometry x="600" y="142" width="200" height="40" as="geometry" />
        </mxCell>
        <mxCell id="v6Tpj4lxTPGDnxm5rCQ8-29" value="keycloak" style="rounded=0;whiteSpace=wrap;html=1;fillColor=#fff2cc;strokeColor=#d6b656;" parent="1" vertex="1">
          <mxGeometry x="930" y="358" width="160" height="40" as="geometry" />
        </mxCell>
        <mxCell id="v6Tpj4lxTPGDnxm5rCQ8-41" style="edgeStyle=orthogonalEdgeStyle;rounded=0;orthogonalLoop=1;jettySize=auto;html=1;exitX=0;exitY=0.5;exitDx=0;exitDy=0;entryX=0;entryY=0.5;entryDx=0;entryDy=0;" parent="1" source="v6Tpj4lxTPGDnxm5rCQ8-30" target="v6Tpj4lxTPGDnxm5rCQ8-35" edge="1">
          <mxGeometry relative="1" as="geometry" />
        </mxCell>
        <mxCell id="v6Tpj4lxTPGDnxm5rCQ8-45" style="edgeStyle=orthogonalEdgeStyle;rounded=0;orthogonalLoop=1;jettySize=auto;html=1;exitX=1;exitY=0.5;exitDx=0;exitDy=0;entryX=1;entryY=0.5;entryDx=0;entryDy=0;" parent="1" source="v6Tpj4lxTPGDnxm5rCQ8-30" target="v6Tpj4lxTPGDnxm5rCQ8-34" edge="1">
          <mxGeometry relative="1" as="geometry">
            <mxPoint x="800.2857142857142" y="380" as="targetPoint" />
            <Array as="points">
              <mxPoint x="820" y="218" />
              <mxPoint x="820" y="384" />
            </Array>
          </mxGeometry>
        </mxCell>
        <mxCell id="v6Tpj4lxTPGDnxm5rCQ8-30" value="customer backend" style="rounded=1;whiteSpace=wrap;html=1;fillColor=#d5e8d4;strokeColor=#82b366;flipH=0;" parent="1" vertex="1">
          <mxGeometry x="600" y="198" width="200" height="40" as="geometry" />
        </mxCell>
        <mxCell id="v6Tpj4lxTPGDnxm5rCQ8-42" style="edgeStyle=orthogonalEdgeStyle;rounded=0;orthogonalLoop=1;jettySize=auto;html=1;exitX=0;exitY=0.5;exitDx=0;exitDy=0;entryX=0;entryY=0.5;entryDx=0;entryDy=0;" parent="1" source="v6Tpj4lxTPGDnxm5rCQ8-31" target="v6Tpj4lxTPGDnxm5rCQ8-35" edge="1">
          <mxGeometry relative="1" as="geometry">
            <Array as="points">
              <mxPoint x="580" y="273" />
              <mxPoint x="580" y="440" />
            </Array>
          </mxGeometry>
        </mxCell>
        <mxCell id="v6Tpj4lxTPGDnxm5rCQ8-46" style="edgeStyle=orthogonalEdgeStyle;rounded=0;orthogonalLoop=1;jettySize=auto;html=1;exitX=1;exitY=0.5;exitDx=0;exitDy=0;entryX=1;entryY=0.5;entryDx=0;entryDy=0;" parent="1" source="v6Tpj4lxTPGDnxm5rCQ8-31" target="v6Tpj4lxTPGDnxm5rCQ8-34" edge="1">
          <mxGeometry relative="1" as="geometry">
            <Array as="points">
              <mxPoint x="820" y="273" />
              <mxPoint x="820" y="384" />
            </Array>
          </mxGeometry>
        </mxCell>
        <mxCell id="v6Tpj4lxTPGDnxm5rCQ8-31" value="kitchen backend" style="shape=parallelogram;perimeter=parallelogramPerimeter;whiteSpace=wrap;html=1;fixedSize=1;fillColor=#d5e8d4;strokeColor=#82b366;flipH=0;" parent="1" vertex="1">
          <mxGeometry x="600" y="253" width="200" height="40" as="geometry" />
        </mxCell>
        <mxCell id="v6Tpj4lxTPGDnxm5rCQ8-43" style="edgeStyle=orthogonalEdgeStyle;rounded=0;orthogonalLoop=1;jettySize=auto;html=1;exitX=0;exitY=0.5;exitDx=0;exitDy=0;" parent="1" source="v6Tpj4lxTPGDnxm5rCQ8-32" edge="1">
          <mxGeometry relative="1" as="geometry">
            <mxPoint x="600" y="440" as="targetPoint" />
            <Array as="points">
              <mxPoint x="580" y="329" />
              <mxPoint x="580" y="440" />
            </Array>
          </mxGeometry>
        </mxCell>
        <mxCell id="v6Tpj4lxTPGDnxm5rCQ8-47" style="edgeStyle=orthogonalEdgeStyle;rounded=0;orthogonalLoop=1;jettySize=auto;html=1;exitX=1;exitY=0.5;exitDx=0;exitDy=0;entryX=1;entryY=0.5;entryDx=0;entryDy=0;" parent="1" source="v6Tpj4lxTPGDnxm5rCQ8-32" target="v6Tpj4lxTPGDnxm5rCQ8-34" edge="1">
          <mxGeometry relative="1" as="geometry">
            <Array as="points">
              <mxPoint x="820" y="329" />
              <mxPoint x="820" y="384" />
            </Array>
          </mxGeometry>
        </mxCell>
        <mxCell id="v6Tpj4lxTPGDnxm5rCQ8-32" value="courier backend" style="shape=trapezoid;perimeter=trapezoidPerimeter;whiteSpace=wrap;html=1;fixedSize=1;fillColor=#d5e8d4;strokeColor=#82b366;flipH=0;" parent="1" vertex="1">
          <mxGeometry x="600" y="309" width="200" height="40" as="geometry" />
        </mxCell>
        <mxCell id="v6Tpj4lxTPGDnxm5rCQ8-34" value="Email sender service" style="rounded=0;whiteSpace=wrap;html=1;fillColor=#d5e8d4;strokeColor=#82b366;flipH=0;" parent="1" vertex="1">
          <mxGeometry x="600" y="364" width="200" height="40" as="geometry" />
        </mxCell>
        <mxCell id="v6Tpj4lxTPGDnxm5rCQ8-35" value="Push notification service" style="rounded=0;whiteSpace=wrap;html=1;fillColor=#d5e8d4;strokeColor=#82b366;flipH=0;" parent="1" vertex="1">
          <mxGeometry x="600" y="420" width="200" height="40" as="geometry" />
        </mxCell>
        <mxCell id="v6Tpj4lxTPGDnxm5rCQ8-37" value="Backend services" style="text;html=1;align=left;verticalAlign=middle;whiteSpace=wrap;rounded=0;fontStyle=1;fontSize=18;" parent="1" vertex="1">
          <mxGeometry x="560" y="80" width="160" height="30" as="geometry" />
        </mxCell>
        <mxCell id="v6Tpj4lxTPGDnxm5rCQ8-49" value="Storages" style="text;html=1;align=left;verticalAlign=middle;whiteSpace=wrap;rounded=0;fontStyle=1;fontSize=18;" parent="1" vertex="1">
          <mxGeometry x="910" y="80" width="160" height="30" as="geometry" />
        </mxCell>
        <mxCell id="v6Tpj4lxTPGDnxm5rCQ8-69" value="External services" style="text;html=1;align=left;verticalAlign=middle;whiteSpace=wrap;rounded=0;fontStyle=1;fontSize=18;" parent="1" vertex="1">
          <mxGeometry x="910" y="309" width="160" height="30" as="geometry" />
        </mxCell>
        <mxCell id="v6Tpj4lxTPGDnxm5rCQ8-87" value="payment gateway" style="rounded=0;whiteSpace=wrap;html=1;fillColor=#fff2cc;strokeColor=#d6b656;" parent="1" vertex="1">
          <mxGeometry x="930" y="420" width="160" height="40" as="geometry" />
        </mxCell>
        <mxCell id="v6Tpj4lxTPGDnxm5rCQ8-88" value="notification service" style="rounded=0;whiteSpace=wrap;html=1;fillColor=#fff2cc;strokeColor=#d6b656;" parent="1" vertex="1">
          <mxGeometry x="1115" y="358" width="160" height="40" as="geometry" />
        </mxCell>
        <mxCell id="v6Tpj4lxTPGDnxm5rCQ8-89" value="email service" style="rounded=0;whiteSpace=wrap;html=1;fillColor=#fff2cc;strokeColor=#d6b656;" parent="1" vertex="1">
          <mxGeometry x="1115" y="420" width="160" height="40" as="geometry" />
        </mxCell>
        <mxCell id="v6Tpj4lxTPGDnxm5rCQ8-63" value="" style="rounded=0;whiteSpace=wrap;html=1;fillColor=none;" parent="1" vertex="1">
          <mxGeometry x="910" y="120" width="390" height="160" as="geometry" />
        </mxCell>
        <mxCell id="v6Tpj4lxTPGDnxm5rCQ8-61" value="" style="group" parent="1" vertex="1" connectable="0">
          <mxGeometry x="1110" y="135" width="73" height="86" as="geometry" />
        </mxCell>
        <mxCell id="v6Tpj4lxTPGDnxm5rCQ8-58" value="Message&lt;br&gt;Broker" style="shape=cylinder3;whiteSpace=wrap;html=1;boundedLbl=1;backgroundOutline=1;size=15;fillColor=#e1d5e7;strokeColor=#9673a6;" parent="v6Tpj4lxTPGDnxm5rCQ8-61" vertex="1">
          <mxGeometry width="60" height="80" as="geometry" />
        </mxCell>
        <mxCell id="v6Tpj4lxTPGDnxm5rCQ8-57" value="" style="shape=message;html=1;html=1;outlineConnect=0;labelPosition=center;verticalLabelPosition=bottom;align=center;verticalAlign=top;fillColor=#e1d5e7;strokeColor=#9673a6;" parent="v6Tpj4lxTPGDnxm5rCQ8-61" vertex="1">
          <mxGeometry x="43" y="66" width="30" height="20" as="geometry" />
        </mxCell>
        <mxCell id="v6Tpj4lxTPGDnxm5rCQ8-64" value="" style="group" parent="1" vertex="1" connectable="0">
          <mxGeometry x="930" y="135" width="60" height="130" as="geometry" />
        </mxCell>
        <mxCell id="v6Tpj4lxTPGDnxm5rCQ8-50" value="SQL" style="shape=cylinder3;whiteSpace=wrap;html=1;boundedLbl=1;backgroundOutline=1;size=15;fillColor=#e1d5e7;strokeColor=#9673a6;" parent="v6Tpj4lxTPGDnxm5rCQ8-64" vertex="1">
          <mxGeometry width="60" height="80" as="geometry" />
        </mxCell>
        <mxCell id="v6Tpj4lxTPGDnxm5rCQ8-51" value="Users, Orders and other" style="text;html=1;align=center;verticalAlign=middle;whiteSpace=wrap;rounded=0;" parent="v6Tpj4lxTPGDnxm5rCQ8-64" vertex="1">
          <mxGeometry y="80" width="60" height="50" as="geometry" />
        </mxCell>
        <mxCell id="v6Tpj4lxTPGDnxm5rCQ8-54" value="" style="group" parent="1" vertex="1" connectable="0">
          <mxGeometry x="1020" y="135" width="60" height="115" as="geometry" />
        </mxCell>
        <mxCell id="v6Tpj4lxTPGDnxm5rCQ8-52" value="noSQL" style="shape=cylinder3;whiteSpace=wrap;html=1;boundedLbl=1;backgroundOutline=1;size=15;fillColor=#e1d5e7;strokeColor=#9673a6;" parent="v6Tpj4lxTPGDnxm5rCQ8-54" vertex="1">
          <mxGeometry width="60" height="80" as="geometry" />
        </mxCell>
        <mxCell id="v6Tpj4lxTPGDnxm5rCQ8-53" value="Tokens,&amp;nbsp;&lt;br&gt;Sessions" style="text;html=1;align=center;verticalAlign=middle;whiteSpace=wrap;rounded=0;" parent="v6Tpj4lxTPGDnxm5rCQ8-54" vertex="1">
          <mxGeometry y="85" width="60" height="30" as="geometry" />
        </mxCell>
        <mxCell id="v6Tpj4lxTPGDnxm5rCQ8-91" value="" style="group" parent="1" vertex="1" connectable="0">
          <mxGeometry x="1209" y="140" width="66" height="90" as="geometry" />
        </mxCell>
        <mxCell id="v6Tpj4lxTPGDnxm5rCQ8-90" value="" style="verticalLabelPosition=bottom;html=1;verticalAlign=top;align=center;strokeColor=#9673a6;fillColor=#e1d5e7;shape=mxgraph.azure.sql_reporting;" parent="v6Tpj4lxTPGDnxm5rCQ8-91" vertex="1">
          <mxGeometry x="11.000000000000032" width="44" height="50" as="geometry" />
        </mxCell>
        <mxCell id="v6Tpj4lxTPGDnxm5rCQ8-67" value="File storage" style="text;html=1;align=center;verticalAlign=middle;whiteSpace=wrap;rounded=0;" parent="v6Tpj4lxTPGDnxm5rCQ8-91" vertex="1">
          <mxGeometry y="60" width="66" height="30" as="geometry" />
        </mxCell>
        <mxCell id="4k6mGHXcbbk7jLg7xhx1-1" value="map service" style="rounded=0;whiteSpace=wrap;html=1;fillColor=#fff2cc;strokeColor=#d6b656;" parent="1" vertex="1">
          <mxGeometry x="930" y="480" width="160" height="40" as="geometry" />
        </mxCell>
        <mxCell id="qaM5qb1ugAQRncRAV74l-1" value="ELK Stack" style="rounded=0;whiteSpace=wrap;html=1;fillColor=#fff2cc;strokeColor=#d6b656;" parent="1" vertex="1">
          <mxGeometry x="1115" y="480" width="160" height="40" as="geometry" />
        </mxCell>
      </root>
    </mxGraphModel>
  </diagram>
  <diagram id="Qe5tM_QZ28K8u867pRi4" name="Order status">
    <mxGraphModel dx="1194" dy="778" grid="1" gridSize="10" guides="1" tooltips="1" connect="1" arrows="1" fold="1" page="1" pageScale="1" pageWidth="850" pageHeight="1100" math="0" shadow="0">
      <root>
        <mxCell id="0" />
        <mxCell id="1" parent="0" />
        <mxCell id="tICOsWaqKLnwFWaoMKuC-3" value="" style="edgeStyle=orthogonalEdgeStyle;rounded=0;orthogonalLoop=1;jettySize=auto;html=1;" parent="1" source="tICOsWaqKLnwFWaoMKuC-1" target="tICOsWaqKLnwFWaoMKuC-2" edge="1">
          <mxGeometry relative="1" as="geometry" />
        </mxCell>
        <mxCell id="tICOsWaqKLnwFWaoMKuC-5" style="edgeStyle=orthogonalEdgeStyle;rounded=0;orthogonalLoop=1;jettySize=auto;html=1;exitX=0.5;exitY=1;exitDx=0;exitDy=0;entryX=0.5;entryY=0;entryDx=0;entryDy=0;" parent="1" source="tICOsWaqKLnwFWaoMKuC-1" target="tICOsWaqKLnwFWaoMKuC-4" edge="1">
          <mxGeometry relative="1" as="geometry" />
        </mxCell>
        <mxCell id="tICOsWaqKLnwFWaoMKuC-1" value="CUSTOMER_CREATED" style="rounded=0;whiteSpace=wrap;html=1;fillColor=#dae8fc;strokeColor=#6c8ebf;" parent="1" vertex="1">
          <mxGeometry x="40" y="40" width="160" height="40" as="geometry" />
        </mxCell>
        <mxCell id="tICOsWaqKLnwFWaoMKuC-7" value="" style="edgeStyle=orthogonalEdgeStyle;rounded=0;orthogonalLoop=1;jettySize=auto;html=1;" parent="1" source="tICOsWaqKLnwFWaoMKuC-2" target="tICOsWaqKLnwFWaoMKuC-6" edge="1">
          <mxGeometry relative="1" as="geometry" />
        </mxCell>
        <mxCell id="J8vhfNPxjm8zsJAAbfVB-4" style="edgeStyle=orthogonalEdgeStyle;rounded=0;orthogonalLoop=1;jettySize=auto;html=1;exitX=0.5;exitY=1;exitDx=0;exitDy=0;entryX=0.5;entryY=0;entryDx=0;entryDy=0;" parent="1" source="tICOsWaqKLnwFWaoMKuC-2" target="J8vhfNPxjm8zsJAAbfVB-1" edge="1">
          <mxGeometry relative="1" as="geometry" />
        </mxCell>
        <mxCell id="tICOsWaqKLnwFWaoMKuC-2" value="CUSTOMER_PAID" style="rounded=0;whiteSpace=wrap;html=1;fillColor=#dae8fc;strokeColor=#6c8ebf;" parent="1" vertex="1">
          <mxGeometry x="40" y="120" width="160" height="40" as="geometry" />
        </mxCell>
        <mxCell id="tICOsWaqKLnwFWaoMKuC-4" value="CUSTOMER_CANCELLED" style="rounded=0;whiteSpace=wrap;html=1;fillColor=#dae8fc;strokeColor=#6c8ebf;" parent="1" vertex="1">
          <mxGeometry x="280" y="120" width="160" height="40" as="geometry" />
        </mxCell>
        <mxCell id="J8vhfNPxjm8zsJAAbfVB-7" value="" style="edgeStyle=orthogonalEdgeStyle;rounded=0;orthogonalLoop=1;jettySize=auto;html=1;" parent="1" source="tICOsWaqKLnwFWaoMKuC-6" target="J8vhfNPxjm8zsJAAbfVB-6" edge="1">
          <mxGeometry relative="1" as="geometry" />
        </mxCell>
        <mxCell id="tICOsWaqKLnwFWaoMKuC-6" value="KITCHEN_ACCEPTED" style="rounded=0;whiteSpace=wrap;html=1;fillColor=#d5e8d4;strokeColor=#82b366;" parent="1" vertex="1">
          <mxGeometry x="40" y="240" width="160" height="40" as="geometry" />
        </mxCell>
        <mxCell id="J8vhfNPxjm8zsJAAbfVB-3" value="" style="edgeStyle=orthogonalEdgeStyle;rounded=0;orthogonalLoop=1;jettySize=auto;html=1;" parent="1" source="J8vhfNPxjm8zsJAAbfVB-1" target="J8vhfNPxjm8zsJAAbfVB-2" edge="1">
          <mxGeometry relative="1" as="geometry" />
        </mxCell>
        <mxCell id="J8vhfNPxjm8zsJAAbfVB-1" value="KITCHEN_DENIED" style="rounded=0;whiteSpace=wrap;html=1;fillColor=#d5e8d4;strokeColor=#82b366;" parent="1" vertex="1">
          <mxGeometry x="280" y="240" width="160" height="40" as="geometry" />
        </mxCell>
        <mxCell id="J8vhfNPxjm8zsJAAbfVB-2" value="KITCHEN_REFUNDED" style="rounded=0;whiteSpace=wrap;html=1;fillColor=#d5e8d4;strokeColor=#82b366;" parent="1" vertex="1">
          <mxGeometry x="280" y="320" width="160" height="40" as="geometry" />
        </mxCell>
        <mxCell id="J8vhfNPxjm8zsJAAbfVB-5" value="Возврат денег клиенту" style="text;html=1;align=left;verticalAlign=middle;whiteSpace=wrap;rounded=0;fontSize=9;fontStyle=2" parent="1" vertex="1">
          <mxGeometry x="450" y="325" width="110" height="30" as="geometry" />
        </mxCell>
        <mxCell id="J8vhfNPxjm8zsJAAbfVB-9" value="" style="edgeStyle=orthogonalEdgeStyle;rounded=0;orthogonalLoop=1;jettySize=auto;html=1;" parent="1" source="J8vhfNPxjm8zsJAAbfVB-6" target="J8vhfNPxjm8zsJAAbfVB-8" edge="1">
          <mxGeometry relative="1" as="geometry" />
        </mxCell>
        <mxCell id="J8vhfNPxjm8zsJAAbfVB-6" value="KITCHEN_PREPARIND" style="rounded=0;whiteSpace=wrap;html=1;fillColor=#d5e8d4;strokeColor=#82b366;" parent="1" vertex="1">
          <mxGeometry x="40" y="320" width="160" height="40" as="geometry" />
        </mxCell>
        <mxCell id="J8vhfNPxjm8zsJAAbfVB-11" value="" style="edgeStyle=orthogonalEdgeStyle;rounded=0;orthogonalLoop=1;jettySize=auto;html=1;" parent="1" source="J8vhfNPxjm8zsJAAbfVB-8" target="J8vhfNPxjm8zsJAAbfVB-10" edge="1">
          <mxGeometry relative="1" as="geometry" />
        </mxCell>
        <mxCell id="YJq96s2tyK8ADPFUX7Q8-2" style="edgeStyle=orthogonalEdgeStyle;rounded=0;orthogonalLoop=1;jettySize=auto;html=1;entryX=0;entryY=0.5;entryDx=0;entryDy=0;dashed=1;" parent="1" source="J8vhfNPxjm8zsJAAbfVB-8" target="J8vhfNPxjm8zsJAAbfVB-21" edge="1">
          <mxGeometry relative="1" as="geometry">
            <Array as="points">
              <mxPoint x="10" y="420" />
              <mxPoint x="10" y="780" />
            </Array>
          </mxGeometry>
        </mxCell>
        <mxCell id="J8vhfNPxjm8zsJAAbfVB-8" value="KITCHEN_COMPLETED" style="rounded=0;whiteSpace=wrap;html=1;fillColor=#d5e8d4;strokeColor=#82b366;" parent="1" vertex="1">
          <mxGeometry x="40" y="400" width="160" height="40" as="geometry" />
        </mxCell>
        <mxCell id="J8vhfNPxjm8zsJAAbfVB-13" value="" style="edgeStyle=orthogonalEdgeStyle;rounded=0;orthogonalLoop=1;jettySize=auto;html=1;" parent="1" source="J8vhfNPxjm8zsJAAbfVB-10" target="J8vhfNPxjm8zsJAAbfVB-12" edge="1">
          <mxGeometry relative="1" as="geometry" />
        </mxCell>
        <mxCell id="J8vhfNPxjm8zsJAAbfVB-17" style="edgeStyle=orthogonalEdgeStyle;rounded=0;orthogonalLoop=1;jettySize=auto;html=1;entryX=0.5;entryY=0;entryDx=0;entryDy=0;" parent="1" source="J8vhfNPxjm8zsJAAbfVB-10" target="J8vhfNPxjm8zsJAAbfVB-16" edge="1">
          <mxGeometry relative="1" as="geometry">
            <Array as="points">
              <mxPoint x="120" y="580" />
              <mxPoint x="360" y="580" />
            </Array>
          </mxGeometry>
        </mxCell>
        <mxCell id="J8vhfNPxjm8zsJAAbfVB-10" value="DELIVERY_PENDING" style="rounded=0;whiteSpace=wrap;html=1;fillColor=#e1d5e7;strokeColor=#9673a6;" parent="1" vertex="1">
          <mxGeometry x="40" y="520" width="160" height="40" as="geometry" />
        </mxCell>
        <mxCell id="J8vhfNPxjm8zsJAAbfVB-15" value="" style="edgeStyle=orthogonalEdgeStyle;rounded=0;orthogonalLoop=1;jettySize=auto;html=1;" parent="1" source="J8vhfNPxjm8zsJAAbfVB-12" target="J8vhfNPxjm8zsJAAbfVB-14" edge="1">
          <mxGeometry relative="1" as="geometry" />
        </mxCell>
        <mxCell id="J8vhfNPxjm8zsJAAbfVB-12" value="DELIVERY_PICKING" style="rounded=0;whiteSpace=wrap;html=1;fillColor=#e1d5e7;strokeColor=#9673a6;" parent="1" vertex="1">
          <mxGeometry x="40" y="600" width="160" height="40" as="geometry" />
        </mxCell>
        <mxCell id="J8vhfNPxjm8zsJAAbfVB-22" value="" style="edgeStyle=orthogonalEdgeStyle;rounded=0;orthogonalLoop=1;jettySize=auto;html=1;" parent="1" source="J8vhfNPxjm8zsJAAbfVB-14" target="J8vhfNPxjm8zsJAAbfVB-21" edge="1">
          <mxGeometry relative="1" as="geometry" />
        </mxCell>
        <mxCell id="J8vhfNPxjm8zsJAAbfVB-14" value="DELIVERY_DELIVERING" style="rounded=0;whiteSpace=wrap;html=1;fillColor=#e1d5e7;strokeColor=#9673a6;" parent="1" vertex="1">
          <mxGeometry x="40" y="680" width="160" height="40" as="geometry" />
        </mxCell>
        <mxCell id="J8vhfNPxjm8zsJAAbfVB-18" style="edgeStyle=orthogonalEdgeStyle;rounded=0;orthogonalLoop=1;jettySize=auto;html=1;entryX=1;entryY=0.5;entryDx=0;entryDy=0;" parent="1" source="J8vhfNPxjm8zsJAAbfVB-16" target="J8vhfNPxjm8zsJAAbfVB-10" edge="1">
          <mxGeometry relative="1" as="geometry">
            <Array as="points">
              <mxPoint x="460" y="620" />
              <mxPoint x="460" y="540" />
            </Array>
          </mxGeometry>
        </mxCell>
        <mxCell id="J8vhfNPxjm8zsJAAbfVB-20" value="" style="edgeStyle=orthogonalEdgeStyle;rounded=0;orthogonalLoop=1;jettySize=auto;html=1;" parent="1" source="J8vhfNPxjm8zsJAAbfVB-16" target="J8vhfNPxjm8zsJAAbfVB-19" edge="1">
          <mxGeometry relative="1" as="geometry" />
        </mxCell>
        <mxCell id="J8vhfNPxjm8zsJAAbfVB-16" value="DELIVERY_DENIED" style="rounded=0;whiteSpace=wrap;html=1;fillColor=#e1d5e7;strokeColor=#9673a6;" parent="1" vertex="1">
          <mxGeometry x="280" y="600" width="160" height="40" as="geometry" />
        </mxCell>
        <mxCell id="J8vhfNPxjm8zsJAAbfVB-19" value="DELIVERY_REFUNDED" style="rounded=0;whiteSpace=wrap;html=1;fillColor=#e1d5e7;strokeColor=#9673a6;" parent="1" vertex="1">
          <mxGeometry x="280" y="680" width="160" height="40" as="geometry" />
        </mxCell>
        <mxCell id="J8vhfNPxjm8zsJAAbfVB-21" value="DELIVERY_COMPLETED" style="rounded=0;whiteSpace=wrap;html=1;fillColor=#e1d5e7;strokeColor=#9673a6;" parent="1" vertex="1">
          <mxGeometry x="40" y="760" width="160" height="40" as="geometry" />
        </mxCell>
      </root>
    </mxGraphModel>
  </diagram>
  <diagram id="3sIGNFmgT2EN7Aj-xolP" name="Order lifecycle">
    <mxGraphModel dx="1194" dy="778" grid="1" gridSize="10" guides="1" tooltips="1" connect="1" arrows="1" fold="1" page="1" pageScale="1" pageWidth="850" pageHeight="1100" math="0" shadow="0">
      <root>
        <mxCell id="0" />
        <mxCell id="1" parent="0" />
        <mxCell id="ha9b-1_a2hu4S8cJk7Vl-1" value="" style="group" parent="1" vertex="1" connectable="0">
          <mxGeometry x="40" y="50" width="190" height="80" as="geometry" />
        </mxCell>
        <mxCell id="k8ZYT38dVO6tYChos1v9-1" value="Customer" style="text;html=1;align=left;verticalAlign=middle;whiteSpace=wrap;rounded=0;fontStyle=1;fontSize=18;" parent="ha9b-1_a2hu4S8cJk7Vl-1" vertex="1">
          <mxGeometry width="60" height="30" as="geometry" />
        </mxCell>
        <mxCell id="k8ZYT38dVO6tYChos1v9-2" value="- Login&lt;div&gt;- Создать заказ&lt;/div&gt;&lt;div&gt;- Посмотреть историю заказа&lt;/div&gt;" style="text;html=1;align=left;verticalAlign=top;whiteSpace=wrap;rounded=0;" parent="ha9b-1_a2hu4S8cJk7Vl-1" vertex="1">
          <mxGeometry y="30" width="190" height="50" as="geometry" />
        </mxCell>
        <mxCell id="ha9b-1_a2hu4S8cJk7Vl-2" value="" style="group" parent="1" vertex="1" connectable="0">
          <mxGeometry x="520" y="40" width="190" height="80" as="geometry" />
        </mxCell>
        <mxCell id="ha9b-1_a2hu4S8cJk7Vl-3" value="Restraunt" style="text;html=1;align=left;verticalAlign=middle;whiteSpace=wrap;rounded=0;fontStyle=1;fontSize=18;" parent="ha9b-1_a2hu4S8cJk7Vl-2" vertex="1">
          <mxGeometry width="190" height="30" as="geometry" />
        </mxCell>
        <mxCell id="ha9b-1_a2hu4S8cJk7Vl-4" value="- Login&lt;div&gt;- Принимать заказы&lt;br&gt;&lt;/div&gt;&lt;div&gt;- Отклонять заказы&lt;/div&gt;&lt;div&gt;- Открываться&lt;/div&gt;&lt;div&gt;- Закрываться&lt;/div&gt;&lt;div&gt;- Править меню&lt;/div&gt;&lt;div&gt;&lt;br&gt;&lt;/div&gt;&lt;div&gt;&lt;br&gt;&lt;/div&gt;" style="text;html=1;align=left;verticalAlign=top;whiteSpace=wrap;rounded=0;" parent="ha9b-1_a2hu4S8cJk7Vl-2" vertex="1">
          <mxGeometry y="30" width="190" height="50" as="geometry" />
        </mxCell>
        <mxCell id="ha9b-1_a2hu4S8cJk7Vl-5" value="" style="group" parent="1" vertex="1" connectable="0">
          <mxGeometry x="1360" y="40" width="190" height="80" as="geometry" />
        </mxCell>
        <mxCell id="ha9b-1_a2hu4S8cJk7Vl-6" value="Courier" style="text;html=1;align=left;verticalAlign=middle;whiteSpace=wrap;rounded=0;fontStyle=1;fontSize=18;" parent="ha9b-1_a2hu4S8cJk7Vl-5" vertex="1">
          <mxGeometry width="190" height="30" as="geometry" />
        </mxCell>
        <mxCell id="ha9b-1_a2hu4S8cJk7Vl-7" value="- Login&lt;div&gt;- Смотреть доступные заказы&lt;br&gt;&lt;/div&gt;&lt;div&gt;&lt;span style=&quot;background-color: initial;&quot;&gt;- Принимать заказы&lt;/span&gt;&lt;br&gt;&lt;/div&gt;&lt;div&gt;&lt;span style=&quot;background-color: initial;&quot;&gt;- Выполнять заказы&lt;/span&gt;&lt;/div&gt;&lt;div&gt;- Начинать смену&lt;/div&gt;&lt;div&gt;- Заканчивать смену&lt;/div&gt;&lt;div&gt;&lt;br&gt;&lt;/div&gt;&lt;div&gt;&lt;br&gt;&lt;/div&gt;" style="text;html=1;align=left;verticalAlign=top;whiteSpace=wrap;rounded=0;" parent="ha9b-1_a2hu4S8cJk7Vl-5" vertex="1">
          <mxGeometry y="30" width="190" height="50" as="geometry" />
        </mxCell>
        <mxCell id="wRKFhwFuOW6kWS2UlrC3-1" value="Легенда:&lt;div&gt;Цвет - см схему 1&lt;br&gt;Синий - фронтенд / мобильное приложение&lt;br&gt;Зеленое - бэк&lt;br&gt;Фиолетовое - БД&lt;br&gt;Желтое - внешний сервис&lt;br&gt;&lt;br&gt;&lt;/div&gt;" style="text;html=1;align=left;verticalAlign=top;whiteSpace=wrap;rounded=0;" parent="1" vertex="1">
          <mxGeometry x="40" y="970" width="270" height="110" as="geometry" />
        </mxCell>
        <mxCell id="zGeKdAzRleGxj9SzlC17-2" value="" style="edgeStyle=orthogonalEdgeStyle;rounded=0;orthogonalLoop=1;jettySize=auto;html=1;" parent="1" source="iuDwVBE3X95W7Swzshkm-1" target="zGeKdAzRleGxj9SzlC17-1" edge="1">
          <mxGeometry relative="1" as="geometry" />
        </mxCell>
        <mxCell id="zGeKdAzRleGxj9SzlC17-3" value="Request" style="edgeLabel;html=1;align=center;verticalAlign=middle;resizable=0;points=[];" parent="zGeKdAzRleGxj9SzlC17-2" vertex="1" connectable="0">
          <mxGeometry x="-0.3571" relative="1" as="geometry">
            <mxPoint y="5" as="offset" />
          </mxGeometry>
        </mxCell>
        <mxCell id="_OEaMoVEan-Q2H36eNSY-4" style="edgeStyle=orthogonalEdgeStyle;rounded=0;orthogonalLoop=1;jettySize=auto;html=1;entryX=0.5;entryY=0;entryDx=0;entryDy=0;" parent="1" source="iuDwVBE3X95W7Swzshkm-1" target="_OEaMoVEan-Q2H36eNSY-3" edge="1">
          <mxGeometry relative="1" as="geometry">
            <Array as="points">
              <mxPoint x="120" y="250" />
              <mxPoint x="20" y="250" />
              <mxPoint x="20" y="340" />
              <mxPoint x="120" y="340" />
            </Array>
          </mxGeometry>
        </mxCell>
        <mxCell id="iuDwVBE3X95W7Swzshkm-1" value="Create order" style="rounded=1;whiteSpace=wrap;html=1;fillColor=#dae8fc;strokeColor=#6c8ebf;" parent="1" vertex="1">
          <mxGeometry x="40" y="200" width="160" height="40" as="geometry" />
        </mxCell>
        <mxCell id="zGeKdAzRleGxj9SzlC17-5" value="" style="edgeStyle=orthogonalEdgeStyle;rounded=0;orthogonalLoop=1;jettySize=auto;html=1;entryX=0;entryY=0.5;entryDx=0;entryDy=0;" parent="1" source="zGeKdAzRleGxj9SzlC17-1" target="_OEaMoVEan-Q2H36eNSY-1" edge="1">
          <mxGeometry relative="1" as="geometry">
            <mxPoint x="280" y="300" as="targetPoint" />
          </mxGeometry>
        </mxCell>
        <mxCell id="_OEaMoVEan-Q2H36eNSY-2" value="SQL" style="edgeLabel;html=1;align=center;verticalAlign=middle;resizable=0;points=[];" parent="zGeKdAzRleGxj9SzlC17-5" vertex="1" connectable="0">
          <mxGeometry x="-0.1694" relative="1" as="geometry">
            <mxPoint as="offset" />
          </mxGeometry>
        </mxCell>
        <mxCell id="zGeKdAzRleGxj9SzlC17-1" value="Accept order" style="rounded=1;whiteSpace=wrap;html=1;fillColor=#d5e8d4;strokeColor=#82b366;" parent="1" vertex="1">
          <mxGeometry x="40" y="280" width="160" height="40" as="geometry" />
        </mxCell>
        <mxCell id="_OEaMoVEan-Q2H36eNSY-1" value="Insert order data" style="rounded=0;whiteSpace=wrap;html=1;fillColor=#e1d5e7;strokeColor=#9673a6;" parent="1" vertex="1">
          <mxGeometry x="260" y="280" width="160" height="40" as="geometry" />
        </mxCell>
        <mxCell id="_OEaMoVEan-Q2H36eNSY-7" style="edgeStyle=orthogonalEdgeStyle;rounded=0;orthogonalLoop=1;jettySize=auto;html=1;entryX=0.5;entryY=0;entryDx=0;entryDy=0;" parent="1" source="_OEaMoVEan-Q2H36eNSY-3" target="_OEaMoVEan-Q2H36eNSY-6" edge="1">
          <mxGeometry relative="1" as="geometry" />
        </mxCell>
        <mxCell id="_OEaMoVEan-Q2H36eNSY-3" value="Pay" style="rounded=1;whiteSpace=wrap;html=1;fillColor=#dae8fc;strokeColor=#6c8ebf;" parent="1" vertex="1">
          <mxGeometry x="40" y="360" width="160" height="40" as="geometry" />
        </mxCell>
        <mxCell id="_OEaMoVEan-Q2H36eNSY-10" style="edgeStyle=orthogonalEdgeStyle;rounded=0;orthogonalLoop=1;jettySize=auto;html=1;entryX=0.5;entryY=0;entryDx=0;entryDy=0;" parent="1" source="_OEaMoVEan-Q2H36eNSY-6" target="_OEaMoVEan-Q2H36eNSY-8" edge="1">
          <mxGeometry relative="1" as="geometry" />
        </mxCell>
        <mxCell id="_OEaMoVEan-Q2H36eNSY-16" value="Webhook call" style="edgeLabel;html=1;align=center;verticalAlign=middle;resizable=0;points=[];" parent="_OEaMoVEan-Q2H36eNSY-10" vertex="1" connectable="0">
          <mxGeometry x="-0.1508" relative="1" as="geometry">
            <mxPoint as="offset" />
          </mxGeometry>
        </mxCell>
        <mxCell id="_OEaMoVEan-Q2H36eNSY-6" value="Process order" style="rounded=0;whiteSpace=wrap;html=1;fillColor=#fff2cc;strokeColor=#d6b656;" parent="1" vertex="1">
          <mxGeometry x="40" y="440" width="160" height="40" as="geometry" />
        </mxCell>
        <mxCell id="_OEaMoVEan-Q2H36eNSY-11" style="edgeStyle=orthogonalEdgeStyle;rounded=0;orthogonalLoop=1;jettySize=auto;html=1;entryX=0;entryY=0.5;entryDx=0;entryDy=0;" parent="1" source="_OEaMoVEan-Q2H36eNSY-8" target="_OEaMoVEan-Q2H36eNSY-9" edge="1">
          <mxGeometry relative="1" as="geometry" />
        </mxCell>
        <mxCell id="_OEaMoVEan-Q2H36eNSY-12" value="SQL" style="edgeLabel;html=1;align=center;verticalAlign=middle;resizable=0;points=[];" parent="_OEaMoVEan-Q2H36eNSY-11" vertex="1" connectable="0">
          <mxGeometry x="-0.0355" y="1" relative="1" as="geometry">
            <mxPoint as="offset" />
          </mxGeometry>
        </mxCell>
        <mxCell id="_OEaMoVEan-Q2H36eNSY-14" style="edgeStyle=orthogonalEdgeStyle;rounded=0;orthogonalLoop=1;jettySize=auto;html=1;entryX=0.5;entryY=0;entryDx=0;entryDy=0;" parent="1" source="_OEaMoVEan-Q2H36eNSY-8" target="_OEaMoVEan-Q2H36eNSY-13" edge="1">
          <mxGeometry relative="1" as="geometry" />
        </mxCell>
        <mxCell id="_OEaMoVEan-Q2H36eNSY-15" value="MQ message" style="edgeLabel;html=1;align=center;verticalAlign=middle;resizable=0;points=[];" parent="_OEaMoVEan-Q2H36eNSY-14" vertex="1" connectable="0">
          <mxGeometry x="-0.2937" y="-1" relative="1" as="geometry">
            <mxPoint x="35" y="-1" as="offset" />
          </mxGeometry>
        </mxCell>
        <mxCell id="_OEaMoVEan-Q2H36eNSY-18" style="edgeStyle=orthogonalEdgeStyle;rounded=0;orthogonalLoop=1;jettySize=auto;html=1;exitX=0.5;exitY=1;exitDx=0;exitDy=0;entryX=0;entryY=0.5;entryDx=0;entryDy=0;" parent="1" source="_OEaMoVEan-Q2H36eNSY-8" target="_OEaMoVEan-Q2H36eNSY-17" edge="1">
          <mxGeometry relative="1" as="geometry">
            <Array as="points">
              <mxPoint x="120" y="580" />
              <mxPoint x="480" y="580" />
              <mxPoint x="480" y="220" />
            </Array>
          </mxGeometry>
        </mxCell>
        <mxCell id="_OEaMoVEan-Q2H36eNSY-8" value="Order paid" style="rounded=1;whiteSpace=wrap;html=1;fillColor=#d5e8d4;strokeColor=#82b366;" parent="1" vertex="1">
          <mxGeometry x="40" y="520" width="160" height="40" as="geometry" />
        </mxCell>
        <mxCell id="_OEaMoVEan-Q2H36eNSY-9" value="Update order data" style="rounded=0;whiteSpace=wrap;html=1;fillColor=#e1d5e7;strokeColor=#9673a6;" parent="1" vertex="1">
          <mxGeometry x="260" y="520" width="160" height="40" as="geometry" />
        </mxCell>
        <mxCell id="_OEaMoVEan-Q2H36eNSY-13" value="Send message" style="rounded=0;whiteSpace=wrap;html=1;fillColor=#d5e8d4;strokeColor=#82b366;" parent="1" vertex="1">
          <mxGeometry x="40" y="600" width="160" height="40" as="geometry" />
        </mxCell>
        <mxCell id="we53v8b6XcPCj_PXmJiW-2" value="" style="edgeStyle=orthogonalEdgeStyle;rounded=0;orthogonalLoop=1;jettySize=auto;html=1;" parent="1" source="_OEaMoVEan-Q2H36eNSY-17" target="we53v8b6XcPCj_PXmJiW-1" edge="1">
          <mxGeometry relative="1" as="geometry" />
        </mxCell>
        <mxCell id="we53v8b6XcPCj_PXmJiW-4" value="" style="edgeStyle=orthogonalEdgeStyle;rounded=0;orthogonalLoop=1;jettySize=auto;html=1;" parent="1" source="_OEaMoVEan-Q2H36eNSY-17" target="we53v8b6XcPCj_PXmJiW-3" edge="1">
          <mxGeometry relative="1" as="geometry" />
        </mxCell>
        <mxCell id="we53v8b6XcPCj_PXmJiW-7" value="Request" style="edgeLabel;html=1;align=center;verticalAlign=middle;resizable=0;points=[];" parent="we53v8b6XcPCj_PXmJiW-4" vertex="1" connectable="0">
          <mxGeometry x="0.04" y="1" relative="1" as="geometry">
            <mxPoint as="offset" />
          </mxGeometry>
        </mxCell>
        <mxCell id="we53v8b6XcPCj_PXmJiW-27" style="edgeStyle=orthogonalEdgeStyle;rounded=0;orthogonalLoop=1;jettySize=auto;html=1;entryX=0.5;entryY=0;entryDx=0;entryDy=0;" parent="1" source="_OEaMoVEan-Q2H36eNSY-17" target="we53v8b6XcPCj_PXmJiW-20" edge="1">
          <mxGeometry relative="1" as="geometry">
            <Array as="points">
              <mxPoint x="600" y="250" />
              <mxPoint x="510" y="250" />
              <mxPoint x="510" y="460" />
              <mxPoint x="600" y="460" />
            </Array>
          </mxGeometry>
        </mxCell>
        <mxCell id="_OEaMoVEan-Q2H36eNSY-17" value="See new order" style="shape=parallelogram;perimeter=parallelogramPerimeter;whiteSpace=wrap;html=1;fixedSize=1;fillColor=#dae8fc;strokeColor=#6c8ebf;" parent="1" vertex="1">
          <mxGeometry x="520" y="200" width="160" height="40" as="geometry" />
        </mxCell>
        <mxCell id="we53v8b6XcPCj_PXmJiW-6" value="" style="edgeStyle=orthogonalEdgeStyle;rounded=0;orthogonalLoop=1;jettySize=auto;html=1;" parent="1" source="we53v8b6XcPCj_PXmJiW-1" target="we53v8b6XcPCj_PXmJiW-5" edge="1">
          <mxGeometry relative="1" as="geometry" />
        </mxCell>
        <mxCell id="we53v8b6XcPCj_PXmJiW-8" value="Request" style="edgeLabel;html=1;align=center;verticalAlign=middle;resizable=0;points=[];" parent="we53v8b6XcPCj_PXmJiW-6" vertex="1" connectable="0">
          <mxGeometry x="0.04" y="-3" relative="1" as="geometry">
            <mxPoint y="-4" as="offset" />
          </mxGeometry>
        </mxCell>
        <mxCell id="we53v8b6XcPCj_PXmJiW-1" value="Deny" style="shape=parallelogram;perimeter=parallelogramPerimeter;whiteSpace=wrap;html=1;fixedSize=1;fillColor=#dae8fc;strokeColor=#6c8ebf;" parent="1" vertex="1">
          <mxGeometry x="520" y="280" width="160" height="40" as="geometry" />
        </mxCell>
        <mxCell id="we53v8b6XcPCj_PXmJiW-3" value="Get new order" style="shape=parallelogram;perimeter=parallelogramPerimeter;whiteSpace=wrap;html=1;fixedSize=1;fillColor=#d5e8d4;strokeColor=#82b366;" parent="1" vertex="1">
          <mxGeometry x="760" y="200" width="160" height="40" as="geometry" />
        </mxCell>
        <mxCell id="we53v8b6XcPCj_PXmJiW-10" style="edgeStyle=orthogonalEdgeStyle;rounded=0;orthogonalLoop=1;jettySize=auto;html=1;entryX=0;entryY=0.5;entryDx=0;entryDy=0;" parent="1" source="we53v8b6XcPCj_PXmJiW-5" target="we53v8b6XcPCj_PXmJiW-9" edge="1">
          <mxGeometry relative="1" as="geometry" />
        </mxCell>
        <mxCell id="we53v8b6XcPCj_PXmJiW-11" value="SQL" style="edgeLabel;html=1;align=center;verticalAlign=middle;resizable=0;points=[];" parent="we53v8b6XcPCj_PXmJiW-10" vertex="1" connectable="0">
          <mxGeometry x="-0.0377" y="-1" relative="1" as="geometry">
            <mxPoint as="offset" />
          </mxGeometry>
        </mxCell>
        <mxCell id="we53v8b6XcPCj_PXmJiW-13" style="edgeStyle=orthogonalEdgeStyle;rounded=0;orthogonalLoop=1;jettySize=auto;html=1;exitX=1;exitY=0.5;exitDx=0;exitDy=0;entryX=0;entryY=0.5;entryDx=0;entryDy=0;" parent="1" source="we53v8b6XcPCj_PXmJiW-5" target="we53v8b6XcPCj_PXmJiW-12" edge="1">
          <mxGeometry relative="1" as="geometry">
            <Array as="points">
              <mxPoint x="930" y="300" />
              <mxPoint x="930" y="360" />
            </Array>
          </mxGeometry>
        </mxCell>
        <mxCell id="tufnTT7JJvDp5feKIPxA-6" value="push &lt;br&gt;notification" style="edgeLabel;html=1;align=center;verticalAlign=middle;resizable=0;points=[];" parent="we53v8b6XcPCj_PXmJiW-13" vertex="1" connectable="0">
          <mxGeometry x="0.3632" y="-2" relative="1" as="geometry">
            <mxPoint x="8" y="-2" as="offset" />
          </mxGeometry>
        </mxCell>
        <mxCell id="we53v8b6XcPCj_PXmJiW-15" style="edgeStyle=orthogonalEdgeStyle;rounded=0;orthogonalLoop=1;jettySize=auto;html=1;exitX=1;exitY=0.5;exitDx=0;exitDy=0;entryX=0;entryY=0.5;entryDx=0;entryDy=0;" parent="1" source="we53v8b6XcPCj_PXmJiW-5" target="we53v8b6XcPCj_PXmJiW-14" edge="1">
          <mxGeometry relative="1" as="geometry">
            <Array as="points">
              <mxPoint x="920" y="300" />
              <mxPoint x="920" y="420" />
            </Array>
          </mxGeometry>
        </mxCell>
        <mxCell id="we53v8b6XcPCj_PXmJiW-16" value="Refund" style="edgeLabel;html=1;align=center;verticalAlign=middle;resizable=0;points=[];" parent="we53v8b6XcPCj_PXmJiW-15" vertex="1" connectable="0">
          <mxGeometry x="0.4393" relative="1" as="geometry">
            <mxPoint x="17" as="offset" />
          </mxGeometry>
        </mxCell>
        <mxCell id="we53v8b6XcPCj_PXmJiW-5" value="Update order status" style="shape=parallelogram;perimeter=parallelogramPerimeter;whiteSpace=wrap;html=1;fixedSize=1;fillColor=#d5e8d4;strokeColor=#82b366;" parent="1" vertex="1">
          <mxGeometry x="760" y="280" width="160" height="40" as="geometry" />
        </mxCell>
        <mxCell id="we53v8b6XcPCj_PXmJiW-9" value="Update order status" style="rounded=0;whiteSpace=wrap;html=1;fillColor=#e1d5e7;strokeColor=#9673a6;" parent="1" vertex="1">
          <mxGeometry x="1000" y="280" width="160" height="40" as="geometry" />
        </mxCell>
        <mxCell id="we53v8b6XcPCj_PXmJiW-14" value="Process refund" style="rounded=0;whiteSpace=wrap;html=1;fillColor=#fff2cc;strokeColor=#d6b656;" parent="1" vertex="1">
          <mxGeometry x="1000" y="400" width="160" height="40" as="geometry" />
        </mxCell>
        <mxCell id="we53v8b6XcPCj_PXmJiW-19" value="" style="group" parent="1" vertex="1" connectable="0">
          <mxGeometry x="1000" y="340" width="160" height="40" as="geometry" />
        </mxCell>
        <mxCell id="we53v8b6XcPCj_PXmJiW-12" value="Display notification" style="rounded=1;whiteSpace=wrap;html=1;fillColor=#dae8fc;strokeColor=#6c8ebf;" parent="we53v8b6XcPCj_PXmJiW-19" vertex="1">
          <mxGeometry width="160" height="40" as="geometry" />
        </mxCell>
        <mxCell id="we53v8b6XcPCj_PXmJiW-17" value="" style="endArrow=none;html=1;rounded=0;exitX=0.06;exitY=0.991;exitDx=0;exitDy=0;exitPerimeter=0;fillColor=#dae8fc;strokeColor=#6c8ebf;" parent="we53v8b6XcPCj_PXmJiW-19" source="we53v8b6XcPCj_PXmJiW-12" edge="1">
          <mxGeometry width="50" height="50" relative="1" as="geometry">
            <mxPoint x="-40" y="50" as="sourcePoint" />
            <mxPoint x="10" as="targetPoint" />
          </mxGeometry>
        </mxCell>
        <mxCell id="we53v8b6XcPCj_PXmJiW-18" value="" style="endArrow=none;html=1;rounded=0;exitX=0.06;exitY=0.991;exitDx=0;exitDy=0;exitPerimeter=0;fillColor=#dae8fc;strokeColor=#6c8ebf;" parent="we53v8b6XcPCj_PXmJiW-19" edge="1">
          <mxGeometry width="50" height="50" relative="1" as="geometry">
            <mxPoint x="150" y="40" as="sourcePoint" />
            <mxPoint x="150" as="targetPoint" />
          </mxGeometry>
        </mxCell>
        <mxCell id="we53v8b6XcPCj_PXmJiW-23" style="edgeStyle=orthogonalEdgeStyle;rounded=0;orthogonalLoop=1;jettySize=auto;html=1;exitX=1;exitY=0.5;exitDx=0;exitDy=0;entryX=0;entryY=0.5;entryDx=0;entryDy=0;" parent="1" source="we53v8b6XcPCj_PXmJiW-20" target="we53v8b6XcPCj_PXmJiW-21" edge="1">
          <mxGeometry relative="1" as="geometry" />
        </mxCell>
        <mxCell id="we53v8b6XcPCj_PXmJiW-26" value="Request" style="edgeLabel;html=1;align=center;verticalAlign=middle;resizable=0;points=[];" parent="we53v8b6XcPCj_PXmJiW-23" vertex="1" connectable="0">
          <mxGeometry x="-0.0743" y="-1" relative="1" as="geometry">
            <mxPoint as="offset" />
          </mxGeometry>
        </mxCell>
        <mxCell id="we53v8b6XcPCj_PXmJiW-34" value="" style="edgeStyle=orthogonalEdgeStyle;rounded=0;orthogonalLoop=1;jettySize=auto;html=1;" parent="1" source="we53v8b6XcPCj_PXmJiW-20" target="we53v8b6XcPCj_PXmJiW-33" edge="1">
          <mxGeometry relative="1" as="geometry" />
        </mxCell>
        <mxCell id="we53v8b6XcPCj_PXmJiW-20" value="Accept" style="shape=parallelogram;perimeter=parallelogramPerimeter;whiteSpace=wrap;html=1;fixedSize=1;fillColor=#dae8fc;strokeColor=#6c8ebf;" parent="1" vertex="1">
          <mxGeometry x="520" y="480" width="160" height="40" as="geometry" />
        </mxCell>
        <mxCell id="we53v8b6XcPCj_PXmJiW-24" style="edgeStyle=orthogonalEdgeStyle;rounded=0;orthogonalLoop=1;jettySize=auto;html=1;exitX=1;exitY=0.5;exitDx=0;exitDy=0;entryX=0;entryY=0.5;entryDx=0;entryDy=0;" parent="1" source="we53v8b6XcPCj_PXmJiW-21" target="we53v8b6XcPCj_PXmJiW-22" edge="1">
          <mxGeometry relative="1" as="geometry" />
        </mxCell>
        <mxCell id="we53v8b6XcPCj_PXmJiW-25" value="SQL" style="edgeLabel;html=1;align=center;verticalAlign=middle;resizable=0;points=[];" parent="we53v8b6XcPCj_PXmJiW-24" vertex="1" connectable="0">
          <mxGeometry x="-0.0508" y="2" relative="1" as="geometry">
            <mxPoint as="offset" />
          </mxGeometry>
        </mxCell>
        <mxCell id="we53v8b6XcPCj_PXmJiW-32" style="edgeStyle=orthogonalEdgeStyle;rounded=0;orthogonalLoop=1;jettySize=auto;html=1;exitX=1;exitY=0.5;exitDx=0;exitDy=0;entryX=0;entryY=0.5;entryDx=0;entryDy=0;" parent="1" source="we53v8b6XcPCj_PXmJiW-21" target="we53v8b6XcPCj_PXmJiW-29" edge="1">
          <mxGeometry relative="1" as="geometry">
            <Array as="points">
              <mxPoint x="930" y="500" />
              <mxPoint x="930" y="560" />
            </Array>
          </mxGeometry>
        </mxCell>
        <mxCell id="tufnTT7JJvDp5feKIPxA-7" value="push&lt;br&gt;notification" style="edgeLabel;html=1;align=center;verticalAlign=middle;resizable=0;points=[];" parent="we53v8b6XcPCj_PXmJiW-32" vertex="1" connectable="0">
          <mxGeometry x="0.4775" relative="1" as="geometry">
            <mxPoint as="offset" />
          </mxGeometry>
        </mxCell>
        <mxCell id="we53v8b6XcPCj_PXmJiW-21" value="Update order status" style="shape=parallelogram;perimeter=parallelogramPerimeter;whiteSpace=wrap;html=1;fixedSize=1;fillColor=#d5e8d4;strokeColor=#82b366;" parent="1" vertex="1">
          <mxGeometry x="760" y="480" width="160" height="40" as="geometry" />
        </mxCell>
        <mxCell id="we53v8b6XcPCj_PXmJiW-22" value="Update order status" style="rounded=0;whiteSpace=wrap;html=1;fillColor=#e1d5e7;strokeColor=#9673a6;" parent="1" vertex="1">
          <mxGeometry x="1000" y="480" width="160" height="40" as="geometry" />
        </mxCell>
        <mxCell id="we53v8b6XcPCj_PXmJiW-28" value="" style="group" parent="1" vertex="1" connectable="0">
          <mxGeometry x="1000" y="540" width="160" height="40" as="geometry" />
        </mxCell>
        <mxCell id="we53v8b6XcPCj_PXmJiW-29" value="Display notification" style="rounded=1;whiteSpace=wrap;html=1;fillColor=#dae8fc;strokeColor=#6c8ebf;" parent="we53v8b6XcPCj_PXmJiW-28" vertex="1">
          <mxGeometry width="160" height="40" as="geometry" />
        </mxCell>
        <mxCell id="we53v8b6XcPCj_PXmJiW-30" value="" style="endArrow=none;html=1;rounded=0;exitX=0.06;exitY=0.991;exitDx=0;exitDy=0;exitPerimeter=0;fillColor=#dae8fc;strokeColor=#6c8ebf;" parent="we53v8b6XcPCj_PXmJiW-28" source="we53v8b6XcPCj_PXmJiW-29" edge="1">
          <mxGeometry width="50" height="50" relative="1" as="geometry">
            <mxPoint x="-40" y="50" as="sourcePoint" />
            <mxPoint x="10" as="targetPoint" />
          </mxGeometry>
        </mxCell>
        <mxCell id="we53v8b6XcPCj_PXmJiW-31" value="" style="endArrow=none;html=1;rounded=0;exitX=0.06;exitY=0.991;exitDx=0;exitDy=0;exitPerimeter=0;fillColor=#dae8fc;strokeColor=#6c8ebf;" parent="we53v8b6XcPCj_PXmJiW-28" edge="1">
          <mxGeometry width="50" height="50" relative="1" as="geometry">
            <mxPoint x="150" y="40" as="sourcePoint" />
            <mxPoint x="150" as="targetPoint" />
          </mxGeometry>
        </mxCell>
        <mxCell id="we53v8b6XcPCj_PXmJiW-41" style="edgeStyle=orthogonalEdgeStyle;rounded=0;orthogonalLoop=1;jettySize=auto;html=1;exitX=1;exitY=0.5;exitDx=0;exitDy=0;entryX=0;entryY=0.5;entryDx=0;entryDy=0;" parent="1" source="we53v8b6XcPCj_PXmJiW-33" target="we53v8b6XcPCj_PXmJiW-35" edge="1">
          <mxGeometry relative="1" as="geometry" />
        </mxCell>
        <mxCell id="we53v8b6XcPCj_PXmJiW-33" value="Complete" style="shape=parallelogram;perimeter=parallelogramPerimeter;whiteSpace=wrap;html=1;fixedSize=1;fillColor=#dae8fc;strokeColor=#6c8ebf;" parent="1" vertex="1">
          <mxGeometry x="520" y="640" width="160" height="40" as="geometry" />
        </mxCell>
        <mxCell id="we53v8b6XcPCj_PXmJiW-42" style="edgeStyle=orthogonalEdgeStyle;rounded=0;orthogonalLoop=1;jettySize=auto;html=1;exitX=1;exitY=0.5;exitDx=0;exitDy=0;entryX=0;entryY=0.5;entryDx=0;entryDy=0;" parent="1" source="we53v8b6XcPCj_PXmJiW-35" target="we53v8b6XcPCj_PXmJiW-36" edge="1">
          <mxGeometry relative="1" as="geometry" />
        </mxCell>
        <mxCell id="tufnTT7JJvDp5feKIPxA-9" value="SQL" style="edgeLabel;html=1;align=center;verticalAlign=middle;resizable=0;points=[];" parent="we53v8b6XcPCj_PXmJiW-42" vertex="1" connectable="0">
          <mxGeometry x="0.0497" relative="1" as="geometry">
            <mxPoint as="offset" />
          </mxGeometry>
        </mxCell>
        <mxCell id="we53v8b6XcPCj_PXmJiW-43" style="edgeStyle=orthogonalEdgeStyle;rounded=0;orthogonalLoop=1;jettySize=auto;html=1;exitX=1;exitY=0.5;exitDx=0;exitDy=0;entryX=0;entryY=0.5;entryDx=0;entryDy=0;" parent="1" source="we53v8b6XcPCj_PXmJiW-35" target="we53v8b6XcPCj_PXmJiW-38" edge="1">
          <mxGeometry relative="1" as="geometry">
            <Array as="points">
              <mxPoint x="930" y="660" />
              <mxPoint x="930" y="720" />
            </Array>
          </mxGeometry>
        </mxCell>
        <mxCell id="tufnTT7JJvDp5feKIPxA-8" value="push&lt;br&gt;notification" style="edgeLabel;html=1;align=center;verticalAlign=middle;resizable=0;points=[];" parent="we53v8b6XcPCj_PXmJiW-43" vertex="1" connectable="0">
          <mxGeometry x="0.4489" y="-2" relative="1" as="geometry">
            <mxPoint as="offset" />
          </mxGeometry>
        </mxCell>
        <mxCell id="IF63RywrFJ_2Q6jakYhY-2" style="edgeStyle=orthogonalEdgeStyle;rounded=0;orthogonalLoop=1;jettySize=auto;html=1;exitX=1;exitY=0.5;exitDx=0;exitDy=0;entryX=0;entryY=0.5;entryDx=0;entryDy=0;" parent="1" source="we53v8b6XcPCj_PXmJiW-35" target="IF63RywrFJ_2Q6jakYhY-1" edge="1">
          <mxGeometry relative="1" as="geometry">
            <Array as="points">
              <mxPoint x="910" y="760" />
              <mxPoint x="1280" y="760" />
              <mxPoint x="1280" y="220" />
            </Array>
          </mxGeometry>
        </mxCell>
        <mxCell id="IF63RywrFJ_2Q6jakYhY-3" value="MQ message" style="edgeLabel;html=1;align=center;verticalAlign=middle;resizable=0;points=[];" parent="IF63RywrFJ_2Q6jakYhY-2" vertex="1" connectable="0">
          <mxGeometry x="-0.5418" relative="1" as="geometry">
            <mxPoint x="-1" as="offset" />
          </mxGeometry>
        </mxCell>
        <mxCell id="we53v8b6XcPCj_PXmJiW-35" value="Update order status" style="shape=parallelogram;perimeter=parallelogramPerimeter;whiteSpace=wrap;html=1;fixedSize=1;fillColor=#d5e8d4;strokeColor=#82b366;" parent="1" vertex="1">
          <mxGeometry x="760" y="640" width="160" height="40" as="geometry" />
        </mxCell>
        <mxCell id="we53v8b6XcPCj_PXmJiW-36" value="Update order status" style="rounded=0;whiteSpace=wrap;html=1;fillColor=#e1d5e7;strokeColor=#9673a6;" parent="1" vertex="1">
          <mxGeometry x="1000" y="640" width="160" height="40" as="geometry" />
        </mxCell>
        <mxCell id="we53v8b6XcPCj_PXmJiW-37" value="" style="group" parent="1" vertex="1" connectable="0">
          <mxGeometry x="1000" y="700" width="160" height="40" as="geometry" />
        </mxCell>
        <mxCell id="we53v8b6XcPCj_PXmJiW-38" value="Display notification" style="rounded=1;whiteSpace=wrap;html=1;fillColor=#dae8fc;strokeColor=#6c8ebf;" parent="we53v8b6XcPCj_PXmJiW-37" vertex="1">
          <mxGeometry width="160" height="40" as="geometry" />
        </mxCell>
        <mxCell id="we53v8b6XcPCj_PXmJiW-39" value="" style="endArrow=none;html=1;rounded=0;exitX=0.06;exitY=0.991;exitDx=0;exitDy=0;exitPerimeter=0;fillColor=#dae8fc;strokeColor=#6c8ebf;" parent="we53v8b6XcPCj_PXmJiW-37" source="we53v8b6XcPCj_PXmJiW-38" edge="1">
          <mxGeometry width="50" height="50" relative="1" as="geometry">
            <mxPoint x="-40" y="50" as="sourcePoint" />
            <mxPoint x="10" as="targetPoint" />
          </mxGeometry>
        </mxCell>
        <mxCell id="we53v8b6XcPCj_PXmJiW-40" value="" style="endArrow=none;html=1;rounded=0;exitX=0.06;exitY=0.991;exitDx=0;exitDy=0;exitPerimeter=0;fillColor=#dae8fc;strokeColor=#6c8ebf;" parent="we53v8b6XcPCj_PXmJiW-37" edge="1">
          <mxGeometry width="50" height="50" relative="1" as="geometry">
            <mxPoint x="150" y="40" as="sourcePoint" />
            <mxPoint x="150" as="targetPoint" />
          </mxGeometry>
        </mxCell>
        <mxCell id="IF63RywrFJ_2Q6jakYhY-6" style="edgeStyle=orthogonalEdgeStyle;rounded=0;orthogonalLoop=1;jettySize=auto;html=1;exitX=1;exitY=0.5;exitDx=0;exitDy=0;entryX=0;entryY=0.5;entryDx=0;entryDy=0;" parent="1" source="IF63RywrFJ_2Q6jakYhY-1" target="IF63RywrFJ_2Q6jakYhY-5" edge="1">
          <mxGeometry relative="1" as="geometry" />
        </mxCell>
        <mxCell id="tufnTT7JJvDp5feKIPxA-1" value="SQL" style="edgeLabel;html=1;align=center;verticalAlign=middle;resizable=0;points=[];" parent="IF63RywrFJ_2Q6jakYhY-6" vertex="1" connectable="0">
          <mxGeometry x="-0.0138" y="1" relative="1" as="geometry">
            <mxPoint as="offset" />
          </mxGeometry>
        </mxCell>
        <mxCell id="IF63RywrFJ_2Q6jakYhY-7" style="edgeStyle=orthogonalEdgeStyle;rounded=0;orthogonalLoop=1;jettySize=auto;html=1;" parent="1" source="IF63RywrFJ_2Q6jakYhY-1" target="IF63RywrFJ_2Q6jakYhY-4" edge="1">
          <mxGeometry relative="1" as="geometry" />
        </mxCell>
        <mxCell id="tufnTT7JJvDp5feKIPxA-2" value="MQ message" style="edgeLabel;html=1;align=center;verticalAlign=middle;resizable=0;points=[];" parent="IF63RywrFJ_2Q6jakYhY-7" vertex="1" connectable="0">
          <mxGeometry x="-0.3714" y="1" relative="1" as="geometry">
            <mxPoint x="-1" as="offset" />
          </mxGeometry>
        </mxCell>
        <mxCell id="IF63RywrFJ_2Q6jakYhY-1" value="Find available couriers" style="shape=trapezoid;perimeter=trapezoidPerimeter;whiteSpace=wrap;html=1;fixedSize=1;fillColor=#d5e8d4;strokeColor=#82b366;" parent="1" vertex="1">
          <mxGeometry x="1360" y="200" width="160" height="40" as="geometry" />
        </mxCell>
        <mxCell id="tufnTT7JJvDp5feKIPxA-4" value="" style="edgeStyle=orthogonalEdgeStyle;rounded=0;orthogonalLoop=1;jettySize=auto;html=1;" parent="1" source="IF63RywrFJ_2Q6jakYhY-4" target="tufnTT7JJvDp5feKIPxA-3" edge="1">
          <mxGeometry relative="1" as="geometry" />
        </mxCell>
        <mxCell id="tufnTT7JJvDp5feKIPxA-5" value="push notification" style="edgeLabel;html=1;align=center;verticalAlign=middle;resizable=0;points=[];" parent="tufnTT7JJvDp5feKIPxA-4" vertex="1" connectable="0">
          <mxGeometry x="-0.3" y="1" relative="1" as="geometry">
            <mxPoint as="offset" />
          </mxGeometry>
        </mxCell>
        <mxCell id="IF63RywrFJ_2Q6jakYhY-4" value="Notify couriers" style="shape=trapezoid;perimeter=trapezoidPerimeter;whiteSpace=wrap;html=1;fixedSize=1;fillColor=#d5e8d4;strokeColor=#82b366;" parent="1" vertex="1">
          <mxGeometry x="1360" y="280" width="160" height="40" as="geometry" />
        </mxCell>
        <mxCell id="IF63RywrFJ_2Q6jakYhY-5" value="Select couriers" style="rounded=0;whiteSpace=wrap;html=1;fillColor=#e1d5e7;strokeColor=#9673a6;" parent="1" vertex="1">
          <mxGeometry x="1600" y="200" width="160" height="40" as="geometry" />
        </mxCell>
        <mxCell id="tufnTT7JJvDp5feKIPxA-11" value="" style="edgeStyle=orthogonalEdgeStyle;rounded=0;orthogonalLoop=1;jettySize=auto;html=1;" parent="1" source="tufnTT7JJvDp5feKIPxA-3" target="tufnTT7JJvDp5feKIPxA-10" edge="1">
          <mxGeometry relative="1" as="geometry" />
        </mxCell>
        <mxCell id="tufnTT7JJvDp5feKIPxA-3" value="Display notification" style="shape=trapezoid;perimeter=trapezoidPerimeter;whiteSpace=wrap;html=1;fixedSize=1;fillColor=#dae8fc;strokeColor=#6c8ebf;" parent="1" vertex="1">
          <mxGeometry x="1360" y="360" width="160" height="40" as="geometry" />
        </mxCell>
        <mxCell id="tufnTT7JJvDp5feKIPxA-13" value="" style="edgeStyle=orthogonalEdgeStyle;rounded=0;orthogonalLoop=1;jettySize=auto;html=1;" parent="1" source="tufnTT7JJvDp5feKIPxA-10" target="tufnTT7JJvDp5feKIPxA-12" edge="1">
          <mxGeometry relative="1" as="geometry" />
        </mxCell>
        <mxCell id="tufnTT7JJvDp5feKIPxA-21" value="Request" style="edgeLabel;html=1;align=center;verticalAlign=middle;resizable=0;points=[];" parent="tufnTT7JJvDp5feKIPxA-13" vertex="1" connectable="0">
          <mxGeometry x="-0.0933" y="-1" relative="1" as="geometry">
            <mxPoint as="offset" />
          </mxGeometry>
        </mxCell>
        <mxCell id="tufnTT7JJvDp5feKIPxA-37" style="edgeStyle=orthogonalEdgeStyle;rounded=0;orthogonalLoop=1;jettySize=auto;html=1;entryX=0.5;entryY=0;entryDx=0;entryDy=0;" parent="1" source="tufnTT7JJvDp5feKIPxA-10" target="tufnTT7JJvDp5feKIPxA-26" edge="1">
          <mxGeometry relative="1" as="geometry" />
        </mxCell>
        <mxCell id="tufnTT7JJvDp5feKIPxA-10" value="Accept order" style="shape=trapezoid;perimeter=trapezoidPerimeter;whiteSpace=wrap;html=1;fixedSize=1;fillColor=#dae8fc;strokeColor=#6c8ebf;" parent="1" vertex="1">
          <mxGeometry x="1360" y="440" width="160" height="40" as="geometry" />
        </mxCell>
        <mxCell id="tufnTT7JJvDp5feKIPxA-19" style="edgeStyle=orthogonalEdgeStyle;rounded=0;orthogonalLoop=1;jettySize=auto;html=1;exitX=1;exitY=0.5;exitDx=0;exitDy=0;entryX=0;entryY=0.5;entryDx=0;entryDy=0;" parent="1" source="tufnTT7JJvDp5feKIPxA-12" target="tufnTT7JJvDp5feKIPxA-18" edge="1">
          <mxGeometry relative="1" as="geometry" />
        </mxCell>
        <mxCell id="tufnTT7JJvDp5feKIPxA-22" value="SQL" style="edgeLabel;html=1;align=center;verticalAlign=middle;resizable=0;points=[];" parent="tufnTT7JJvDp5feKIPxA-19" vertex="1" connectable="0">
          <mxGeometry x="0.0519" y="-1" relative="1" as="geometry">
            <mxPoint as="offset" />
          </mxGeometry>
        </mxCell>
        <mxCell id="tufnTT7JJvDp5feKIPxA-20" value="" style="edgeStyle=orthogonalEdgeStyle;rounded=0;orthogonalLoop=1;jettySize=auto;html=1;" parent="1" source="tufnTT7JJvDp5feKIPxA-12" target="tufnTT7JJvDp5feKIPxA-15" edge="1">
          <mxGeometry relative="1" as="geometry" />
        </mxCell>
        <mxCell id="tufnTT7JJvDp5feKIPxA-23" value="push notification" style="edgeLabel;html=1;align=center;verticalAlign=middle;resizable=0;points=[];" parent="tufnTT7JJvDp5feKIPxA-20" vertex="1" connectable="0">
          <mxGeometry x="-0.1333" y="-1" relative="1" as="geometry">
            <mxPoint as="offset" />
          </mxGeometry>
        </mxCell>
        <mxCell id="tufnTT7JJvDp5feKIPxA-12" value="Update order" style="shape=trapezoid;perimeter=trapezoidPerimeter;whiteSpace=wrap;html=1;fixedSize=1;fillColor=#d5e8d4;strokeColor=#82b366;" parent="1" vertex="1">
          <mxGeometry x="1600" y="440" width="160" height="40" as="geometry" />
        </mxCell>
        <mxCell id="tufnTT7JJvDp5feKIPxA-14" value="" style="group" parent="1" vertex="1" connectable="0">
          <mxGeometry x="1600" y="520" width="160" height="40" as="geometry" />
        </mxCell>
        <mxCell id="tufnTT7JJvDp5feKIPxA-15" value="Display notification" style="rounded=1;whiteSpace=wrap;html=1;fillColor=#dae8fc;strokeColor=#6c8ebf;" parent="tufnTT7JJvDp5feKIPxA-14" vertex="1">
          <mxGeometry width="160" height="40" as="geometry" />
        </mxCell>
        <mxCell id="tufnTT7JJvDp5feKIPxA-16" value="" style="endArrow=none;html=1;rounded=0;exitX=0.06;exitY=0.991;exitDx=0;exitDy=0;exitPerimeter=0;fillColor=#dae8fc;strokeColor=#6c8ebf;" parent="tufnTT7JJvDp5feKIPxA-14" source="tufnTT7JJvDp5feKIPxA-15" edge="1">
          <mxGeometry width="50" height="50" relative="1" as="geometry">
            <mxPoint x="-40" y="50" as="sourcePoint" />
            <mxPoint x="10" as="targetPoint" />
          </mxGeometry>
        </mxCell>
        <mxCell id="tufnTT7JJvDp5feKIPxA-17" value="" style="endArrow=none;html=1;rounded=0;exitX=0.06;exitY=0.991;exitDx=0;exitDy=0;exitPerimeter=0;fillColor=#dae8fc;strokeColor=#6c8ebf;" parent="tufnTT7JJvDp5feKIPxA-14" edge="1">
          <mxGeometry width="50" height="50" relative="1" as="geometry">
            <mxPoint x="150" y="40" as="sourcePoint" />
            <mxPoint x="150" as="targetPoint" />
          </mxGeometry>
        </mxCell>
        <mxCell id="tufnTT7JJvDp5feKIPxA-18" value="Update order status" style="rounded=0;whiteSpace=wrap;html=1;fillColor=#e1d5e7;strokeColor=#9673a6;" parent="1" vertex="1">
          <mxGeometry x="1840" y="440" width="160" height="40" as="geometry" />
        </mxCell>
        <mxCell id="tufnTT7JJvDp5feKIPxA-24" value="" style="edgeStyle=orthogonalEdgeStyle;rounded=0;orthogonalLoop=1;jettySize=auto;html=1;" parent="1" source="tufnTT7JJvDp5feKIPxA-26" target="tufnTT7JJvDp5feKIPxA-31" edge="1">
          <mxGeometry relative="1" as="geometry" />
        </mxCell>
        <mxCell id="tufnTT7JJvDp5feKIPxA-25" value="Request" style="edgeLabel;html=1;align=center;verticalAlign=middle;resizable=0;points=[];" parent="tufnTT7JJvDp5feKIPxA-24" vertex="1" connectable="0">
          <mxGeometry x="-0.0933" y="-1" relative="1" as="geometry">
            <mxPoint as="offset" />
          </mxGeometry>
        </mxCell>
        <mxCell id="tufnTT7JJvDp5feKIPxA-51" style="edgeStyle=orthogonalEdgeStyle;rounded=0;orthogonalLoop=1;jettySize=auto;html=1;entryX=0.5;entryY=0;entryDx=0;entryDy=0;" parent="1" source="tufnTT7JJvDp5feKIPxA-26" target="tufnTT7JJvDp5feKIPxA-40" edge="1">
          <mxGeometry relative="1" as="geometry" />
        </mxCell>
        <mxCell id="tufnTT7JJvDp5feKIPxA-26" value="Order picked up" style="shape=trapezoid;perimeter=trapezoidPerimeter;whiteSpace=wrap;html=1;fixedSize=1;fillColor=#dae8fc;strokeColor=#6c8ebf;" parent="1" vertex="1">
          <mxGeometry x="1360" y="600" width="160" height="40" as="geometry" />
        </mxCell>
        <mxCell id="tufnTT7JJvDp5feKIPxA-27" style="edgeStyle=orthogonalEdgeStyle;rounded=0;orthogonalLoop=1;jettySize=auto;html=1;exitX=1;exitY=0.5;exitDx=0;exitDy=0;entryX=0;entryY=0.5;entryDx=0;entryDy=0;" parent="1" source="tufnTT7JJvDp5feKIPxA-31" target="tufnTT7JJvDp5feKIPxA-36" edge="1">
          <mxGeometry relative="1" as="geometry" />
        </mxCell>
        <mxCell id="tufnTT7JJvDp5feKIPxA-28" value="SQL" style="edgeLabel;html=1;align=center;verticalAlign=middle;resizable=0;points=[];" parent="tufnTT7JJvDp5feKIPxA-27" vertex="1" connectable="0">
          <mxGeometry x="0.0519" y="-1" relative="1" as="geometry">
            <mxPoint as="offset" />
          </mxGeometry>
        </mxCell>
        <mxCell id="tufnTT7JJvDp5feKIPxA-29" value="" style="edgeStyle=orthogonalEdgeStyle;rounded=0;orthogonalLoop=1;jettySize=auto;html=1;" parent="1" source="tufnTT7JJvDp5feKIPxA-31" target="tufnTT7JJvDp5feKIPxA-33" edge="1">
          <mxGeometry relative="1" as="geometry" />
        </mxCell>
        <mxCell id="tufnTT7JJvDp5feKIPxA-30" value="push notification" style="edgeLabel;html=1;align=center;verticalAlign=middle;resizable=0;points=[];" parent="tufnTT7JJvDp5feKIPxA-29" vertex="1" connectable="0">
          <mxGeometry x="-0.1333" y="-1" relative="1" as="geometry">
            <mxPoint as="offset" />
          </mxGeometry>
        </mxCell>
        <mxCell id="tufnTT7JJvDp5feKIPxA-31" value="Update order" style="shape=trapezoid;perimeter=trapezoidPerimeter;whiteSpace=wrap;html=1;fixedSize=1;fillColor=#d5e8d4;strokeColor=#82b366;" parent="1" vertex="1">
          <mxGeometry x="1600" y="600" width="160" height="40" as="geometry" />
        </mxCell>
        <mxCell id="tufnTT7JJvDp5feKIPxA-32" value="" style="group" parent="1" vertex="1" connectable="0">
          <mxGeometry x="1600" y="680" width="160" height="40" as="geometry" />
        </mxCell>
        <mxCell id="tufnTT7JJvDp5feKIPxA-33" value="Display notification" style="rounded=1;whiteSpace=wrap;html=1;fillColor=#dae8fc;strokeColor=#6c8ebf;" parent="tufnTT7JJvDp5feKIPxA-32" vertex="1">
          <mxGeometry width="160" height="40" as="geometry" />
        </mxCell>
        <mxCell id="tufnTT7JJvDp5feKIPxA-34" value="" style="endArrow=none;html=1;rounded=0;exitX=0.06;exitY=0.991;exitDx=0;exitDy=0;exitPerimeter=0;fillColor=#dae8fc;strokeColor=#6c8ebf;" parent="tufnTT7JJvDp5feKIPxA-32" source="tufnTT7JJvDp5feKIPxA-33" edge="1">
          <mxGeometry width="50" height="50" relative="1" as="geometry">
            <mxPoint x="-40" y="50" as="sourcePoint" />
            <mxPoint x="10" as="targetPoint" />
          </mxGeometry>
        </mxCell>
        <mxCell id="tufnTT7JJvDp5feKIPxA-35" value="" style="endArrow=none;html=1;rounded=0;exitX=0.06;exitY=0.991;exitDx=0;exitDy=0;exitPerimeter=0;fillColor=#dae8fc;strokeColor=#6c8ebf;" parent="tufnTT7JJvDp5feKIPxA-32" edge="1">
          <mxGeometry width="50" height="50" relative="1" as="geometry">
            <mxPoint x="150" y="40" as="sourcePoint" />
            <mxPoint x="150" as="targetPoint" />
          </mxGeometry>
        </mxCell>
        <mxCell id="tufnTT7JJvDp5feKIPxA-36" value="Update order status" style="rounded=0;whiteSpace=wrap;html=1;fillColor=#e1d5e7;strokeColor=#9673a6;" parent="1" vertex="1">
          <mxGeometry x="1840" y="600" width="160" height="40" as="geometry" />
        </mxCell>
        <mxCell id="tufnTT7JJvDp5feKIPxA-38" value="" style="edgeStyle=orthogonalEdgeStyle;rounded=0;orthogonalLoop=1;jettySize=auto;html=1;" parent="1" source="tufnTT7JJvDp5feKIPxA-40" target="tufnTT7JJvDp5feKIPxA-45" edge="1">
          <mxGeometry relative="1" as="geometry" />
        </mxCell>
        <mxCell id="tufnTT7JJvDp5feKIPxA-39" value="Request" style="edgeLabel;html=1;align=center;verticalAlign=middle;resizable=0;points=[];" parent="tufnTT7JJvDp5feKIPxA-38" vertex="1" connectable="0">
          <mxGeometry x="-0.0933" y="-1" relative="1" as="geometry">
            <mxPoint as="offset" />
          </mxGeometry>
        </mxCell>
        <mxCell id="tufnTT7JJvDp5feKIPxA-40" value="Complete order" style="shape=trapezoid;perimeter=trapezoidPerimeter;whiteSpace=wrap;html=1;fixedSize=1;fillColor=#dae8fc;strokeColor=#6c8ebf;" parent="1" vertex="1">
          <mxGeometry x="1360" y="760" width="160" height="40" as="geometry" />
        </mxCell>
        <mxCell id="tufnTT7JJvDp5feKIPxA-41" style="edgeStyle=orthogonalEdgeStyle;rounded=0;orthogonalLoop=1;jettySize=auto;html=1;exitX=1;exitY=0.5;exitDx=0;exitDy=0;entryX=0;entryY=0.5;entryDx=0;entryDy=0;" parent="1" source="tufnTT7JJvDp5feKIPxA-45" target="tufnTT7JJvDp5feKIPxA-50" edge="1">
          <mxGeometry relative="1" as="geometry" />
        </mxCell>
        <mxCell id="tufnTT7JJvDp5feKIPxA-42" value="SQL" style="edgeLabel;html=1;align=center;verticalAlign=middle;resizable=0;points=[];" parent="tufnTT7JJvDp5feKIPxA-41" vertex="1" connectable="0">
          <mxGeometry x="0.0519" y="-1" relative="1" as="geometry">
            <mxPoint as="offset" />
          </mxGeometry>
        </mxCell>
        <mxCell id="tufnTT7JJvDp5feKIPxA-43" value="" style="edgeStyle=orthogonalEdgeStyle;rounded=0;orthogonalLoop=1;jettySize=auto;html=1;" parent="1" source="tufnTT7JJvDp5feKIPxA-45" target="tufnTT7JJvDp5feKIPxA-47" edge="1">
          <mxGeometry relative="1" as="geometry" />
        </mxCell>
        <mxCell id="tufnTT7JJvDp5feKIPxA-44" value="push notification" style="edgeLabel;html=1;align=center;verticalAlign=middle;resizable=0;points=[];" parent="tufnTT7JJvDp5feKIPxA-43" vertex="1" connectable="0">
          <mxGeometry x="-0.1333" y="-1" relative="1" as="geometry">
            <mxPoint as="offset" />
          </mxGeometry>
        </mxCell>
        <mxCell id="tufnTT7JJvDp5feKIPxA-45" value="Update order" style="shape=trapezoid;perimeter=trapezoidPerimeter;whiteSpace=wrap;html=1;fixedSize=1;fillColor=#d5e8d4;strokeColor=#82b366;" parent="1" vertex="1">
          <mxGeometry x="1600" y="760" width="160" height="40" as="geometry" />
        </mxCell>
        <mxCell id="tufnTT7JJvDp5feKIPxA-46" value="" style="group" parent="1" vertex="1" connectable="0">
          <mxGeometry x="1600" y="840" width="160" height="40" as="geometry" />
        </mxCell>
        <mxCell id="tufnTT7JJvDp5feKIPxA-47" value="Display notification" style="rounded=1;whiteSpace=wrap;html=1;fillColor=#dae8fc;strokeColor=#6c8ebf;" parent="tufnTT7JJvDp5feKIPxA-46" vertex="1">
          <mxGeometry width="160" height="40" as="geometry" />
        </mxCell>
        <mxCell id="tufnTT7JJvDp5feKIPxA-48" value="" style="endArrow=none;html=1;rounded=0;exitX=0.06;exitY=0.991;exitDx=0;exitDy=0;exitPerimeter=0;fillColor=#dae8fc;strokeColor=#6c8ebf;" parent="tufnTT7JJvDp5feKIPxA-46" source="tufnTT7JJvDp5feKIPxA-47" edge="1">
          <mxGeometry width="50" height="50" relative="1" as="geometry">
            <mxPoint x="-40" y="50" as="sourcePoint" />
            <mxPoint x="10" as="targetPoint" />
          </mxGeometry>
        </mxCell>
        <mxCell id="tufnTT7JJvDp5feKIPxA-49" value="" style="endArrow=none;html=1;rounded=0;exitX=0.06;exitY=0.991;exitDx=0;exitDy=0;exitPerimeter=0;fillColor=#dae8fc;strokeColor=#6c8ebf;" parent="tufnTT7JJvDp5feKIPxA-46" edge="1">
          <mxGeometry width="50" height="50" relative="1" as="geometry">
            <mxPoint x="150" y="40" as="sourcePoint" />
            <mxPoint x="150" as="targetPoint" />
          </mxGeometry>
        </mxCell>
        <mxCell id="tufnTT7JJvDp5feKIPxA-50" value="Update order status" style="rounded=0;whiteSpace=wrap;html=1;fillColor=#e1d5e7;strokeColor=#9673a6;" parent="1" vertex="1">
          <mxGeometry x="1840" y="760" width="160" height="40" as="geometry" />
        </mxCell>
      </root>
    </mxGraphModel>
  </diagram>
  <diagram id="KZqYKXGg6YLq6c_GATFe" name="Database">
    <mxGraphModel dx="1493" dy="973" grid="1" gridSize="10" guides="1" tooltips="1" connect="1" arrows="1" fold="1" page="1" pageScale="1" pageWidth="850" pageHeight="1100" math="0" shadow="0">
      <root>
        <mxCell id="0" />
        <mxCell id="1" parent="0" />
        <mxCell id="QHEdXbrxIjDmkEsUSMZl-1" value="Customers" style="swimlane;fontStyle=0;childLayout=stackLayout;horizontal=1;startSize=26;horizontalStack=0;resizeParent=1;resizeParentMax=0;resizeLast=0;collapsible=1;marginBottom=0;align=center;fontSize=14;" parent="1" vertex="1">
          <mxGeometry x="40" y="40" width="160" height="116" as="geometry" />
        </mxCell>
        <mxCell id="QHEdXbrxIjDmkEsUSMZl-2" value="id" style="text;strokeColor=none;fillColor=none;spacingLeft=4;spacingRight=4;overflow=hidden;rotatable=0;points=[[0,0.5],[1,0.5]];portConstraint=eastwest;fontSize=12;whiteSpace=wrap;html=1;" parent="QHEdXbrxIjDmkEsUSMZl-1" vertex="1">
          <mxGeometry y="26" width="160" height="30" as="geometry" />
        </mxCell>
        <mxCell id="QHEdXbrxIjDmkEsUSMZl-3" value="phone" style="text;strokeColor=none;fillColor=none;spacingLeft=4;spacingRight=4;overflow=hidden;rotatable=0;points=[[0,0.5],[1,0.5]];portConstraint=eastwest;fontSize=12;whiteSpace=wrap;html=1;" parent="QHEdXbrxIjDmkEsUSMZl-1" vertex="1">
          <mxGeometry y="56" width="160" height="30" as="geometry" />
        </mxCell>
        <mxCell id="QHEdXbrxIjDmkEsUSMZl-4" value="email" style="text;strokeColor=none;fillColor=none;spacingLeft=4;spacingRight=4;overflow=hidden;rotatable=0;points=[[0,0.5],[1,0.5]];portConstraint=eastwest;fontSize=12;whiteSpace=wrap;html=1;" parent="QHEdXbrxIjDmkEsUSMZl-1" vertex="1">
          <mxGeometry y="86" width="160" height="30" as="geometry" />
        </mxCell>
        <mxCell id="QHEdXbrxIjDmkEsUSMZl-6" value="Restraunts" style="swimlane;fontStyle=0;childLayout=stackLayout;horizontal=1;startSize=26;horizontalStack=0;resizeParent=1;resizeParentMax=0;resizeLast=0;collapsible=1;marginBottom=0;align=center;fontSize=14;" parent="1" vertex="1">
          <mxGeometry x="760" y="240" width="160" height="146" as="geometry" />
        </mxCell>
        <mxCell id="QHEdXbrxIjDmkEsUSMZl-7" value="id" style="text;strokeColor=none;fillColor=none;spacingLeft=4;spacingRight=4;overflow=hidden;rotatable=0;points=[[0,0.5],[1,0.5]];portConstraint=eastwest;fontSize=12;whiteSpace=wrap;html=1;" parent="QHEdXbrxIjDmkEsUSMZl-6" vertex="1">
          <mxGeometry y="26" width="160" height="30" as="geometry" />
        </mxCell>
        <mxCell id="W3kjEoYvYE4W8iOQ4hLF-6" value="name" style="text;strokeColor=none;fillColor=none;spacingLeft=4;spacingRight=4;overflow=hidden;rotatable=0;points=[[0,0.5],[1,0.5]];portConstraint=eastwest;fontSize=12;whiteSpace=wrap;html=1;" parent="QHEdXbrxIjDmkEsUSMZl-6" vertex="1">
          <mxGeometry y="56" width="160" height="30" as="geometry" />
        </mxCell>
        <mxCell id="QHEdXbrxIjDmkEsUSMZl-8" value="phone" style="text;strokeColor=none;fillColor=none;spacingLeft=4;spacingRight=4;overflow=hidden;rotatable=0;points=[[0,0.5],[1,0.5]];portConstraint=eastwest;fontSize=12;whiteSpace=wrap;html=1;" parent="QHEdXbrxIjDmkEsUSMZl-6" vertex="1">
          <mxGeometry y="86" width="160" height="30" as="geometry" />
        </mxCell>
        <mxCell id="QHEdXbrxIjDmkEsUSMZl-10" value="status (OPEN / CLOSE)" style="text;strokeColor=none;fillColor=none;spacingLeft=4;spacingRight=4;overflow=hidden;rotatable=0;points=[[0,0.5],[1,0.5]];portConstraint=eastwest;fontSize=12;whiteSpace=wrap;html=1;" parent="QHEdXbrxIjDmkEsUSMZl-6" vertex="1">
          <mxGeometry y="116" width="160" height="30" as="geometry" />
        </mxCell>
        <mxCell id="W3kjEoYvYE4W8iOQ4hLF-1" value="Restraunt_menu_items" style="swimlane;fontStyle=0;childLayout=stackLayout;horizontal=1;startSize=26;horizontalStack=0;resizeParent=1;resizeParentMax=0;resizeLast=0;collapsible=1;marginBottom=0;align=center;fontSize=14;" parent="1" vertex="1">
          <mxGeometry x="520" y="240" width="160" height="356" as="geometry" />
        </mxCell>
        <mxCell id="W3kjEoYvYE4W8iOQ4hLF-2" value="id" style="text;strokeColor=none;fillColor=none;spacingLeft=4;spacingRight=4;overflow=hidden;rotatable=0;points=[[0,0.5],[1,0.5]];portConstraint=eastwest;fontSize=12;whiteSpace=wrap;html=1;" parent="W3kjEoYvYE4W8iOQ4hLF-1" vertex="1">
          <mxGeometry y="26" width="160" height="30" as="geometry" />
        </mxCell>
        <mxCell id="W3kjEoYvYE4W8iOQ4hLF-3" value="restraunt_id" style="text;strokeColor=none;fillColor=none;spacingLeft=4;spacingRight=4;overflow=hidden;rotatable=0;points=[[0,0.5],[1,0.5]];portConstraint=eastwest;fontSize=12;whiteSpace=wrap;html=1;" parent="W3kjEoYvYE4W8iOQ4hLF-1" vertex="1">
          <mxGeometry y="56" width="160" height="30" as="geometry" />
        </mxCell>
        <mxCell id="W3kjEoYvYE4W8iOQ4hLF-4" value="name" style="text;strokeColor=none;fillColor=none;spacingLeft=4;spacingRight=4;overflow=hidden;rotatable=0;points=[[0,0.5],[1,0.5]];portConstraint=eastwest;fontSize=12;whiteSpace=wrap;html=1;" parent="W3kjEoYvYE4W8iOQ4hLF-1" vertex="1">
          <mxGeometry y="86" width="160" height="30" as="geometry" />
        </mxCell>
        <mxCell id="W3kjEoYvYE4W8iOQ4hLF-19" value="image" style="text;strokeColor=none;fillColor=none;spacingLeft=4;spacingRight=4;overflow=hidden;rotatable=0;points=[[0,0.5],[1,0.5]];portConstraint=eastwest;fontSize=12;whiteSpace=wrap;html=1;" parent="W3kjEoYvYE4W8iOQ4hLF-1" vertex="1">
          <mxGeometry y="116" width="160" height="30" as="geometry" />
        </mxCell>
        <mxCell id="W3kjEoYvYE4W8iOQ4hLF-20" value="description" style="text;strokeColor=none;fillColor=none;spacingLeft=4;spacingRight=4;overflow=hidden;rotatable=0;points=[[0,0.5],[1,0.5]];portConstraint=eastwest;fontSize=12;whiteSpace=wrap;html=1;" parent="W3kjEoYvYE4W8iOQ4hLF-1" vertex="1">
          <mxGeometry y="146" width="160" height="30" as="geometry" />
        </mxCell>
        <mxCell id="W3kjEoYvYE4W8iOQ4hLF-7" value="price" style="text;strokeColor=none;fillColor=none;spacingLeft=4;spacingRight=4;overflow=hidden;rotatable=0;points=[[0,0.5],[1,0.5]];portConstraint=eastwest;fontSize=12;whiteSpace=wrap;html=1;" parent="W3kjEoYvYE4W8iOQ4hLF-1" vertex="1">
          <mxGeometry y="176" width="160" height="30" as="geometry" />
        </mxCell>
        <mxCell id="W3kjEoYvYE4W8iOQ4hLF-15" value="weight" style="text;strokeColor=none;fillColor=none;spacingLeft=4;spacingRight=4;overflow=hidden;rotatable=0;points=[[0,0.5],[1,0.5]];portConstraint=eastwest;fontSize=12;whiteSpace=wrap;html=1;" parent="W3kjEoYvYE4W8iOQ4hLF-1" vertex="1">
          <mxGeometry y="206" width="160" height="30" as="geometry" />
        </mxCell>
        <mxCell id="W3kjEoYvYE4W8iOQ4hLF-14" value="energy_value" style="text;strokeColor=none;fillColor=none;spacingLeft=4;spacingRight=4;overflow=hidden;rotatable=0;points=[[0,0.5],[1,0.5]];portConstraint=eastwest;fontSize=12;whiteSpace=wrap;html=1;" parent="W3kjEoYvYE4W8iOQ4hLF-1" vertex="1">
          <mxGeometry y="236" width="160" height="30" as="geometry" />
        </mxCell>
        <mxCell id="W3kjEoYvYE4W8iOQ4hLF-18" value="proteins" style="text;strokeColor=none;fillColor=none;spacingLeft=4;spacingRight=4;overflow=hidden;rotatable=0;points=[[0,0.5],[1,0.5]];portConstraint=eastwest;fontSize=12;whiteSpace=wrap;html=1;" parent="W3kjEoYvYE4W8iOQ4hLF-1" vertex="1">
          <mxGeometry y="266" width="160" height="30" as="geometry" />
        </mxCell>
        <mxCell id="W3kjEoYvYE4W8iOQ4hLF-17" value="fats" style="text;strokeColor=none;fillColor=none;spacingLeft=4;spacingRight=4;overflow=hidden;rotatable=0;points=[[0,0.5],[1,0.5]];portConstraint=eastwest;fontSize=12;whiteSpace=wrap;html=1;" parent="W3kjEoYvYE4W8iOQ4hLF-1" vertex="1">
          <mxGeometry y="296" width="160" height="30" as="geometry" />
        </mxCell>
        <mxCell id="W3kjEoYvYE4W8iOQ4hLF-16" value="carbohydrates" style="text;strokeColor=none;fillColor=none;spacingLeft=4;spacingRight=4;overflow=hidden;rotatable=0;points=[[0,0.5],[1,0.5]];portConstraint=eastwest;fontSize=12;whiteSpace=wrap;html=1;" parent="W3kjEoYvYE4W8iOQ4hLF-1" vertex="1">
          <mxGeometry y="326" width="160" height="30" as="geometry" />
        </mxCell>
        <mxCell id="W3kjEoYvYE4W8iOQ4hLF-21" style="edgeStyle=orthogonalEdgeStyle;rounded=0;orthogonalLoop=1;jettySize=auto;html=1;exitX=0;exitY=0.5;exitDx=0;exitDy=0;entryX=1;entryY=0.5;entryDx=0;entryDy=0;" parent="1" source="QHEdXbrxIjDmkEsUSMZl-7" target="W3kjEoYvYE4W8iOQ4hLF-3" edge="1">
          <mxGeometry relative="1" as="geometry" />
        </mxCell>
        <mxCell id="W3kjEoYvYE4W8iOQ4hLF-22" value="1:n" style="edgeLabel;html=1;align=center;verticalAlign=middle;resizable=0;points=[];" parent="W3kjEoYvYE4W8iOQ4hLF-21" vertex="1" connectable="0">
          <mxGeometry x="-0.6848" y="2" relative="1" as="geometry">
            <mxPoint as="offset" />
          </mxGeometry>
        </mxCell>
        <mxCell id="W3kjEoYvYE4W8iOQ4hLF-23" value="Orders" style="swimlane;fontStyle=0;childLayout=stackLayout;horizontal=1;startSize=26;horizontalStack=0;resizeParent=1;resizeParentMax=0;resizeLast=0;collapsible=1;marginBottom=0;align=center;fontSize=14;" parent="1" vertex="1">
          <mxGeometry x="40" y="240" width="160" height="326" as="geometry" />
        </mxCell>
        <mxCell id="W3kjEoYvYE4W8iOQ4hLF-24" value="id" style="text;strokeColor=none;fillColor=none;spacingLeft=4;spacingRight=4;overflow=hidden;rotatable=0;points=[[0,0.5],[1,0.5]];portConstraint=eastwest;fontSize=12;whiteSpace=wrap;html=1;" parent="W3kjEoYvYE4W8iOQ4hLF-23" vertex="1">
          <mxGeometry y="26" width="160" height="30" as="geometry" />
        </mxCell>
        <mxCell id="W3kjEoYvYE4W8iOQ4hLF-25" value="customer_id" style="text;strokeColor=none;fillColor=none;spacingLeft=4;spacingRight=4;overflow=hidden;rotatable=0;points=[[0,0.5],[1,0.5]];portConstraint=eastwest;fontSize=12;whiteSpace=wrap;html=1;" parent="W3kjEoYvYE4W8iOQ4hLF-23" vertex="1">
          <mxGeometry y="56" width="160" height="30" as="geometry" />
        </mxCell>
        <mxCell id="W3kjEoYvYE4W8iOQ4hLF-26" value="restraunt_id" style="text;strokeColor=none;fillColor=none;spacingLeft=4;spacingRight=4;overflow=hidden;rotatable=0;points=[[0,0.5],[1,0.5]];portConstraint=eastwest;fontSize=12;whiteSpace=wrap;html=1;" parent="W3kjEoYvYE4W8iOQ4hLF-23" vertex="1">
          <mxGeometry y="86" width="160" height="30" as="geometry" />
        </mxCell>
        <mxCell id="W3kjEoYvYE4W8iOQ4hLF-27" value="courier_id (NULL)" style="text;strokeColor=none;fillColor=none;spacingLeft=4;spacingRight=4;overflow=hidden;rotatable=0;points=[[0,0.5],[1,0.5]];portConstraint=eastwest;fontSize=12;whiteSpace=wrap;html=1;" parent="W3kjEoYvYE4W8iOQ4hLF-23" vertex="1">
          <mxGeometry y="116" width="160" height="30" as="geometry" />
        </mxCell>
        <mxCell id="W3kjEoYvYE4W8iOQ4hLF-35" value="status" style="text;strokeColor=none;fillColor=none;spacingLeft=4;spacingRight=4;overflow=hidden;rotatable=0;points=[[0,0.5],[1,0.5]];portConstraint=eastwest;fontSize=12;whiteSpace=wrap;html=1;" parent="W3kjEoYvYE4W8iOQ4hLF-23" vertex="1">
          <mxGeometry y="146" width="160" height="30" as="geometry" />
        </mxCell>
        <mxCell id="W3kjEoYvYE4W8iOQ4hLF-52" value="kitchen_price" style="text;strokeColor=none;fillColor=none;spacingLeft=4;spacingRight=4;overflow=hidden;rotatable=0;points=[[0,0.5],[1,0.5]];portConstraint=eastwest;fontSize=12;whiteSpace=wrap;html=1;" parent="W3kjEoYvYE4W8iOQ4hLF-23" vertex="1">
          <mxGeometry y="176" width="160" height="30" as="geometry" />
        </mxCell>
        <mxCell id="W3kjEoYvYE4W8iOQ4hLF-51" value="delivery_price" style="text;strokeColor=none;fillColor=none;spacingLeft=4;spacingRight=4;overflow=hidden;rotatable=0;points=[[0,0.5],[1,0.5]];portConstraint=eastwest;fontSize=12;whiteSpace=wrap;html=1;" parent="W3kjEoYvYE4W8iOQ4hLF-23" vertex="1">
          <mxGeometry y="206" width="160" height="30" as="geometry" />
        </mxCell>
        <mxCell id="Wn2EotC5dBPvGt-490IU-1" value="delivery_datetime" style="text;strokeColor=none;fillColor=none;spacingLeft=4;spacingRight=4;overflow=hidden;rotatable=0;points=[[0,0.5],[1,0.5]];portConstraint=eastwest;fontSize=12;whiteSpace=wrap;html=1;" parent="W3kjEoYvYE4W8iOQ4hLF-23" vertex="1">
          <mxGeometry y="236" width="160" height="30" as="geometry" />
        </mxCell>
        <mxCell id="Wn2EotC5dBPvGt-490IU-12" value="delivery_adress" style="text;strokeColor=none;fillColor=none;spacingLeft=4;spacingRight=4;overflow=hidden;rotatable=0;points=[[0,0.5],[1,0.5]];portConstraint=eastwest;fontSize=12;whiteSpace=wrap;html=1;" parent="W3kjEoYvYE4W8iOQ4hLF-23" vertex="1">
          <mxGeometry y="266" width="160" height="30" as="geometry" />
        </mxCell>
        <mxCell id="W3kjEoYvYE4W8iOQ4hLF-28" value="timestamp" style="text;strokeColor=none;fillColor=none;spacingLeft=4;spacingRight=4;overflow=hidden;rotatable=0;points=[[0,0.5],[1,0.5]];portConstraint=eastwest;fontSize=12;whiteSpace=wrap;html=1;" parent="W3kjEoYvYE4W8iOQ4hLF-23" vertex="1">
          <mxGeometry y="296" width="160" height="30" as="geometry" />
        </mxCell>
        <mxCell id="W3kjEoYvYE4W8iOQ4hLF-29" value="Order_items" style="swimlane;fontStyle=0;childLayout=stackLayout;horizontal=1;startSize=26;horizontalStack=0;resizeParent=1;resizeParentMax=0;resizeLast=0;collapsible=1;marginBottom=0;align=center;fontSize=14;" parent="1" vertex="1">
          <mxGeometry x="280" y="240" width="160" height="176" as="geometry" />
        </mxCell>
        <mxCell id="W3kjEoYvYE4W8iOQ4hLF-30" value="id" style="text;strokeColor=none;fillColor=none;spacingLeft=4;spacingRight=4;overflow=hidden;rotatable=0;points=[[0,0.5],[1,0.5]];portConstraint=eastwest;fontSize=12;whiteSpace=wrap;html=1;" parent="W3kjEoYvYE4W8iOQ4hLF-29" vertex="1">
          <mxGeometry y="26" width="160" height="30" as="geometry" />
        </mxCell>
        <mxCell id="W3kjEoYvYE4W8iOQ4hLF-31" value="order_id" style="text;strokeColor=none;fillColor=none;spacingLeft=4;spacingRight=4;overflow=hidden;rotatable=0;points=[[0,0.5],[1,0.5]];portConstraint=eastwest;fontSize=12;whiteSpace=wrap;html=1;" parent="W3kjEoYvYE4W8iOQ4hLF-29" vertex="1">
          <mxGeometry y="56" width="160" height="30" as="geometry" />
        </mxCell>
        <mxCell id="W3kjEoYvYE4W8iOQ4hLF-32" value="restraunt_menu_item_id" style="text;strokeColor=none;fillColor=none;spacingLeft=4;spacingRight=4;overflow=hidden;rotatable=0;points=[[0,0.5],[1,0.5]];portConstraint=eastwest;fontSize=12;whiteSpace=wrap;html=1;" parent="W3kjEoYvYE4W8iOQ4hLF-29" vertex="1">
          <mxGeometry y="86" width="160" height="30" as="geometry" />
        </mxCell>
        <mxCell id="W3kjEoYvYE4W8iOQ4hLF-33" value="price" style="text;strokeColor=none;fillColor=none;spacingLeft=4;spacingRight=4;overflow=hidden;rotatable=0;points=[[0,0.5],[1,0.5]];portConstraint=eastwest;fontSize=12;whiteSpace=wrap;html=1;" parent="W3kjEoYvYE4W8iOQ4hLF-29" vertex="1">
          <mxGeometry y="116" width="160" height="30" as="geometry" />
        </mxCell>
        <mxCell id="W3kjEoYvYE4W8iOQ4hLF-34" value="quantity" style="text;strokeColor=none;fillColor=none;spacingLeft=4;spacingRight=4;overflow=hidden;rotatable=0;points=[[0,0.5],[1,0.5]];portConstraint=eastwest;fontSize=12;whiteSpace=wrap;html=1;" parent="W3kjEoYvYE4W8iOQ4hLF-29" vertex="1">
          <mxGeometry y="146" width="160" height="30" as="geometry" />
        </mxCell>
        <mxCell id="W3kjEoYvYE4W8iOQ4hLF-36" style="edgeStyle=orthogonalEdgeStyle;rounded=0;orthogonalLoop=1;jettySize=auto;html=1;exitX=1;exitY=0.5;exitDx=0;exitDy=0;entryX=0;entryY=0.5;entryDx=0;entryDy=0;" parent="1" source="W3kjEoYvYE4W8iOQ4hLF-24" target="W3kjEoYvYE4W8iOQ4hLF-31" edge="1">
          <mxGeometry relative="1" as="geometry" />
        </mxCell>
        <mxCell id="W3kjEoYvYE4W8iOQ4hLF-37" value="1:n" style="edgeLabel;html=1;align=center;verticalAlign=middle;resizable=0;points=[];" parent="W3kjEoYvYE4W8iOQ4hLF-36" vertex="1" connectable="0">
          <mxGeometry x="-0.6933" y="2" relative="1" as="geometry">
            <mxPoint as="offset" />
          </mxGeometry>
        </mxCell>
        <mxCell id="W3kjEoYvYE4W8iOQ4hLF-39" style="edgeStyle=orthogonalEdgeStyle;rounded=0;orthogonalLoop=1;jettySize=auto;html=1;exitX=0;exitY=0.5;exitDx=0;exitDy=0;entryX=0;entryY=0.5;entryDx=0;entryDy=0;" parent="1" source="QHEdXbrxIjDmkEsUSMZl-2" target="W3kjEoYvYE4W8iOQ4hLF-25" edge="1">
          <mxGeometry relative="1" as="geometry" />
        </mxCell>
        <mxCell id="W3kjEoYvYE4W8iOQ4hLF-50" value="1:n" style="edgeLabel;html=1;align=center;verticalAlign=middle;resizable=0;points=[];" parent="W3kjEoYvYE4W8iOQ4hLF-39" vertex="1" connectable="0">
          <mxGeometry x="-0.6741" relative="1" as="geometry">
            <mxPoint as="offset" />
          </mxGeometry>
        </mxCell>
        <mxCell id="W3kjEoYvYE4W8iOQ4hLF-41" value="Couriers" style="swimlane;fontStyle=0;childLayout=stackLayout;horizontal=1;startSize=26;horizontalStack=0;resizeParent=1;resizeParentMax=0;resizeLast=0;collapsible=1;marginBottom=0;align=center;fontSize=14;" parent="1" vertex="1">
          <mxGeometry x="40" y="590" width="160" height="146" as="geometry" />
        </mxCell>
        <mxCell id="W3kjEoYvYE4W8iOQ4hLF-42" value="id" style="text;strokeColor=none;fillColor=none;spacingLeft=4;spacingRight=4;overflow=hidden;rotatable=0;points=[[0,0.5],[1,0.5]];portConstraint=eastwest;fontSize=12;whiteSpace=wrap;html=1;" parent="W3kjEoYvYE4W8iOQ4hLF-41" vertex="1">
          <mxGeometry y="26" width="160" height="30" as="geometry" />
        </mxCell>
        <mxCell id="W3kjEoYvYE4W8iOQ4hLF-43" value="phone" style="text;strokeColor=none;fillColor=none;spacingLeft=4;spacingRight=4;overflow=hidden;rotatable=0;points=[[0,0.5],[1,0.5]];portConstraint=eastwest;fontSize=12;whiteSpace=wrap;html=1;" parent="W3kjEoYvYE4W8iOQ4hLF-41" vertex="1">
          <mxGeometry y="56" width="160" height="30" as="geometry" />
        </mxCell>
        <mxCell id="W3kjEoYvYE4W8iOQ4hLF-44" value="status" style="text;strokeColor=none;fillColor=none;spacingLeft=4;spacingRight=4;overflow=hidden;rotatable=0;points=[[0,0.5],[1,0.5]];portConstraint=eastwest;fontSize=12;whiteSpace=wrap;html=1;" parent="W3kjEoYvYE4W8iOQ4hLF-41" vertex="1">
          <mxGeometry y="86" width="160" height="30" as="geometry" />
        </mxCell>
        <mxCell id="W3kjEoYvYE4W8iOQ4hLF-45" value="coordinates" style="text;strokeColor=none;fillColor=none;spacingLeft=4;spacingRight=4;overflow=hidden;rotatable=0;points=[[0,0.5],[1,0.5]];portConstraint=eastwest;fontSize=12;whiteSpace=wrap;html=1;" parent="W3kjEoYvYE4W8iOQ4hLF-41" vertex="1">
          <mxGeometry y="116" width="160" height="30" as="geometry" />
        </mxCell>
        <mxCell id="W3kjEoYvYE4W8iOQ4hLF-46" style="edgeStyle=orthogonalEdgeStyle;rounded=0;orthogonalLoop=1;jettySize=auto;html=1;exitX=0;exitY=0.5;exitDx=0;exitDy=0;entryX=0;entryY=0.5;entryDx=0;entryDy=0;" parent="1" source="W3kjEoYvYE4W8iOQ4hLF-42" target="W3kjEoYvYE4W8iOQ4hLF-27" edge="1">
          <mxGeometry relative="1" as="geometry" />
        </mxCell>
        <mxCell id="W3kjEoYvYE4W8iOQ4hLF-49" value="1:n" style="edgeLabel;html=1;align=center;verticalAlign=middle;resizable=0;points=[];" parent="W3kjEoYvYE4W8iOQ4hLF-46" vertex="1" connectable="0">
          <mxGeometry x="-0.6095" y="1" relative="1" as="geometry">
            <mxPoint as="offset" />
          </mxGeometry>
        </mxCell>
        <mxCell id="W3kjEoYvYE4W8iOQ4hLF-47" style="edgeStyle=orthogonalEdgeStyle;rounded=0;orthogonalLoop=1;jettySize=auto;html=1;exitX=0;exitY=0.5;exitDx=0;exitDy=0;entryX=1;entryY=0.5;entryDx=0;entryDy=0;" parent="1" source="W3kjEoYvYE4W8iOQ4hLF-2" target="W3kjEoYvYE4W8iOQ4hLF-32" edge="1">
          <mxGeometry relative="1" as="geometry" />
        </mxCell>
        <mxCell id="W3kjEoYvYE4W8iOQ4hLF-48" value="1:n" style="edgeLabel;html=1;align=center;verticalAlign=middle;resizable=0;points=[];" parent="W3kjEoYvYE4W8iOQ4hLF-47" vertex="1" connectable="0">
          <mxGeometry x="-0.7333" y="1" relative="1" as="geometry">
            <mxPoint as="offset" />
          </mxGeometry>
        </mxCell>
        <mxCell id="Wn2EotC5dBPvGt-490IU-2" value="Order_history_items" style="swimlane;fontStyle=0;childLayout=stackLayout;horizontal=1;startSize=26;horizontalStack=0;resizeParent=1;resizeParentMax=0;resizeLast=0;collapsible=1;marginBottom=0;align=center;fontSize=14;" parent="1" vertex="1">
          <mxGeometry x="280" y="470" width="160" height="236" as="geometry" />
        </mxCell>
        <mxCell id="Wn2EotC5dBPvGt-490IU-3" value="id" style="text;strokeColor=none;fillColor=none;spacingLeft=4;spacingRight=4;overflow=hidden;rotatable=0;points=[[0,0.5],[1,0.5]];portConstraint=eastwest;fontSize=12;whiteSpace=wrap;html=1;" parent="Wn2EotC5dBPvGt-490IU-2" vertex="1">
          <mxGeometry y="26" width="160" height="30" as="geometry" />
        </mxCell>
        <mxCell id="Wn2EotC5dBPvGt-490IU-4" value="order_id" style="text;strokeColor=none;fillColor=none;spacingLeft=4;spacingRight=4;overflow=hidden;rotatable=0;points=[[0,0.5],[1,0.5]];portConstraint=eastwest;fontSize=12;whiteSpace=wrap;html=1;" parent="Wn2EotC5dBPvGt-490IU-2" vertex="1">
          <mxGeometry y="56" width="160" height="30" as="geometry" />
        </mxCell>
        <mxCell id="Wn2EotC5dBPvGt-490IU-7" value="changed_field" style="text;strokeColor=none;fillColor=none;spacingLeft=4;spacingRight=4;overflow=hidden;rotatable=0;points=[[0,0.5],[1,0.5]];portConstraint=eastwest;fontSize=12;whiteSpace=wrap;html=1;" parent="Wn2EotC5dBPvGt-490IU-2" vertex="1">
          <mxGeometry y="86" width="160" height="30" as="geometry" />
        </mxCell>
        <mxCell id="Wn2EotC5dBPvGt-490IU-8" value="old_value" style="text;strokeColor=none;fillColor=none;spacingLeft=4;spacingRight=4;overflow=hidden;rotatable=0;points=[[0,0.5],[1,0.5]];portConstraint=eastwest;fontSize=12;whiteSpace=wrap;html=1;" parent="Wn2EotC5dBPvGt-490IU-2" vertex="1">
          <mxGeometry y="116" width="160" height="30" as="geometry" />
        </mxCell>
        <mxCell id="Wn2EotC5dBPvGt-490IU-9" value="new_value" style="text;strokeColor=none;fillColor=none;spacingLeft=4;spacingRight=4;overflow=hidden;rotatable=0;points=[[0,0.5],[1,0.5]];portConstraint=eastwest;fontSize=12;whiteSpace=wrap;html=1;" parent="Wn2EotC5dBPvGt-490IU-2" vertex="1">
          <mxGeometry y="146" width="160" height="30" as="geometry" />
        </mxCell>
        <mxCell id="Wn2EotC5dBPvGt-490IU-11" value="editor" style="text;strokeColor=none;fillColor=none;spacingLeft=4;spacingRight=4;overflow=hidden;rotatable=0;points=[[0,0.5],[1,0.5]];portConstraint=eastwest;fontSize=12;whiteSpace=wrap;html=1;" parent="Wn2EotC5dBPvGt-490IU-2" vertex="1">
          <mxGeometry y="176" width="160" height="30" as="geometry" />
        </mxCell>
        <mxCell id="Wn2EotC5dBPvGt-490IU-5" value="timestamp" style="text;strokeColor=none;fillColor=none;spacingLeft=4;spacingRight=4;overflow=hidden;rotatable=0;points=[[0,0.5],[1,0.5]];portConstraint=eastwest;fontSize=12;whiteSpace=wrap;html=1;" parent="Wn2EotC5dBPvGt-490IU-2" vertex="1">
          <mxGeometry y="206" width="160" height="30" as="geometry" />
        </mxCell>
        <mxCell id="Wn2EotC5dBPvGt-490IU-10" style="edgeStyle=orthogonalEdgeStyle;rounded=0;orthogonalLoop=1;jettySize=auto;html=1;entryX=1;entryY=0.5;entryDx=0;entryDy=0;endArrow=none;endFill=0;startArrow=classic;startFill=1;" parent="1" source="Wn2EotC5dBPvGt-490IU-4" target="W3kjEoYvYE4W8iOQ4hLF-24" edge="1">
          <mxGeometry relative="1" as="geometry" />
        </mxCell>
        <mxCell id="Wn2EotC5dBPvGt-490IU-13" value="Customer_addresses" style="swimlane;fontStyle=0;childLayout=stackLayout;horizontal=1;startSize=26;horizontalStack=0;resizeParent=1;resizeParentMax=0;resizeLast=0;collapsible=1;marginBottom=0;align=center;fontSize=14;" parent="1" vertex="1">
          <mxGeometry x="280" y="40" width="160" height="146" as="geometry" />
        </mxCell>
        <mxCell id="Wn2EotC5dBPvGt-490IU-14" value="id" style="text;strokeColor=none;fillColor=none;spacingLeft=4;spacingRight=4;overflow=hidden;rotatable=0;points=[[0,0.5],[1,0.5]];portConstraint=eastwest;fontSize=12;whiteSpace=wrap;html=1;" parent="Wn2EotC5dBPvGt-490IU-13" vertex="1">
          <mxGeometry y="26" width="160" height="30" as="geometry" />
        </mxCell>
        <mxCell id="Wn2EotC5dBPvGt-490IU-15" value="customer_id" style="text;strokeColor=none;fillColor=none;spacingLeft=4;spacingRight=4;overflow=hidden;rotatable=0;points=[[0,0.5],[1,0.5]];portConstraint=eastwest;fontSize=12;whiteSpace=wrap;html=1;" parent="Wn2EotC5dBPvGt-490IU-13" vertex="1">
          <mxGeometry y="56" width="160" height="30" as="geometry" />
        </mxCell>
        <mxCell id="Wn2EotC5dBPvGt-490IU-18" value="address" style="text;strokeColor=none;fillColor=none;spacingLeft=4;spacingRight=4;overflow=hidden;rotatable=0;points=[[0,0.5],[1,0.5]];portConstraint=eastwest;fontSize=12;whiteSpace=wrap;html=1;" parent="Wn2EotC5dBPvGt-490IU-13" vertex="1">
          <mxGeometry y="86" width="160" height="30" as="geometry" />
        </mxCell>
        <mxCell id="Wn2EotC5dBPvGt-490IU-17" value="description" style="text;strokeColor=none;fillColor=none;spacingLeft=4;spacingRight=4;overflow=hidden;rotatable=0;points=[[0,0.5],[1,0.5]];portConstraint=eastwest;fontSize=12;whiteSpace=wrap;html=1;" parent="Wn2EotC5dBPvGt-490IU-13" vertex="1">
          <mxGeometry y="116" width="160" height="30" as="geometry" />
        </mxCell>
        <mxCell id="Wn2EotC5dBPvGt-490IU-19" style="edgeStyle=orthogonalEdgeStyle;rounded=0;orthogonalLoop=1;jettySize=auto;html=1;exitX=1;exitY=0.5;exitDx=0;exitDy=0;entryX=0;entryY=0.5;entryDx=0;entryDy=0;" parent="1" source="QHEdXbrxIjDmkEsUSMZl-2" target="Wn2EotC5dBPvGt-490IU-15" edge="1">
          <mxGeometry relative="1" as="geometry" />
        </mxCell>
        <mxCell id="Wn2EotC5dBPvGt-490IU-20" value="1:n" style="edgeLabel;html=1;align=center;verticalAlign=middle;resizable=0;points=[];" parent="Wn2EotC5dBPvGt-490IU-19" vertex="1" connectable="0">
          <mxGeometry x="-0.7697" y="1" relative="1" as="geometry">
            <mxPoint as="offset" />
          </mxGeometry>
        </mxCell>
      </root>
    </mxGraphModel>
  </diagram>
  <diagram id="7TlRrcRkSH8YZlznK1P4" name="С4 Context">
    <mxGraphModel dx="1194" dy="778" grid="1" gridSize="10" guides="1" tooltips="1" connect="1" arrows="1" fold="1" page="1" pageScale="1" pageWidth="850" pageHeight="1100" math="0" shadow="0">
      <root>
        <mxCell id="0" />
        <mxCell id="1" parent="0" />
        <mxCell id="JMUO1jwY5yZWx-GRzBsA-6" value="Сервис доставки еды" style="rounded=1;whiteSpace=wrap;html=1;fontSize=19;fillColor=#cce5ff;strokeColor=#36393d;" parent="1" vertex="1">
          <mxGeometry x="330" y="430" width="190" height="110" as="geometry" />
        </mxCell>
        <mxCell id="JMUO1jwY5yZWx-GRzBsA-7" value="C4 Context" style="text;html=1;align=left;verticalAlign=middle;whiteSpace=wrap;rounded=0;fontSize=32;" parent="1" vertex="1">
          <mxGeometry x="40" y="50" width="260" height="30" as="geometry" />
        </mxCell>
        <mxCell id="JMUO1jwY5yZWx-GRzBsA-10" value="" style="group" parent="1" vertex="1" connectable="0">
          <mxGeometry x="375" y="120" width="100" height="128" as="geometry" />
        </mxCell>
        <mxCell id="JMUO1jwY5yZWx-GRzBsA-1" value="" style="sketch=0;outlineConnect=0;fontColor=#232F3E;gradientColor=none;fillColor=#232F3D;strokeColor=none;dashed=0;verticalLabelPosition=bottom;verticalAlign=top;align=center;html=1;fontSize=12;fontStyle=0;aspect=fixed;pointerEvents=1;shape=mxgraph.aws4.user;" parent="JMUO1jwY5yZWx-GRzBsA-10" vertex="1">
          <mxGeometry x="11" width="78" height="78" as="geometry" />
        </mxCell>
        <mxCell id="JMUO1jwY5yZWx-GRzBsA-8" value="Администратор ресторана" style="text;html=1;align=center;verticalAlign=top;whiteSpace=wrap;rounded=0;fontSize=14;fontStyle=1" parent="JMUO1jwY5yZWx-GRzBsA-10" vertex="1">
          <mxGeometry y="78" width="100" height="50" as="geometry" />
        </mxCell>
        <mxCell id="JMUO1jwY5yZWx-GRzBsA-9" style="edgeStyle=orthogonalEdgeStyle;rounded=0;orthogonalLoop=1;jettySize=auto;html=1;exitX=0.5;exitY=1;exitDx=0;exitDy=0;" parent="JMUO1jwY5yZWx-GRzBsA-10" source="JMUO1jwY5yZWx-GRzBsA-8" target="JMUO1jwY5yZWx-GRzBsA-8" edge="1">
          <mxGeometry relative="1" as="geometry" />
        </mxCell>
        <mxCell id="JMUO1jwY5yZWx-GRzBsA-11" value="" style="group" parent="1" vertex="1" connectable="0">
          <mxGeometry x="70" y="120" width="100" height="128" as="geometry" />
        </mxCell>
        <mxCell id="JMUO1jwY5yZWx-GRzBsA-12" value="" style="sketch=0;outlineConnect=0;fontColor=#232F3E;gradientColor=none;fillColor=#232F3D;strokeColor=none;dashed=0;verticalLabelPosition=bottom;verticalAlign=top;align=center;html=1;fontSize=12;fontStyle=0;aspect=fixed;pointerEvents=1;shape=mxgraph.aws4.user;" parent="JMUO1jwY5yZWx-GRzBsA-11" vertex="1">
          <mxGeometry x="11" width="78" height="78" as="geometry" />
        </mxCell>
        <mxCell id="JMUO1jwY5yZWx-GRzBsA-13" value="Владелец ресторана" style="text;html=1;align=center;verticalAlign=top;whiteSpace=wrap;rounded=0;fontSize=14;fontStyle=1" parent="JMUO1jwY5yZWx-GRzBsA-11" vertex="1">
          <mxGeometry y="78" width="100" height="50" as="geometry" />
        </mxCell>
        <mxCell id="JMUO1jwY5yZWx-GRzBsA-14" style="edgeStyle=orthogonalEdgeStyle;rounded=0;orthogonalLoop=1;jettySize=auto;html=1;exitX=0.5;exitY=1;exitDx=0;exitDy=0;" parent="JMUO1jwY5yZWx-GRzBsA-11" source="JMUO1jwY5yZWx-GRzBsA-13" target="JMUO1jwY5yZWx-GRzBsA-13" edge="1">
          <mxGeometry relative="1" as="geometry" />
        </mxCell>
        <mxCell id="JMUO1jwY5yZWx-GRzBsA-15" value="" style="group" parent="1" vertex="1" connectable="0">
          <mxGeometry x="681" y="120" width="110" height="128" as="geometry" />
        </mxCell>
        <mxCell id="JMUO1jwY5yZWx-GRzBsA-16" value="" style="sketch=0;outlineConnect=0;fontColor=#232F3E;gradientColor=none;fillColor=#232F3D;strokeColor=none;dashed=0;verticalLabelPosition=bottom;verticalAlign=top;align=center;html=1;fontSize=12;fontStyle=0;aspect=fixed;pointerEvents=1;shape=mxgraph.aws4.user;" parent="JMUO1jwY5yZWx-GRzBsA-15" vertex="1">
          <mxGeometry x="11" width="78" height="78" as="geometry" />
        </mxCell>
        <mxCell id="JMUO1jwY5yZWx-GRzBsA-17" value="IT-специалисты и разработчики" style="text;html=1;align=center;verticalAlign=top;whiteSpace=wrap;rounded=0;fontSize=14;fontStyle=1" parent="JMUO1jwY5yZWx-GRzBsA-15" vertex="1">
          <mxGeometry x="-10" y="78" width="120" height="50" as="geometry" />
        </mxCell>
        <mxCell id="JMUO1jwY5yZWx-GRzBsA-18" style="edgeStyle=orthogonalEdgeStyle;rounded=0;orthogonalLoop=1;jettySize=auto;html=1;exitX=0.5;exitY=1;exitDx=0;exitDy=0;" parent="JMUO1jwY5yZWx-GRzBsA-15" source="JMUO1jwY5yZWx-GRzBsA-17" target="JMUO1jwY5yZWx-GRzBsA-17" edge="1">
          <mxGeometry relative="1" as="geometry" />
        </mxCell>
        <mxCell id="JMUO1jwY5yZWx-GRzBsA-19" style="edgeStyle=orthogonalEdgeStyle;rounded=0;orthogonalLoop=1;jettySize=auto;html=1;entryX=0.25;entryY=0;entryDx=0;entryDy=0;" parent="1" source="JMUO1jwY5yZWx-GRzBsA-13" target="JMUO1jwY5yZWx-GRzBsA-6" edge="1">
          <mxGeometry relative="1" as="geometry">
            <Array as="points">
              <mxPoint x="120" y="360" />
              <mxPoint x="378" y="360" />
            </Array>
          </mxGeometry>
        </mxCell>
        <mxCell id="JMUO1jwY5yZWx-GRzBsA-20" value="Управление процессами&lt;br style=&quot;font-size: 13px;&quot;&gt;[]" style="edgeLabel;html=1;align=center;verticalAlign=middle;resizable=0;points=[];fontSize=13;" parent="JMUO1jwY5yZWx-GRzBsA-19" vertex="1" connectable="0">
          <mxGeometry x="0.0679" y="1" relative="1" as="geometry">
            <mxPoint as="offset" />
          </mxGeometry>
        </mxCell>
        <mxCell id="JMUO1jwY5yZWx-GRzBsA-21" style="edgeStyle=orthogonalEdgeStyle;rounded=0;orthogonalLoop=1;jettySize=auto;html=1;entryX=0.5;entryY=0;entryDx=0;entryDy=0;" parent="1" source="JMUO1jwY5yZWx-GRzBsA-8" target="JMUO1jwY5yZWx-GRzBsA-6" edge="1">
          <mxGeometry relative="1" as="geometry" />
        </mxCell>
        <mxCell id="JMUO1jwY5yZWx-GRzBsA-22" value="Управляет заказами&lt;br style=&quot;font-size: 13px;&quot;&gt;Управляет меню&lt;br style=&quot;font-size: 13px;&quot;&gt;[HTTPS]" style="edgeLabel;html=1;align=center;verticalAlign=middle;resizable=0;points=[];fontSize=13;labelBackgroundColor=default;labelBorderColor=none;textShadow=0;" parent="JMUO1jwY5yZWx-GRzBsA-21" vertex="1" connectable="0">
          <mxGeometry x="-0.3114" y="-1" relative="1" as="geometry">
            <mxPoint as="offset" />
          </mxGeometry>
        </mxCell>
        <mxCell id="JMUO1jwY5yZWx-GRzBsA-23" style="edgeStyle=orthogonalEdgeStyle;rounded=0;orthogonalLoop=1;jettySize=auto;html=1;entryX=0.75;entryY=0;entryDx=0;entryDy=0;" parent="1" source="JMUO1jwY5yZWx-GRzBsA-17" target="JMUO1jwY5yZWx-GRzBsA-6" edge="1">
          <mxGeometry relative="1" as="geometry">
            <Array as="points">
              <mxPoint x="731" y="360" />
              <mxPoint x="473" y="360" />
            </Array>
          </mxGeometry>
        </mxCell>
        <mxCell id="JMUO1jwY5yZWx-GRzBsA-24" value="Развивает, исправляет, деплоит&lt;br style=&quot;font-size: 13px;&quot;&gt;[средства разработки]" style="edgeLabel;html=1;align=center;verticalAlign=middle;resizable=0;points=[];fontSize=13;" parent="JMUO1jwY5yZWx-GRzBsA-23" vertex="1" connectable="0">
          <mxGeometry x="0.0367" y="1" relative="1" as="geometry">
            <mxPoint as="offset" />
          </mxGeometry>
        </mxCell>
        <mxCell id="JMUO1jwY5yZWx-GRzBsA-29" value="" style="group" parent="1" vertex="1" connectable="0">
          <mxGeometry x="70" y="600" width="100" height="128" as="geometry" />
        </mxCell>
        <mxCell id="JMUO1jwY5yZWx-GRzBsA-30" value="" style="sketch=0;outlineConnect=0;fontColor=#232F3E;gradientColor=none;fillColor=#232F3D;strokeColor=none;dashed=0;verticalLabelPosition=bottom;verticalAlign=top;align=center;html=1;fontSize=12;fontStyle=0;aspect=fixed;pointerEvents=1;shape=mxgraph.aws4.user;" parent="JMUO1jwY5yZWx-GRzBsA-29" vertex="1">
          <mxGeometry x="11" width="78" height="78" as="geometry" />
        </mxCell>
        <mxCell id="JMUO1jwY5yZWx-GRzBsA-31" value="Заказчики еды" style="text;html=1;align=center;verticalAlign=top;whiteSpace=wrap;rounded=0;fontSize=14;fontStyle=1" parent="JMUO1jwY5yZWx-GRzBsA-29" vertex="1">
          <mxGeometry y="78" width="100" height="50" as="geometry" />
        </mxCell>
        <mxCell id="JMUO1jwY5yZWx-GRzBsA-32" style="edgeStyle=orthogonalEdgeStyle;rounded=0;orthogonalLoop=1;jettySize=auto;html=1;exitX=0.5;exitY=1;exitDx=0;exitDy=0;" parent="JMUO1jwY5yZWx-GRzBsA-29" source="JMUO1jwY5yZWx-GRzBsA-31" target="JMUO1jwY5yZWx-GRzBsA-31" edge="1">
          <mxGeometry relative="1" as="geometry" />
        </mxCell>
        <mxCell id="JMUO1jwY5yZWx-GRzBsA-33" value="" style="group" parent="1" vertex="1" connectable="0">
          <mxGeometry x="680" y="600" width="100" height="128" as="geometry" />
        </mxCell>
        <mxCell id="JMUO1jwY5yZWx-GRzBsA-34" value="" style="sketch=0;outlineConnect=0;fontColor=#232F3E;gradientColor=none;fillColor=#232F3D;strokeColor=none;dashed=0;verticalLabelPosition=bottom;verticalAlign=top;align=center;html=1;fontSize=12;fontStyle=0;aspect=fixed;pointerEvents=1;shape=mxgraph.aws4.user;" parent="JMUO1jwY5yZWx-GRzBsA-33" vertex="1">
          <mxGeometry x="11" width="78" height="78" as="geometry" />
        </mxCell>
        <mxCell id="JMUO1jwY5yZWx-GRzBsA-35" value="Курьеры" style="text;html=1;align=center;verticalAlign=top;whiteSpace=wrap;rounded=0;fontSize=14;fontStyle=1" parent="JMUO1jwY5yZWx-GRzBsA-33" vertex="1">
          <mxGeometry y="78" width="100" height="50" as="geometry" />
        </mxCell>
        <mxCell id="JMUO1jwY5yZWx-GRzBsA-36" style="edgeStyle=orthogonalEdgeStyle;rounded=0;orthogonalLoop=1;jettySize=auto;html=1;exitX=0.5;exitY=1;exitDx=0;exitDy=0;" parent="JMUO1jwY5yZWx-GRzBsA-33" source="JMUO1jwY5yZWx-GRzBsA-35" target="JMUO1jwY5yZWx-GRzBsA-35" edge="1">
          <mxGeometry relative="1" as="geometry" />
        </mxCell>
        <mxCell id="JMUO1jwY5yZWx-GRzBsA-37" style="edgeStyle=orthogonalEdgeStyle;rounded=0;orthogonalLoop=1;jettySize=auto;html=1;entryX=0.25;entryY=1;entryDx=0;entryDy=0;" parent="1" source="JMUO1jwY5yZWx-GRzBsA-30" target="JMUO1jwY5yZWx-GRzBsA-6" edge="1">
          <mxGeometry relative="1" as="geometry" />
        </mxCell>
        <mxCell id="JMUO1jwY5yZWx-GRzBsA-39" value="Размещают заказы, оплачивают&lt;br style=&quot;font-size: 13px;&quot;&gt;[HTTPS]" style="edgeLabel;html=1;align=center;verticalAlign=middle;resizable=0;points=[];fontSize=13;" parent="JMUO1jwY5yZWx-GRzBsA-37" vertex="1" connectable="0">
          <mxGeometry x="-0.301" relative="1" as="geometry">
            <mxPoint as="offset" />
          </mxGeometry>
        </mxCell>
        <mxCell id="JMUO1jwY5yZWx-GRzBsA-38" style="edgeStyle=orthogonalEdgeStyle;rounded=0;orthogonalLoop=1;jettySize=auto;html=1;entryX=0.75;entryY=1;entryDx=0;entryDy=0;" parent="1" source="JMUO1jwY5yZWx-GRzBsA-34" target="JMUO1jwY5yZWx-GRzBsA-6" edge="1">
          <mxGeometry relative="1" as="geometry" />
        </mxCell>
        <mxCell id="JMUO1jwY5yZWx-GRzBsA-40" value="Получают и выполняют &lt;br&gt;доставку заказов&lt;br style=&quot;font-size: 13px;&quot;&gt;[HTTPS]" style="edgeLabel;html=1;align=center;verticalAlign=middle;resizable=0;points=[];fontSize=13;" parent="JMUO1jwY5yZWx-GRzBsA-38" vertex="1" connectable="0">
          <mxGeometry x="-0.3342" y="1" relative="1" as="geometry">
            <mxPoint as="offset" />
          </mxGeometry>
        </mxCell>
      </root>
    </mxGraphModel>
  </diagram>
  <diagram id="QV3DGca41pcLPJERlHo6" name="C4 Container">
    <mxGraphModel dx="1194" dy="778" grid="1" gridSize="10" guides="1" tooltips="1" connect="1" arrows="1" fold="1" page="1" pageScale="1" pageWidth="850" pageHeight="1100" math="0" shadow="0">
      <root>
        <mxCell id="0" />
        <mxCell id="1" parent="0" />
        <mxCell id="BOBwHjQORD10icfodLLg-20" style="edgeStyle=orthogonalEdgeStyle;rounded=0;orthogonalLoop=1;jettySize=auto;html=1;exitX=1;exitY=0.25;exitDx=0;exitDy=0;entryX=0;entryY=0.5;entryDx=0;entryDy=0;startArrow=block;startFill=1;" parent="1" source="BOBwHjQORD10icfodLLg-8" target="rmLSJeg9d21sCQpr1zDK-1" edge="1">
          <mxGeometry relative="1" as="geometry" />
        </mxCell>
        <mxCell id="BOBwHjQORD10icfodLLg-22" value="Аутентификация" style="edgeLabel;html=1;align=center;verticalAlign=middle;resizable=0;points=[];" parent="BOBwHjQORD10icfodLLg-20" vertex="1" connectable="0">
          <mxGeometry x="-0.2195" y="-1" relative="1" as="geometry">
            <mxPoint x="-1" y="1" as="offset" />
          </mxGeometry>
        </mxCell>
        <mxCell id="BOBwHjQORD10icfodLLg-21" style="edgeStyle=orthogonalEdgeStyle;rounded=0;orthogonalLoop=1;jettySize=auto;html=1;exitX=1;exitY=0.5;exitDx=0;exitDy=0;entryX=0;entryY=0.5;entryDx=0;entryDy=0;" parent="1" source="BOBwHjQORD10icfodLLg-8" target="rmLSJeg9d21sCQpr1zDK-2" edge="1">
          <mxGeometry relative="1" as="geometry" />
        </mxCell>
        <mxCell id="BOBwHjQORD10icfodLLg-23" value="Оплата" style="edgeLabel;html=1;align=center;verticalAlign=middle;resizable=0;points=[];" parent="BOBwHjQORD10icfodLLg-21" vertex="1" connectable="0">
          <mxGeometry x="0.0764" y="-3" relative="1" as="geometry">
            <mxPoint as="offset" />
          </mxGeometry>
        </mxCell>
        <mxCell id="1e8QHtAYbpmSwGoM7SBv-18" style="edgeStyle=orthogonalEdgeStyle;rounded=0;orthogonalLoop=1;jettySize=auto;html=1;entryX=0.5;entryY=0;entryDx=0;entryDy=0;" parent="1" source="BOBwHjQORD10icfodLLg-8" target="1e8QHtAYbpmSwGoM7SBv-16" edge="1">
          <mxGeometry relative="1" as="geometry">
            <Array as="points">
              <mxPoint x="460" y="480" />
              <mxPoint x="785" y="480" />
            </Array>
          </mxGeometry>
        </mxCell>
        <mxCell id="BOBwHjQORD10icfodLLg-8" value="" style="rounded=0;whiteSpace=wrap;html=1;fillColor=none;dashed=1;" parent="1" vertex="1">
          <mxGeometry x="90" y="270" width="740" height="180" as="geometry" />
        </mxCell>
        <mxCell id="XGf1m3h3icp9mOZ9wuO0-1" style="edgeStyle=orthogonalEdgeStyle;rounded=0;orthogonalLoop=1;jettySize=auto;html=1;exitX=1;exitY=0.5;exitDx=0;exitDy=0;entryX=1;entryY=0.25;entryDx=0;entryDy=0;" parent="1" source="rmLSJeg9d21sCQpr1zDK-1" target="BOBwHjQORD10icfodLLg-25" edge="1">
          <mxGeometry relative="1" as="geometry" />
        </mxCell>
        <mxCell id="XGf1m3h3icp9mOZ9wuO0-2" value="JWT&amp;nbsp;" style="edgeLabel;html=1;align=center;verticalAlign=middle;resizable=0;points=[];" parent="XGf1m3h3icp9mOZ9wuO0-1" vertex="1" connectable="0">
          <mxGeometry x="0.3278" y="-2" relative="1" as="geometry">
            <mxPoint x="1" as="offset" />
          </mxGeometry>
        </mxCell>
        <mxCell id="rmLSJeg9d21sCQpr1zDK-1" value="Identity service" style="rounded=1;whiteSpace=wrap;html=1;fillColor=#fff2cc;strokeColor=#d6b656;" parent="1" vertex="1">
          <mxGeometry x="990" y="240" width="120" height="60" as="geometry" />
        </mxCell>
        <mxCell id="rmLSJeg9d21sCQpr1zDK-2" value="payment gateway" style="rounded=1;whiteSpace=wrap;html=1;fillColor=#fff2cc;strokeColor=#d6b656;" parent="1" vertex="1">
          <mxGeometry x="990" y="330" width="120" height="60" as="geometry" />
        </mxCell>
        <mxCell id="BOBwHjQORD10icfodLLg-6" style="edgeStyle=orthogonalEdgeStyle;rounded=0;orthogonalLoop=1;jettySize=auto;html=1;exitX=1;exitY=0.5;exitDx=0;exitDy=0;" parent="1" source="Pa2doQeFRSDJ1UjmksDD-1" target="B2EPt6l_Tp95JLbp3TTw-2" edge="1">
          <mxGeometry relative="1" as="geometry" />
        </mxCell>
        <mxCell id="BOBwHjQORD10icfodLLg-7" value="Получает уведомления" style="edgeLabel;html=1;align=center;verticalAlign=middle;resizable=0;points=[];" parent="BOBwHjQORD10icfodLLg-6" vertex="1" connectable="0">
          <mxGeometry x="-0.1291" y="1" relative="1" as="geometry">
            <mxPoint as="offset" />
          </mxGeometry>
        </mxCell>
        <mxCell id="Pa2doQeFRSDJ1UjmksDD-1" value="notification service" style="rounded=1;whiteSpace=wrap;html=1;fillColor=#fff2cc;strokeColor=#d6b656;" parent="1" vertex="1">
          <mxGeometry x="50" y="90" width="120" height="60" as="geometry" />
        </mxCell>
        <mxCell id="1PuzY_sJ3UYEgF2xEXFt-1" value="Monitoring" style="rounded=1;whiteSpace=wrap;html=1;fillColor=#f5f5f5;fontColor=#333333;strokeColor=#666666;" parent="1" vertex="1">
          <mxGeometry x="700" y="862" width="170" height="100" as="geometry" />
        </mxCell>
        <mxCell id="WZW3GJ2KVFak5K2Rb3f6-1" value="map service" style="rounded=1;whiteSpace=wrap;html=1;fillColor=#fff2cc;strokeColor=#d6b656;" parent="1" vertex="1">
          <mxGeometry x="700" y="990" width="120" height="60" as="geometry" />
        </mxCell>
        <mxCell id="B6HTVC44Hrpg8nhG0W_C-1" value="customer mobile app" style="rounded=1;whiteSpace=wrap;html=1;fillColor=#dae8fc;strokeColor=#6c8ebf;" parent="1" vertex="1">
          <mxGeometry x="480" y="368" width="160" height="40" as="geometry" />
        </mxCell>
        <mxCell id="B6HTVC44Hrpg8nhG0W_C-2" value="customer web app" style="rounded=1;whiteSpace=wrap;html=1;fillColor=#dae8fc;strokeColor=#6c8ebf;" parent="1" vertex="1">
          <mxGeometry x="300" y="368" width="160" height="40" as="geometry" />
        </mxCell>
        <mxCell id="B2EPt6l_Tp95JLbp3TTw-1" value="" style="group" parent="1" vertex="1" connectable="0">
          <mxGeometry x="510" y="80" width="100" height="128" as="geometry" />
        </mxCell>
        <mxCell id="B2EPt6l_Tp95JLbp3TTw-2" value="" style="sketch=0;outlineConnect=0;fontColor=#232F3E;gradientColor=none;fillColor=#232F3D;strokeColor=none;dashed=0;verticalLabelPosition=bottom;verticalAlign=top;align=center;html=1;fontSize=12;fontStyle=0;aspect=fixed;pointerEvents=1;shape=mxgraph.aws4.user;" parent="B2EPt6l_Tp95JLbp3TTw-1" vertex="1">
          <mxGeometry x="11" width="78" height="78" as="geometry" />
        </mxCell>
        <mxCell id="B2EPt6l_Tp95JLbp3TTw-3" value="Пользователь" style="text;html=1;align=center;verticalAlign=top;whiteSpace=wrap;rounded=0;fontSize=14;fontStyle=1" parent="B2EPt6l_Tp95JLbp3TTw-1" vertex="1">
          <mxGeometry y="78" width="100" height="32" as="geometry" />
        </mxCell>
        <mxCell id="B2EPt6l_Tp95JLbp3TTw-4" style="edgeStyle=orthogonalEdgeStyle;rounded=0;orthogonalLoop=1;jettySize=auto;html=1;exitX=0.5;exitY=1;exitDx=0;exitDy=0;" parent="B2EPt6l_Tp95JLbp3TTw-1" source="B2EPt6l_Tp95JLbp3TTw-3" target="B2EPt6l_Tp95JLbp3TTw-3" edge="1">
          <mxGeometry relative="1" as="geometry" />
        </mxCell>
        <mxCell id="BOBwHjQORD10icfodLLg-9" value="Фронтенд" style="text;html=1;align=left;verticalAlign=middle;whiteSpace=wrap;rounded=0;fontStyle=1" parent="1" vertex="1">
          <mxGeometry x="90" y="420" width="60" height="30" as="geometry" />
        </mxCell>
        <mxCell id="BOBwHjQORD10icfodLLg-11" value="restraunt&amp;nbsp;web app" style="rounded=1;whiteSpace=wrap;html=1;fillColor=#dae8fc;strokeColor=#6c8ebf;" parent="1" vertex="1">
          <mxGeometry x="300" y="302" width="160" height="40" as="geometry" />
        </mxCell>
        <mxCell id="BOBwHjQORD10icfodLLg-12" value="restraunt&amp;nbsp;mobile app" style="rounded=1;whiteSpace=wrap;html=1;fillColor=#dae8fc;strokeColor=#6c8ebf;" parent="1" vertex="1">
          <mxGeometry x="480" y="302" width="160" height="40" as="geometry" />
        </mxCell>
        <mxCell id="BOBwHjQORD10icfodLLg-13" value="courier mobile app" style="rounded=1;whiteSpace=wrap;html=1;fillColor=#dae8fc;strokeColor=#6c8ebf;" parent="1" vertex="1">
          <mxGeometry x="660" y="302" width="160" height="40" as="geometry" />
        </mxCell>
        <mxCell id="BOBwHjQORD10icfodLLg-15" style="edgeStyle=orthogonalEdgeStyle;rounded=0;orthogonalLoop=1;jettySize=auto;html=1;exitX=1;exitY=0.25;exitDx=0;exitDy=0;entryX=0;entryY=0.5;entryDx=0;entryDy=0;" parent="1" source="BOBwHjQORD10icfodLLg-14" target="BOBwHjQORD10icfodLLg-11" edge="1">
          <mxGeometry relative="1" as="geometry" />
        </mxCell>
        <mxCell id="BOBwHjQORD10icfodLLg-16" style="edgeStyle=orthogonalEdgeStyle;rounded=0;orthogonalLoop=1;jettySize=auto;html=1;exitX=1;exitY=0.75;exitDx=0;exitDy=0;" parent="1" source="BOBwHjQORD10icfodLLg-14" target="B6HTVC44Hrpg8nhG0W_C-2" edge="1">
          <mxGeometry relative="1" as="geometry" />
        </mxCell>
        <mxCell id="BOBwHjQORD10icfodLLg-14" value="Web-сервер" style="rounded=1;whiteSpace=wrap;html=1;" parent="1" vertex="1">
          <mxGeometry x="100" y="290" width="150" height="130" as="geometry" />
        </mxCell>
        <mxCell id="BOBwHjQORD10icfodLLg-17" style="edgeStyle=orthogonalEdgeStyle;rounded=0;orthogonalLoop=1;jettySize=auto;html=1;exitX=0.25;exitY=1;exitDx=0;exitDy=0;entryX=0.5;entryY=0;entryDx=0;entryDy=0;" parent="1" source="B2EPt6l_Tp95JLbp3TTw-3" target="BOBwHjQORD10icfodLLg-11" edge="1">
          <mxGeometry relative="1" as="geometry" />
        </mxCell>
        <mxCell id="BOBwHjQORD10icfodLLg-18" style="edgeStyle=orthogonalEdgeStyle;rounded=0;orthogonalLoop=1;jettySize=auto;html=1;" parent="1" source="B2EPt6l_Tp95JLbp3TTw-3" target="BOBwHjQORD10icfodLLg-12" edge="1">
          <mxGeometry relative="1" as="geometry" />
        </mxCell>
        <mxCell id="BOBwHjQORD10icfodLLg-19" style="edgeStyle=orthogonalEdgeStyle;rounded=0;orthogonalLoop=1;jettySize=auto;html=1;exitX=0.75;exitY=1;exitDx=0;exitDy=0;entryX=0.5;entryY=0;entryDx=0;entryDy=0;" parent="1" source="B2EPt6l_Tp95JLbp3TTw-3" target="BOBwHjQORD10icfodLLg-13" edge="1">
          <mxGeometry relative="1" as="geometry" />
        </mxCell>
        <mxCell id="1e8QHtAYbpmSwGoM7SBv-14" style="edgeStyle=orthogonalEdgeStyle;rounded=0;orthogonalLoop=1;jettySize=auto;html=1;entryX=0;entryY=0.5;entryDx=0;entryDy=0;" parent="1" source="BOBwHjQORD10icfodLLg-25" target="Pa2doQeFRSDJ1UjmksDD-1" edge="1">
          <mxGeometry relative="1" as="geometry">
            <Array as="points">
              <mxPoint x="30" y="775" />
              <mxPoint x="30" y="120" />
            </Array>
          </mxGeometry>
        </mxCell>
        <mxCell id="1e8QHtAYbpmSwGoM7SBv-19" style="edgeStyle=orthogonalEdgeStyle;rounded=0;orthogonalLoop=1;jettySize=auto;html=1;exitX=1;exitY=0.75;exitDx=0;exitDy=0;entryX=0;entryY=0.5;entryDx=0;entryDy=0;" parent="1" source="BOBwHjQORD10icfodLLg-25" target="1PuzY_sJ3UYEgF2xEXFt-1" edge="1">
          <mxGeometry relative="1" as="geometry" />
        </mxCell>
        <mxCell id="BOBwHjQORD10icfodLLg-25" value="" style="rounded=0;whiteSpace=wrap;html=1;fillColor=none;dashed=1;" parent="1" vertex="1">
          <mxGeometry x="90" y="500" width="530" height="550" as="geometry" />
        </mxCell>
        <mxCell id="BOBwHjQORD10icfodLLg-26" value="Бэкенд" style="text;html=1;align=left;verticalAlign=middle;whiteSpace=wrap;rounded=0;fontStyle=1" parent="1" vertex="1">
          <mxGeometry x="90" y="1020" width="60" height="30" as="geometry" />
        </mxCell>
        <mxCell id="XEdv1FJAwSxs9Mp4tLYo-1" value="" style="group" parent="1" vertex="1" connectable="0">
          <mxGeometry x="120" y="800" width="73" height="86" as="geometry" />
        </mxCell>
        <mxCell id="XEdv1FJAwSxs9Mp4tLYo-2" value="Message&lt;br&gt;Broker" style="shape=cylinder3;whiteSpace=wrap;html=1;boundedLbl=1;backgroundOutline=1;size=15;fillColor=#e1d5e7;strokeColor=#9673a6;" parent="XEdv1FJAwSxs9Mp4tLYo-1" vertex="1">
          <mxGeometry width="60" height="80" as="geometry" />
        </mxCell>
        <mxCell id="XEdv1FJAwSxs9Mp4tLYo-3" value="" style="shape=message;html=1;html=1;outlineConnect=0;labelPosition=center;verticalLabelPosition=bottom;align=center;verticalAlign=top;fillColor=#e1d5e7;strokeColor=#9673a6;" parent="XEdv1FJAwSxs9Mp4tLYo-1" vertex="1">
          <mxGeometry x="43" y="66" width="30" height="20" as="geometry" />
        </mxCell>
        <mxCell id="XEdv1FJAwSxs9Mp4tLYo-4" value="" style="group" parent="1" vertex="1" connectable="0">
          <mxGeometry x="120" y="520" width="60" height="130" as="geometry" />
        </mxCell>
        <mxCell id="XEdv1FJAwSxs9Mp4tLYo-5" value="SQL" style="shape=cylinder3;whiteSpace=wrap;html=1;boundedLbl=1;backgroundOutline=1;size=15;fillColor=#e1d5e7;strokeColor=#9673a6;" parent="XEdv1FJAwSxs9Mp4tLYo-4" vertex="1">
          <mxGeometry width="60" height="80" as="geometry" />
        </mxCell>
        <mxCell id="XEdv1FJAwSxs9Mp4tLYo-6" value="Users, Orders and other" style="text;html=1;align=center;verticalAlign=middle;whiteSpace=wrap;rounded=0;" parent="XEdv1FJAwSxs9Mp4tLYo-4" vertex="1">
          <mxGeometry y="80" width="60" height="50" as="geometry" />
        </mxCell>
        <mxCell id="XEdv1FJAwSxs9Mp4tLYo-7" value="" style="group" parent="1" vertex="1" connectable="0">
          <mxGeometry x="120" y="670" width="60" height="115" as="geometry" />
        </mxCell>
        <mxCell id="XEdv1FJAwSxs9Mp4tLYo-8" value="noSQL" style="shape=cylinder3;whiteSpace=wrap;html=1;boundedLbl=1;backgroundOutline=1;size=15;fillColor=#e1d5e7;strokeColor=#9673a6;" parent="XEdv1FJAwSxs9Mp4tLYo-7" vertex="1">
          <mxGeometry width="60" height="80" as="geometry" />
        </mxCell>
        <mxCell id="XEdv1FJAwSxs9Mp4tLYo-9" value="Tokens,&amp;nbsp;&lt;br&gt;Sessions" style="text;html=1;align=center;verticalAlign=middle;whiteSpace=wrap;rounded=0;" parent="XEdv1FJAwSxs9Mp4tLYo-7" vertex="1">
          <mxGeometry y="85" width="60" height="30" as="geometry" />
        </mxCell>
        <mxCell id="XEdv1FJAwSxs9Mp4tLYo-10" value="" style="group" parent="1" vertex="1" connectable="0">
          <mxGeometry x="117" y="910" width="66" height="90" as="geometry" />
        </mxCell>
        <mxCell id="XEdv1FJAwSxs9Mp4tLYo-11" value="" style="verticalLabelPosition=bottom;html=1;verticalAlign=top;align=center;strokeColor=#9673a6;fillColor=#e1d5e7;shape=mxgraph.azure.sql_reporting;" parent="XEdv1FJAwSxs9Mp4tLYo-10" vertex="1">
          <mxGeometry x="11.000000000000032" width="44" height="50" as="geometry" />
        </mxCell>
        <mxCell id="XEdv1FJAwSxs9Mp4tLYo-12" value="File storage" style="text;html=1;align=center;verticalAlign=middle;whiteSpace=wrap;rounded=0;" parent="XEdv1FJAwSxs9Mp4tLYo-10" vertex="1">
          <mxGeometry y="60" width="66" height="30" as="geometry" />
        </mxCell>
        <mxCell id="1e8QHtAYbpmSwGoM7SBv-5" style="edgeStyle=orthogonalEdgeStyle;rounded=0;orthogonalLoop=1;jettySize=auto;html=1;" parent="1" source="1e8QHtAYbpmSwGoM7SBv-1" target="XEdv1FJAwSxs9Mp4tLYo-8" edge="1">
          <mxGeometry relative="1" as="geometry" />
        </mxCell>
        <mxCell id="1e8QHtAYbpmSwGoM7SBv-1" value="customer backend" style="rounded=1;whiteSpace=wrap;html=1;fillColor=#d5e8d4;strokeColor=#82b366;flipH=0;" parent="1" vertex="1">
          <mxGeometry x="310" y="652" width="200" height="40" as="geometry" />
        </mxCell>
        <mxCell id="1e8QHtAYbpmSwGoM7SBv-4" style="edgeStyle=orthogonalEdgeStyle;rounded=0;orthogonalLoop=1;jettySize=auto;html=1;entryX=1;entryY=0.5;entryDx=0;entryDy=0;entryPerimeter=0;" parent="1" source="1e8QHtAYbpmSwGoM7SBv-1" target="XEdv1FJAwSxs9Mp4tLYo-5" edge="1">
          <mxGeometry relative="1" as="geometry" />
        </mxCell>
        <mxCell id="1e8QHtAYbpmSwGoM7SBv-6" style="edgeStyle=orthogonalEdgeStyle;rounded=0;orthogonalLoop=1;jettySize=auto;html=1;entryX=1;entryY=0.5;entryDx=0;entryDy=0;entryPerimeter=0;" parent="1" source="1e8QHtAYbpmSwGoM7SBv-1" target="XEdv1FJAwSxs9Mp4tLYo-2" edge="1">
          <mxGeometry relative="1" as="geometry" />
        </mxCell>
        <mxCell id="1e8QHtAYbpmSwGoM7SBv-10" style="edgeStyle=orthogonalEdgeStyle;rounded=0;orthogonalLoop=1;jettySize=auto;html=1;" parent="1" source="1e8QHtAYbpmSwGoM7SBv-8" target="XEdv1FJAwSxs9Mp4tLYo-8" edge="1">
          <mxGeometry relative="1" as="geometry" />
        </mxCell>
        <mxCell id="1e8QHtAYbpmSwGoM7SBv-8" value="kitchen backend" style="rounded=1;whiteSpace=wrap;html=1;fillColor=#d5e8d4;strokeColor=#82b366;flipH=0;" parent="1" vertex="1">
          <mxGeometry x="310" y="720" width="200" height="40" as="geometry" />
        </mxCell>
        <mxCell id="1e8QHtAYbpmSwGoM7SBv-9" style="edgeStyle=orthogonalEdgeStyle;rounded=0;orthogonalLoop=1;jettySize=auto;html=1;entryX=1;entryY=0.5;entryDx=0;entryDy=0;entryPerimeter=0;" parent="1" source="1e8QHtAYbpmSwGoM7SBv-8" target="XEdv1FJAwSxs9Mp4tLYo-5" edge="1">
          <mxGeometry relative="1" as="geometry" />
        </mxCell>
        <mxCell id="1e8QHtAYbpmSwGoM7SBv-11" style="edgeStyle=orthogonalEdgeStyle;rounded=0;orthogonalLoop=1;jettySize=auto;html=1;entryX=1;entryY=0.58;entryDx=0;entryDy=0;entryPerimeter=0;flowAnimation=0;jumpStyle=arc;" parent="1" source="1e8QHtAYbpmSwGoM7SBv-8" target="XEdv1FJAwSxs9Mp4tLYo-11" edge="1">
          <mxGeometry relative="1" as="geometry">
            <Array as="points">
              <mxPoint x="230" y="740" />
              <mxPoint x="230" y="939" />
            </Array>
          </mxGeometry>
        </mxCell>
        <mxCell id="1e8QHtAYbpmSwGoM7SBv-15" style="edgeStyle=orthogonalEdgeStyle;rounded=0;orthogonalLoop=1;jettySize=auto;html=1;" parent="1" source="1e8QHtAYbpmSwGoM7SBv-12" target="WZW3GJ2KVFak5K2Rb3f6-1" edge="1">
          <mxGeometry relative="1" as="geometry">
            <Array as="points">
              <mxPoint x="560" y="810" />
              <mxPoint x="560" y="1020" />
            </Array>
          </mxGeometry>
        </mxCell>
        <mxCell id="1e8QHtAYbpmSwGoM7SBv-12" value="courier backend" style="rounded=1;whiteSpace=wrap;html=1;fillColor=#d5e8d4;strokeColor=#82b366;flipH=0;" parent="1" vertex="1">
          <mxGeometry x="310" y="790" width="200" height="40" as="geometry" />
        </mxCell>
        <mxCell id="1e8QHtAYbpmSwGoM7SBv-13" style="edgeStyle=orthogonalEdgeStyle;rounded=0;orthogonalLoop=1;jettySize=auto;html=1;entryX=1;entryY=0.5;entryDx=0;entryDy=0;entryPerimeter=0;" parent="1" source="1e8QHtAYbpmSwGoM7SBv-12" target="XEdv1FJAwSxs9Mp4tLYo-8" edge="1">
          <mxGeometry relative="1" as="geometry" />
        </mxCell>
        <mxCell id="1e8QHtAYbpmSwGoM7SBv-17" style="edgeStyle=orthogonalEdgeStyle;rounded=0;orthogonalLoop=1;jettySize=auto;html=1;entryX=1;entryY=0.5;entryDx=0;entryDy=0;" parent="1" source="1e8QHtAYbpmSwGoM7SBv-16" target="BOBwHjQORD10icfodLLg-25" edge="1">
          <mxGeometry relative="1" as="geometry" />
        </mxCell>
        <mxCell id="1e8QHtAYbpmSwGoM7SBv-16" value="API Gateway" style="rounded=1;whiteSpace=wrap;html=1;fillColor=#f5f5f5;fontColor=#333333;strokeColor=#666666;" parent="1" vertex="1">
          <mxGeometry x="700" y="725" width="170" height="100" as="geometry" />
        </mxCell>
        <mxCell id="SxHzP64O5lm_gKwJ-ABH-1" value="C4 Container" style="text;html=1;align=left;verticalAlign=middle;whiteSpace=wrap;rounded=0;fontSize=32;" parent="1" vertex="1">
          <mxGeometry x="40" y="20" width="260" height="30" as="geometry" />
        </mxCell>
      </root>
    </mxGraphModel>
  </diagram>
  <diagram id="pTiNgdIdSTPot8tlL-wO" name="ER">
    <mxGraphModel dx="1493" dy="973" grid="1" gridSize="10" guides="1" tooltips="1" connect="1" arrows="1" fold="1" page="1" pageScale="1" pageWidth="850" pageHeight="1100" math="0" shadow="0">
      <root>
        <mxCell id="0" />
        <mxCell id="1" parent="0" />
        <mxCell id="kjVwi4K-dnqBiENOUq0f-72" style="edgeStyle=orthogonalEdgeStyle;rounded=0;orthogonalLoop=1;jettySize=auto;html=1;entryX=0.5;entryY=0;entryDx=0;entryDy=0;startArrow=ERone;startFill=0;endArrow=ERzeroToMany;endFill=0;" parent="1" source="kjVwi4K-dnqBiENOUq0f-1" target="kjVwi4K-dnqBiENOUq0f-24" edge="1">
          <mxGeometry relative="1" as="geometry" />
        </mxCell>
        <mxCell id="kjVwi4K-dnqBiENOUq0f-73" value="создает" style="edgeLabel;html=1;align=center;verticalAlign=middle;resizable=0;points=[];" parent="kjVwi4K-dnqBiENOUq0f-72" vertex="1" connectable="0">
          <mxGeometry x="-0.2252" y="-1" relative="1" as="geometry">
            <mxPoint as="offset" />
          </mxGeometry>
        </mxCell>
        <mxCell id="kjVwi4K-dnqBiENOUq0f-1" value="Customers" style="swimlane;fontStyle=0;childLayout=stackLayout;horizontal=1;startSize=26;horizontalStack=0;resizeParent=1;resizeParentMax=0;resizeLast=0;collapsible=1;marginBottom=0;align=center;fontSize=14;fillColor=#d5e8d4;strokeColor=#82b366;" parent="1" vertex="1">
          <mxGeometry x="40" y="40" width="160" height="146" as="geometry" />
        </mxCell>
        <mxCell id="kjVwi4K-dnqBiENOUq0f-2" value="id" style="text;strokeColor=none;fillColor=none;spacingLeft=4;spacingRight=4;overflow=hidden;rotatable=0;points=[[0,0.5],[1,0.5]];portConstraint=eastwest;fontSize=12;whiteSpace=wrap;html=1;" parent="kjVwi4K-dnqBiENOUq0f-1" vertex="1">
          <mxGeometry y="26" width="160" height="30" as="geometry" />
        </mxCell>
        <mxCell id="kjVwi4K-dnqBiENOUq0f-3" value="phone" style="text;strokeColor=none;fillColor=none;spacingLeft=4;spacingRight=4;overflow=hidden;rotatable=0;points=[[0,0.5],[1,0.5]];portConstraint=eastwest;fontSize=12;whiteSpace=wrap;html=1;" parent="kjVwi4K-dnqBiENOUq0f-1" vertex="1">
          <mxGeometry y="56" width="160" height="30" as="geometry" />
        </mxCell>
        <mxCell id="kjVwi4K-dnqBiENOUq0f-4" value="email" style="text;strokeColor=none;fillColor=none;spacingLeft=4;spacingRight=4;overflow=hidden;rotatable=0;points=[[0,0.5],[1,0.5]];portConstraint=eastwest;fontSize=12;whiteSpace=wrap;html=1;" parent="kjVwi4K-dnqBiENOUq0f-1" vertex="1">
          <mxGeometry y="86" width="160" height="30" as="geometry" />
        </mxCell>
        <mxCell id="44EDoxVs4GtGQKKsdJp0-40" value="discount" style="text;strokeColor=none;fillColor=none;spacingLeft=4;spacingRight=4;overflow=hidden;rotatable=0;points=[[0,0.5],[1,0.5]];portConstraint=eastwest;fontSize=12;whiteSpace=wrap;html=1;" vertex="1" parent="kjVwi4K-dnqBiENOUq0f-1">
          <mxGeometry y="116" width="160" height="30" as="geometry" />
        </mxCell>
        <mxCell id="kjVwi4K-dnqBiENOUq0f-83" style="edgeStyle=orthogonalEdgeStyle;rounded=0;orthogonalLoop=1;jettySize=auto;html=1;entryX=1;entryY=0.5;entryDx=0;entryDy=0;startArrow=ERone;startFill=0;endArrow=ERoneToMany;endFill=0;" parent="1" source="kjVwi4K-dnqBiENOUq0f-5" target="kjVwi4K-dnqBiENOUq0f-15" edge="1">
          <mxGeometry relative="1" as="geometry" />
        </mxCell>
        <mxCell id="kjVwi4K-dnqBiENOUq0f-84" value="предлагает" style="edgeLabel;html=1;align=center;verticalAlign=middle;resizable=0;points=[];" parent="kjVwi4K-dnqBiENOUq0f-83" vertex="1" connectable="0">
          <mxGeometry x="-0.0248" y="2" relative="1" as="geometry">
            <mxPoint as="offset" />
          </mxGeometry>
        </mxCell>
        <mxCell id="44EDoxVs4GtGQKKsdJp0-91" style="edgeStyle=orthogonalEdgeStyle;rounded=0;orthogonalLoop=1;jettySize=auto;html=1;entryX=0.5;entryY=0;entryDx=0;entryDy=0;startArrow=ERone;startFill=0;endArrow=ERoneToMany;endFill=0;" edge="1" parent="1" source="kjVwi4K-dnqBiENOUq0f-5" target="44EDoxVs4GtGQKKsdJp0-78">
          <mxGeometry relative="1" as="geometry" />
        </mxCell>
        <mxCell id="44EDoxVs4GtGQKKsdJp0-112" value="хранит" style="edgeLabel;html=1;align=center;verticalAlign=middle;resizable=0;points=[];" vertex="1" connectable="0" parent="44EDoxVs4GtGQKKsdJp0-91">
          <mxGeometry x="0.3301" y="2" relative="1" as="geometry">
            <mxPoint as="offset" />
          </mxGeometry>
        </mxCell>
        <mxCell id="44EDoxVs4GtGQKKsdJp0-107" style="edgeStyle=orthogonalEdgeStyle;rounded=0;orthogonalLoop=1;jettySize=auto;html=1;startArrow=ERone;startFill=0;endArrow=ERzeroToMany;endFill=0;" edge="1" parent="1" source="kjVwi4K-dnqBiENOUq0f-5" target="kjVwi4K-dnqBiENOUq0f-10">
          <mxGeometry relative="1" as="geometry" />
        </mxCell>
        <mxCell id="44EDoxVs4GtGQKKsdJp0-110" value="предлагает" style="edgeLabel;html=1;align=center;verticalAlign=middle;resizable=0;points=[];" vertex="1" connectable="0" parent="44EDoxVs4GtGQKKsdJp0-107">
          <mxGeometry x="0.0487" y="-1" relative="1" as="geometry">
            <mxPoint as="offset" />
          </mxGeometry>
        </mxCell>
        <mxCell id="kjVwi4K-dnqBiENOUq0f-5" value="Restraunts" style="swimlane;fontStyle=0;childLayout=stackLayout;horizontal=1;startSize=26;horizontalStack=0;resizeParent=1;resizeParentMax=0;resizeLast=0;collapsible=1;marginBottom=0;align=center;fontSize=14;fillColor=#dae8fc;strokeColor=#6c8ebf;" parent="1" vertex="1">
          <mxGeometry x="1115" y="650" width="160" height="206" as="geometry" />
        </mxCell>
        <mxCell id="kjVwi4K-dnqBiENOUq0f-6" value="id" style="text;strokeColor=none;fillColor=none;spacingLeft=4;spacingRight=4;overflow=hidden;rotatable=0;points=[[0,0.5],[1,0.5]];portConstraint=eastwest;fontSize=12;whiteSpace=wrap;html=1;" parent="kjVwi4K-dnqBiENOUq0f-5" vertex="1">
          <mxGeometry y="26" width="160" height="30" as="geometry" />
        </mxCell>
        <mxCell id="kjVwi4K-dnqBiENOUq0f-7" value="name" style="text;strokeColor=none;fillColor=none;spacingLeft=4;spacingRight=4;overflow=hidden;rotatable=0;points=[[0,0.5],[1,0.5]];portConstraint=eastwest;fontSize=12;whiteSpace=wrap;html=1;" parent="kjVwi4K-dnqBiENOUq0f-5" vertex="1">
          <mxGeometry y="56" width="160" height="30" as="geometry" />
        </mxCell>
        <mxCell id="kjVwi4K-dnqBiENOUq0f-8" value="phone" style="text;strokeColor=none;fillColor=none;spacingLeft=4;spacingRight=4;overflow=hidden;rotatable=0;points=[[0,0.5],[1,0.5]];portConstraint=eastwest;fontSize=12;whiteSpace=wrap;html=1;" parent="kjVwi4K-dnqBiENOUq0f-5" vertex="1">
          <mxGeometry y="86" width="160" height="30" as="geometry" />
        </mxCell>
        <mxCell id="44EDoxVs4GtGQKKsdJp0-39" value="address" style="text;strokeColor=none;fillColor=none;spacingLeft=4;spacingRight=4;overflow=hidden;rotatable=0;points=[[0,0.5],[1,0.5]];portConstraint=eastwest;fontSize=12;whiteSpace=wrap;html=1;" vertex="1" parent="kjVwi4K-dnqBiENOUq0f-5">
          <mxGeometry y="116" width="160" height="30" as="geometry" />
        </mxCell>
        <mxCell id="z6vCbhi_ukK4YdXHDohs-5" value="coordinates" style="text;strokeColor=none;fillColor=none;spacingLeft=4;spacingRight=4;overflow=hidden;rotatable=0;points=[[0,0.5],[1,0.5]];portConstraint=eastwest;fontSize=12;whiteSpace=wrap;html=1;" vertex="1" parent="kjVwi4K-dnqBiENOUq0f-5">
          <mxGeometry y="146" width="160" height="30" as="geometry" />
        </mxCell>
        <mxCell id="kjVwi4K-dnqBiENOUq0f-9" value="status (OPEN / CLOSE)" style="text;strokeColor=none;fillColor=none;spacingLeft=4;spacingRight=4;overflow=hidden;rotatable=0;points=[[0,0.5],[1,0.5]];portConstraint=eastwest;fontSize=12;whiteSpace=wrap;html=1;" parent="kjVwi4K-dnqBiENOUq0f-5" vertex="1">
          <mxGeometry y="176" width="160" height="30" as="geometry" />
        </mxCell>
        <mxCell id="44EDoxVs4GtGQKKsdJp0-70" style="edgeStyle=orthogonalEdgeStyle;rounded=0;orthogonalLoop=1;jettySize=auto;html=1;startArrow=ERone;startFill=0;endArrow=ERoneToMany;endFill=0;" edge="1" parent="1" source="44EDoxVs4GtGQKKsdJp0-97" target="44EDoxVs4GtGQKKsdJp0-65">
          <mxGeometry relative="1" as="geometry">
            <Array as="points">
              <mxPoint x="835" y="1110" />
              <mxPoint x="835" y="973" />
            </Array>
          </mxGeometry>
        </mxCell>
        <mxCell id="44EDoxVs4GtGQKKsdJp0-71" value="содержит" style="edgeLabel;html=1;align=center;verticalAlign=middle;resizable=0;points=[];" vertex="1" connectable="0" parent="44EDoxVs4GtGQKKsdJp0-70">
          <mxGeometry x="0.0013" y="-3" relative="1" as="geometry">
            <mxPoint as="offset" />
          </mxGeometry>
        </mxCell>
        <mxCell id="44EDoxVs4GtGQKKsdJp0-108" style="edgeStyle=orthogonalEdgeStyle;rounded=0;orthogonalLoop=1;jettySize=auto;html=1;endArrow=ERone;endFill=0;startArrow=ERzeroToMany;startFill=0;" edge="1" parent="1" source="kjVwi4K-dnqBiENOUq0f-10" target="44EDoxVs4GtGQKKsdJp0-97">
          <mxGeometry relative="1" as="geometry" />
        </mxCell>
        <mxCell id="44EDoxVs4GtGQKKsdJp0-109" value="является" style="edgeLabel;html=1;align=center;verticalAlign=middle;resizable=0;points=[];" vertex="1" connectable="0" parent="44EDoxVs4GtGQKKsdJp0-108">
          <mxGeometry x="-0.0307" y="-3" relative="1" as="geometry">
            <mxPoint as="offset" />
          </mxGeometry>
        </mxCell>
        <mxCell id="kjVwi4K-dnqBiENOUq0f-10" value="Restraunt_menu_items" style="swimlane;fontStyle=0;childLayout=stackLayout;horizontal=1;startSize=26;horizontalStack=0;resizeParent=1;resizeParentMax=0;resizeLast=0;collapsible=1;marginBottom=0;align=center;fontSize=14;fillColor=#dae8fc;strokeColor=#6c8ebf;" parent="1" vertex="1">
          <mxGeometry x="630" y="750" width="160" height="116" as="geometry" />
        </mxCell>
        <mxCell id="kjVwi4K-dnqBiENOUq0f-11" value="id" style="text;strokeColor=none;fillColor=none;spacingLeft=4;spacingRight=4;overflow=hidden;rotatable=0;points=[[0,0.5],[1,0.5]];portConstraint=eastwest;fontSize=12;whiteSpace=wrap;html=1;" parent="kjVwi4K-dnqBiENOUq0f-10" vertex="1">
          <mxGeometry y="26" width="160" height="30" as="geometry" />
        </mxCell>
        <mxCell id="44EDoxVs4GtGQKKsdJp0-41" value="cooking_time" style="text;strokeColor=none;fillColor=none;spacingLeft=4;spacingRight=4;overflow=hidden;rotatable=0;points=[[0,0.5],[1,0.5]];portConstraint=eastwest;fontSize=12;whiteSpace=wrap;html=1;" vertex="1" parent="kjVwi4K-dnqBiENOUq0f-10">
          <mxGeometry y="56" width="160" height="30" as="geometry" />
        </mxCell>
        <mxCell id="44EDoxVs4GtGQKKsdJp0-62" value="status" style="text;strokeColor=none;fillColor=none;spacingLeft=4;spacingRight=4;overflow=hidden;rotatable=0;points=[[0,0.5],[1,0.5]];portConstraint=eastwest;fontSize=12;whiteSpace=wrap;html=1;" vertex="1" parent="kjVwi4K-dnqBiENOUq0f-10">
          <mxGeometry y="86" width="160" height="30" as="geometry" />
        </mxCell>
        <mxCell id="kjVwi4K-dnqBiENOUq0f-24" value="Customer_orders" style="swimlane;fontStyle=0;childLayout=stackLayout;horizontal=1;startSize=26;horizontalStack=0;resizeParent=1;resizeParentMax=0;resizeLast=0;collapsible=1;marginBottom=0;align=center;fontSize=14;fillColor=#d5e8d4;strokeColor=#82b366;" parent="1" vertex="1">
          <mxGeometry x="40" y="240" width="160" height="236" as="geometry" />
        </mxCell>
        <mxCell id="kjVwi4K-dnqBiENOUq0f-25" value="id" style="text;strokeColor=none;fillColor=none;spacingLeft=4;spacingRight=4;overflow=hidden;rotatable=0;points=[[0,0.5],[1,0.5]];portConstraint=eastwest;fontSize=12;whiteSpace=wrap;html=1;" parent="kjVwi4K-dnqBiENOUq0f-24" vertex="1">
          <mxGeometry y="26" width="160" height="30" as="geometry" />
        </mxCell>
        <mxCell id="kjVwi4K-dnqBiENOUq0f-29" value="status" style="text;strokeColor=none;fillColor=none;spacingLeft=4;spacingRight=4;overflow=hidden;rotatable=0;points=[[0,0.5],[1,0.5]];portConstraint=eastwest;fontSize=12;whiteSpace=wrap;html=1;" parent="kjVwi4K-dnqBiENOUq0f-24" vertex="1">
          <mxGeometry y="56" width="160" height="30" as="geometry" />
        </mxCell>
        <mxCell id="kjVwi4K-dnqBiENOUq0f-31" value="price" style="text;strokeColor=none;fillColor=none;spacingLeft=4;spacingRight=4;overflow=hidden;rotatable=0;points=[[0,0.5],[1,0.5]];portConstraint=eastwest;fontSize=12;whiteSpace=wrap;html=1;" parent="kjVwi4K-dnqBiENOUq0f-24" vertex="1">
          <mxGeometry y="86" width="160" height="30" as="geometry" />
        </mxCell>
        <mxCell id="kjVwi4K-dnqBiENOUq0f-32" value="delivery_datetime" style="text;strokeColor=none;fillColor=none;spacingLeft=4;spacingRight=4;overflow=hidden;rotatable=0;points=[[0,0.5],[1,0.5]];portConstraint=eastwest;fontSize=12;whiteSpace=wrap;html=1;" parent="kjVwi4K-dnqBiENOUq0f-24" vertex="1">
          <mxGeometry y="116" width="160" height="30" as="geometry" />
        </mxCell>
        <mxCell id="kjVwi4K-dnqBiENOUq0f-33" value="delivery_address" style="text;strokeColor=none;fillColor=none;spacingLeft=4;spacingRight=4;overflow=hidden;rotatable=0;points=[[0,0.5],[1,0.5]];portConstraint=eastwest;fontSize=12;whiteSpace=wrap;html=1;" parent="kjVwi4K-dnqBiENOUq0f-24" vertex="1">
          <mxGeometry y="146" width="160" height="30" as="geometry" />
        </mxCell>
        <mxCell id="kjVwi4K-dnqBiENOUq0f-34" value="timestamp" style="text;strokeColor=none;fillColor=none;spacingLeft=4;spacingRight=4;overflow=hidden;rotatable=0;points=[[0,0.5],[1,0.5]];portConstraint=eastwest;fontSize=12;whiteSpace=wrap;html=1;" parent="kjVwi4K-dnqBiENOUq0f-24" vertex="1">
          <mxGeometry y="176" width="160" height="30" as="geometry" />
        </mxCell>
        <mxCell id="z6vCbhi_ukK4YdXHDohs-1" value="mark" style="text;strokeColor=none;fillColor=none;spacingLeft=4;spacingRight=4;overflow=hidden;rotatable=0;points=[[0,0.5],[1,0.5]];portConstraint=eastwest;fontSize=12;whiteSpace=wrap;html=1;" vertex="1" parent="kjVwi4K-dnqBiENOUq0f-24">
          <mxGeometry y="206" width="160" height="30" as="geometry" />
        </mxCell>
        <mxCell id="kjVwi4K-dnqBiENOUq0f-35" value="Order_items" style="swimlane;fontStyle=0;childLayout=stackLayout;horizontal=1;startSize=26;horizontalStack=0;resizeParent=1;resizeParentMax=0;resizeLast=0;collapsible=1;marginBottom=0;align=center;fontSize=14;fillColor=#d5e8d4;strokeColor=#82b366;" parent="1" vertex="1">
          <mxGeometry x="320" y="240" width="160" height="176" as="geometry" />
        </mxCell>
        <mxCell id="kjVwi4K-dnqBiENOUq0f-36" value="id" style="text;strokeColor=none;fillColor=none;spacingLeft=4;spacingRight=4;overflow=hidden;rotatable=0;points=[[0,0.5],[1,0.5]];portConstraint=eastwest;fontSize=12;whiteSpace=wrap;html=1;" parent="kjVwi4K-dnqBiENOUq0f-35" vertex="1">
          <mxGeometry y="26" width="160" height="30" as="geometry" />
        </mxCell>
        <mxCell id="kjVwi4K-dnqBiENOUq0f-38" value="title" style="text;strokeColor=none;fillColor=none;spacingLeft=4;spacingRight=4;overflow=hidden;rotatable=0;points=[[0,0.5],[1,0.5]];portConstraint=eastwest;fontSize=12;whiteSpace=wrap;html=1;" parent="kjVwi4K-dnqBiENOUq0f-35" vertex="1">
          <mxGeometry y="56" width="160" height="30" as="geometry" />
        </mxCell>
        <mxCell id="kjVwi4K-dnqBiENOUq0f-39" value="price" style="text;strokeColor=none;fillColor=none;spacingLeft=4;spacingRight=4;overflow=hidden;rotatable=0;points=[[0,0.5],[1,0.5]];portConstraint=eastwest;fontSize=12;whiteSpace=wrap;html=1;" parent="kjVwi4K-dnqBiENOUq0f-35" vertex="1">
          <mxGeometry y="86" width="160" height="30" as="geometry" />
        </mxCell>
        <mxCell id="kjVwi4K-dnqBiENOUq0f-40" value="quantity" style="text;strokeColor=none;fillColor=none;spacingLeft=4;spacingRight=4;overflow=hidden;rotatable=0;points=[[0,0.5],[1,0.5]];portConstraint=eastwest;fontSize=12;whiteSpace=wrap;html=1;" parent="kjVwi4K-dnqBiENOUq0f-35" vertex="1">
          <mxGeometry y="116" width="160" height="30" as="geometry" />
        </mxCell>
        <mxCell id="44EDoxVs4GtGQKKsdJp0-24" value="description" style="text;strokeColor=none;fillColor=none;spacingLeft=4;spacingRight=4;overflow=hidden;rotatable=0;points=[[0,0.5],[1,0.5]];portConstraint=eastwest;fontSize=12;whiteSpace=wrap;html=1;" vertex="1" parent="kjVwi4K-dnqBiENOUq0f-35">
          <mxGeometry y="146" width="160" height="30" as="geometry" />
        </mxCell>
        <mxCell id="44EDoxVs4GtGQKKsdJp0-89" style="edgeStyle=orthogonalEdgeStyle;rounded=0;orthogonalLoop=1;jettySize=auto;html=1;startArrow=ERone;startFill=0;endArrow=ERzeroToMany;endFill=0;" edge="1" parent="1" source="kjVwi4K-dnqBiENOUq0f-45" target="44EDoxVs4GtGQKKsdJp0-9">
          <mxGeometry relative="1" as="geometry" />
        </mxCell>
        <mxCell id="44EDoxVs4GtGQKKsdJp0-90" value="выполняет" style="edgeLabel;html=1;align=center;verticalAlign=middle;resizable=0;points=[];" vertex="1" connectable="0" parent="44EDoxVs4GtGQKKsdJp0-89">
          <mxGeometry x="-0.5152" y="-3" relative="1" as="geometry">
            <mxPoint x="20" y="10" as="offset" />
          </mxGeometry>
        </mxCell>
        <mxCell id="kjVwi4K-dnqBiENOUq0f-45" value="Couriers" style="swimlane;fontStyle=0;childLayout=stackLayout;horizontal=1;startSize=26;horizontalStack=0;resizeParent=1;resizeParentMax=0;resizeLast=0;collapsible=1;marginBottom=0;align=center;fontSize=14;fillColor=#e1d5e7;strokeColor=#9673a6;" parent="1" vertex="1">
          <mxGeometry x="640" y="40" width="160" height="146" as="geometry" />
        </mxCell>
        <mxCell id="kjVwi4K-dnqBiENOUq0f-46" value="id" style="text;strokeColor=none;fillColor=none;spacingLeft=4;spacingRight=4;overflow=hidden;rotatable=0;points=[[0,0.5],[1,0.5]];portConstraint=eastwest;fontSize=12;whiteSpace=wrap;html=1;" parent="kjVwi4K-dnqBiENOUq0f-45" vertex="1">
          <mxGeometry y="26" width="160" height="30" as="geometry" />
        </mxCell>
        <mxCell id="kjVwi4K-dnqBiENOUq0f-47" value="phone" style="text;strokeColor=none;fillColor=none;spacingLeft=4;spacingRight=4;overflow=hidden;rotatable=0;points=[[0,0.5],[1,0.5]];portConstraint=eastwest;fontSize=12;whiteSpace=wrap;html=1;" parent="kjVwi4K-dnqBiENOUq0f-45" vertex="1">
          <mxGeometry y="56" width="160" height="30" as="geometry" />
        </mxCell>
        <mxCell id="kjVwi4K-dnqBiENOUq0f-48" value="status" style="text;strokeColor=none;fillColor=none;spacingLeft=4;spacingRight=4;overflow=hidden;rotatable=0;points=[[0,0.5],[1,0.5]];portConstraint=eastwest;fontSize=12;whiteSpace=wrap;html=1;" parent="kjVwi4K-dnqBiENOUq0f-45" vertex="1">
          <mxGeometry y="86" width="160" height="30" as="geometry" />
        </mxCell>
        <mxCell id="kjVwi4K-dnqBiENOUq0f-49" value="coordinates" style="text;strokeColor=none;fillColor=none;spacingLeft=4;spacingRight=4;overflow=hidden;rotatable=0;points=[[0,0.5],[1,0.5]];portConstraint=eastwest;fontSize=12;whiteSpace=wrap;html=1;" parent="kjVwi4K-dnqBiENOUq0f-45" vertex="1">
          <mxGeometry y="116" width="160" height="30" as="geometry" />
        </mxCell>
        <mxCell id="kjVwi4K-dnqBiENOUq0f-54" value="Order_history_items" style="swimlane;fontStyle=0;childLayout=stackLayout;horizontal=1;startSize=26;horizontalStack=0;resizeParent=1;resizeParentMax=0;resizeLast=0;collapsible=1;marginBottom=0;align=center;fontSize=14;fillColor=#dae8fc;strokeColor=#6c8ebf;" parent="1" vertex="1">
          <mxGeometry x="360" y="856" width="160" height="206" as="geometry" />
        </mxCell>
        <mxCell id="kjVwi4K-dnqBiENOUq0f-55" value="id" style="text;strokeColor=none;fillColor=none;spacingLeft=4;spacingRight=4;overflow=hidden;rotatable=0;points=[[0,0.5],[1,0.5]];portConstraint=eastwest;fontSize=12;whiteSpace=wrap;html=1;" parent="kjVwi4K-dnqBiENOUq0f-54" vertex="1">
          <mxGeometry y="26" width="160" height="30" as="geometry" />
        </mxCell>
        <mxCell id="kjVwi4K-dnqBiENOUq0f-57" value="changed_field" style="text;strokeColor=none;fillColor=none;spacingLeft=4;spacingRight=4;overflow=hidden;rotatable=0;points=[[0,0.5],[1,0.5]];portConstraint=eastwest;fontSize=12;whiteSpace=wrap;html=1;" parent="kjVwi4K-dnqBiENOUq0f-54" vertex="1">
          <mxGeometry y="56" width="160" height="30" as="geometry" />
        </mxCell>
        <mxCell id="kjVwi4K-dnqBiENOUq0f-58" value="old_value" style="text;strokeColor=none;fillColor=none;spacingLeft=4;spacingRight=4;overflow=hidden;rotatable=0;points=[[0,0.5],[1,0.5]];portConstraint=eastwest;fontSize=12;whiteSpace=wrap;html=1;" parent="kjVwi4K-dnqBiENOUq0f-54" vertex="1">
          <mxGeometry y="86" width="160" height="30" as="geometry" />
        </mxCell>
        <mxCell id="kjVwi4K-dnqBiENOUq0f-59" value="new_value" style="text;strokeColor=none;fillColor=none;spacingLeft=4;spacingRight=4;overflow=hidden;rotatable=0;points=[[0,0.5],[1,0.5]];portConstraint=eastwest;fontSize=12;whiteSpace=wrap;html=1;" parent="kjVwi4K-dnqBiENOUq0f-54" vertex="1">
          <mxGeometry y="116" width="160" height="30" as="geometry" />
        </mxCell>
        <mxCell id="kjVwi4K-dnqBiENOUq0f-60" value="editor" style="text;strokeColor=none;fillColor=none;spacingLeft=4;spacingRight=4;overflow=hidden;rotatable=0;points=[[0,0.5],[1,0.5]];portConstraint=eastwest;fontSize=12;whiteSpace=wrap;html=1;" parent="kjVwi4K-dnqBiENOUq0f-54" vertex="1">
          <mxGeometry y="146" width="160" height="30" as="geometry" />
        </mxCell>
        <mxCell id="kjVwi4K-dnqBiENOUq0f-61" value="timestamp" style="text;strokeColor=none;fillColor=none;spacingLeft=4;spacingRight=4;overflow=hidden;rotatable=0;points=[[0,0.5],[1,0.5]];portConstraint=eastwest;fontSize=12;whiteSpace=wrap;html=1;" parent="kjVwi4K-dnqBiENOUq0f-54" vertex="1">
          <mxGeometry y="176" width="160" height="30" as="geometry" />
        </mxCell>
        <mxCell id="kjVwi4K-dnqBiENOUq0f-63" value="Customer_addresses" style="swimlane;fontStyle=0;childLayout=stackLayout;horizontal=1;startSize=26;horizontalStack=0;resizeParent=1;resizeParentMax=0;resizeLast=0;collapsible=1;marginBottom=0;align=center;fontSize=14;fillColor=#d5e8d4;strokeColor=#82b366;" parent="1" vertex="1">
          <mxGeometry x="320" y="40" width="160" height="146" as="geometry" />
        </mxCell>
        <mxCell id="kjVwi4K-dnqBiENOUq0f-64" value="id" style="text;strokeColor=none;fillColor=none;spacingLeft=4;spacingRight=4;overflow=hidden;rotatable=0;points=[[0,0.5],[1,0.5]];portConstraint=eastwest;fontSize=12;whiteSpace=wrap;html=1;" parent="kjVwi4K-dnqBiENOUq0f-63" vertex="1">
          <mxGeometry y="26" width="160" height="30" as="geometry" />
        </mxCell>
        <mxCell id="kjVwi4K-dnqBiENOUq0f-66" value="address" style="text;strokeColor=none;fillColor=none;spacingLeft=4;spacingRight=4;overflow=hidden;rotatable=0;points=[[0,0.5],[1,0.5]];portConstraint=eastwest;fontSize=12;whiteSpace=wrap;html=1;" parent="kjVwi4K-dnqBiENOUq0f-63" vertex="1">
          <mxGeometry y="56" width="160" height="30" as="geometry" />
        </mxCell>
        <mxCell id="z6vCbhi_ukK4YdXHDohs-6" value="coordinates" style="text;strokeColor=none;fillColor=none;spacingLeft=4;spacingRight=4;overflow=hidden;rotatable=0;points=[[0,0.5],[1,0.5]];portConstraint=eastwest;fontSize=12;whiteSpace=wrap;html=1;" vertex="1" parent="kjVwi4K-dnqBiENOUq0f-63">
          <mxGeometry y="86" width="160" height="30" as="geometry" />
        </mxCell>
        <mxCell id="kjVwi4K-dnqBiENOUq0f-67" value="description" style="text;strokeColor=none;fillColor=none;spacingLeft=4;spacingRight=4;overflow=hidden;rotatable=0;points=[[0,0.5],[1,0.5]];portConstraint=eastwest;fontSize=12;whiteSpace=wrap;html=1;" parent="kjVwi4K-dnqBiENOUq0f-63" vertex="1">
          <mxGeometry y="116" width="160" height="30" as="geometry" />
        </mxCell>
        <mxCell id="kjVwi4K-dnqBiENOUq0f-70" style="edgeStyle=orthogonalEdgeStyle;rounded=0;orthogonalLoop=1;jettySize=auto;html=1;exitX=1;exitY=0.5;exitDx=0;exitDy=0;entryX=0;entryY=0.5;entryDx=0;entryDy=0;startArrow=ERone;startFill=0;endArrow=ERzeroToMany;endFill=0;" parent="1" source="kjVwi4K-dnqBiENOUq0f-3" target="kjVwi4K-dnqBiENOUq0f-66" edge="1">
          <mxGeometry relative="1" as="geometry" />
        </mxCell>
        <mxCell id="kjVwi4K-dnqBiENOUq0f-71" value="заказывает на" style="edgeLabel;html=1;align=center;verticalAlign=middle;resizable=0;points=[];" parent="kjVwi4K-dnqBiENOUq0f-70" vertex="1" connectable="0">
          <mxGeometry x="-0.0556" y="-1" relative="1" as="geometry">
            <mxPoint as="offset" />
          </mxGeometry>
        </mxCell>
        <mxCell id="kjVwi4K-dnqBiENOUq0f-77" style="edgeStyle=orthogonalEdgeStyle;rounded=0;orthogonalLoop=1;jettySize=auto;html=1;exitX=1;exitY=0.5;exitDx=0;exitDy=0;entryX=0;entryY=0.5;entryDx=0;entryDy=0;startArrow=ERone;startFill=0;endArrow=ERoneToMany;endFill=0;" parent="1" source="kjVwi4K-dnqBiENOUq0f-30" target="kjVwi4K-dnqBiENOUq0f-38" edge="1">
          <mxGeometry relative="1" as="geometry" />
        </mxCell>
        <mxCell id="kjVwi4K-dnqBiENOUq0f-78" value="содержит" style="edgeLabel;html=1;align=center;verticalAlign=middle;resizable=0;points=[];" parent="kjVwi4K-dnqBiENOUq0f-77" vertex="1" connectable="0">
          <mxGeometry x="0.0178" relative="1" as="geometry">
            <mxPoint as="offset" />
          </mxGeometry>
        </mxCell>
        <mxCell id="44EDoxVs4GtGQKKsdJp0-44" style="edgeStyle=orthogonalEdgeStyle;rounded=0;orthogonalLoop=1;jettySize=auto;html=1;entryX=0.5;entryY=0;entryDx=0;entryDy=0;endArrow=ERoneToMany;endFill=0;startArrow=ERone;startFill=0;" edge="1" parent="1" source="44EDoxVs4GtGQKKsdJp0-5" target="kjVwi4K-dnqBiENOUq0f-54">
          <mxGeometry relative="1" as="geometry" />
        </mxCell>
        <mxCell id="44EDoxVs4GtGQKKsdJp0-45" value="хранит изменения" style="edgeLabel;html=1;align=center;verticalAlign=middle;resizable=0;points=[];" vertex="1" connectable="0" parent="44EDoxVs4GtGQKKsdJp0-44">
          <mxGeometry x="-0.044" y="-2" relative="1" as="geometry">
            <mxPoint as="offset" />
          </mxGeometry>
        </mxCell>
        <mxCell id="44EDoxVs4GtGQKKsdJp0-52" style="edgeStyle=orthogonalEdgeStyle;rounded=0;orthogonalLoop=1;jettySize=auto;html=1;startArrow=ERone;startFill=0;endArrow=ERoneToMany;endFill=0;" edge="1" parent="1" source="44EDoxVs4GtGQKKsdJp0-5" target="44EDoxVs4GtGQKKsdJp0-48">
          <mxGeometry relative="1" as="geometry" />
        </mxCell>
        <mxCell id="44EDoxVs4GtGQKKsdJp0-53" value="состоит из" style="edgeLabel;html=1;align=center;verticalAlign=middle;resizable=0;points=[];" vertex="1" connectable="0" parent="44EDoxVs4GtGQKKsdJp0-52">
          <mxGeometry x="0.0265" y="1" relative="1" as="geometry">
            <mxPoint as="offset" />
          </mxGeometry>
        </mxCell>
        <mxCell id="44EDoxVs4GtGQKKsdJp0-76" style="edgeStyle=orthogonalEdgeStyle;rounded=0;orthogonalLoop=1;jettySize=auto;html=1;entryX=0.5;entryY=0;entryDx=0;entryDy=0;endArrow=ERone;endFill=0;startArrow=ERzeroToMany;startFill=0;" edge="1" parent="1" source="44EDoxVs4GtGQKKsdJp0-5" target="kjVwi4K-dnqBiENOUq0f-5">
          <mxGeometry relative="1" as="geometry">
            <Array as="points">
              <mxPoint x="440" y="560" />
              <mxPoint x="1195" y="560" />
            </Array>
          </mxGeometry>
        </mxCell>
        <mxCell id="44EDoxVs4GtGQKKsdJp0-77" value="выполняет" style="edgeLabel;html=1;align=center;verticalAlign=middle;resizable=0;points=[];" vertex="1" connectable="0" parent="44EDoxVs4GtGQKKsdJp0-76">
          <mxGeometry x="-0.0282" relative="1" as="geometry">
            <mxPoint as="offset" />
          </mxGeometry>
        </mxCell>
        <mxCell id="44EDoxVs4GtGQKKsdJp0-5" value="Restaurant_orders" style="swimlane;fontStyle=0;childLayout=stackLayout;horizontal=1;startSize=26;horizontalStack=0;resizeParent=1;resizeParentMax=0;resizeLast=0;collapsible=1;marginBottom=0;align=center;fontSize=14;fillColor=#dae8fc;strokeColor=#6c8ebf;" vertex="1" parent="1">
          <mxGeometry x="360" y="600" width="160" height="176" as="geometry" />
        </mxCell>
        <mxCell id="44EDoxVs4GtGQKKsdJp0-6" value="id" style="text;strokeColor=none;fillColor=none;spacingLeft=4;spacingRight=4;overflow=hidden;rotatable=0;points=[[0,0.5],[1,0.5]];portConstraint=eastwest;fontSize=12;whiteSpace=wrap;html=1;" vertex="1" parent="44EDoxVs4GtGQKKsdJp0-5">
          <mxGeometry y="26" width="160" height="30" as="geometry" />
        </mxCell>
        <mxCell id="44EDoxVs4GtGQKKsdJp0-7" value="status" style="text;strokeColor=none;fillColor=none;spacingLeft=4;spacingRight=4;overflow=hidden;rotatable=0;points=[[0,0.5],[1,0.5]];portConstraint=eastwest;fontSize=12;whiteSpace=wrap;html=1;" vertex="1" parent="44EDoxVs4GtGQKKsdJp0-5">
          <mxGeometry y="56" width="160" height="30" as="geometry" />
        </mxCell>
        <mxCell id="44EDoxVs4GtGQKKsdJp0-8" value="price" style="text;strokeColor=none;fillColor=none;spacingLeft=4;spacingRight=4;overflow=hidden;rotatable=0;points=[[0,0.5],[1,0.5]];portConstraint=eastwest;fontSize=12;whiteSpace=wrap;html=1;" vertex="1" parent="44EDoxVs4GtGQKKsdJp0-5">
          <mxGeometry y="86" width="160" height="30" as="geometry" />
        </mxCell>
        <mxCell id="44EDoxVs4GtGQKKsdJp0-27" value="timestamp" style="text;strokeColor=none;fillColor=none;spacingLeft=4;spacingRight=4;overflow=hidden;rotatable=0;points=[[0,0.5],[1,0.5]];portConstraint=eastwest;fontSize=12;whiteSpace=wrap;html=1;" vertex="1" parent="44EDoxVs4GtGQKKsdJp0-5">
          <mxGeometry y="116" width="160" height="30" as="geometry" />
        </mxCell>
        <mxCell id="44EDoxVs4GtGQKKsdJp0-28" value="lead_datetime" style="text;strokeColor=none;fillColor=none;spacingLeft=4;spacingRight=4;overflow=hidden;rotatable=0;points=[[0,0.5],[1,0.5]];portConstraint=eastwest;fontSize=12;whiteSpace=wrap;html=1;" vertex="1" parent="44EDoxVs4GtGQKKsdJp0-5">
          <mxGeometry y="146" width="160" height="30" as="geometry" />
        </mxCell>
        <mxCell id="44EDoxVs4GtGQKKsdJp0-9" value="Courier_orders" style="swimlane;fontStyle=0;childLayout=stackLayout;horizontal=1;startSize=26;horizontalStack=0;resizeParent=1;resizeParentMax=0;resizeLast=0;collapsible=1;marginBottom=0;align=center;fontSize=14;fillColor=#e1d5e7;strokeColor=#9673a6;" vertex="1" parent="1">
          <mxGeometry x="920" y="40" width="160" height="266" as="geometry" />
        </mxCell>
        <mxCell id="44EDoxVs4GtGQKKsdJp0-10" value="id" style="text;strokeColor=none;fillColor=none;spacingLeft=4;spacingRight=4;overflow=hidden;rotatable=0;points=[[0,0.5],[1,0.5]];portConstraint=eastwest;fontSize=12;whiteSpace=wrap;html=1;" vertex="1" parent="44EDoxVs4GtGQKKsdJp0-9">
          <mxGeometry y="26" width="160" height="30" as="geometry" />
        </mxCell>
        <mxCell id="44EDoxVs4GtGQKKsdJp0-11" value="status" style="text;strokeColor=none;fillColor=none;spacingLeft=4;spacingRight=4;overflow=hidden;rotatable=0;points=[[0,0.5],[1,0.5]];portConstraint=eastwest;fontSize=12;whiteSpace=wrap;html=1;" vertex="1" parent="44EDoxVs4GtGQKKsdJp0-9">
          <mxGeometry y="56" width="160" height="30" as="geometry" />
        </mxCell>
        <mxCell id="44EDoxVs4GtGQKKsdJp0-12" value="delivery_price" style="text;strokeColor=none;fillColor=none;spacingLeft=4;spacingRight=4;overflow=hidden;rotatable=0;points=[[0,0.5],[1,0.5]];portConstraint=eastwest;fontSize=12;whiteSpace=wrap;html=1;" vertex="1" parent="44EDoxVs4GtGQKKsdJp0-9">
          <mxGeometry y="86" width="160" height="30" as="geometry" />
        </mxCell>
        <mxCell id="44EDoxVs4GtGQKKsdJp0-82" value="timestamp" style="text;strokeColor=none;fillColor=none;spacingLeft=4;spacingRight=4;overflow=hidden;rotatable=0;points=[[0,0.5],[1,0.5]];portConstraint=eastwest;fontSize=12;whiteSpace=wrap;html=1;" vertex="1" parent="44EDoxVs4GtGQKKsdJp0-9">
          <mxGeometry y="116" width="160" height="30" as="geometry" />
        </mxCell>
        <mxCell id="44EDoxVs4GtGQKKsdJp0-83" value="lead_datetime" style="text;strokeColor=none;fillColor=none;spacingLeft=4;spacingRight=4;overflow=hidden;rotatable=0;points=[[0,0.5],[1,0.5]];portConstraint=eastwest;fontSize=12;whiteSpace=wrap;html=1;" vertex="1" parent="44EDoxVs4GtGQKKsdJp0-9">
          <mxGeometry y="146" width="160" height="30" as="geometry" />
        </mxCell>
        <mxCell id="44EDoxVs4GtGQKKsdJp0-87" value="address_restraunt" style="text;strokeColor=none;fillColor=none;spacingLeft=4;spacingRight=4;overflow=hidden;rotatable=0;points=[[0,0.5],[1,0.5]];portConstraint=eastwest;fontSize=12;whiteSpace=wrap;html=1;" vertex="1" parent="44EDoxVs4GtGQKKsdJp0-9">
          <mxGeometry y="176" width="160" height="30" as="geometry" />
        </mxCell>
        <mxCell id="44EDoxVs4GtGQKKsdJp0-88" value="address_customer" style="text;strokeColor=none;fillColor=none;spacingLeft=4;spacingRight=4;overflow=hidden;rotatable=0;points=[[0,0.5],[1,0.5]];portConstraint=eastwest;fontSize=12;whiteSpace=wrap;html=1;" vertex="1" parent="44EDoxVs4GtGQKKsdJp0-9">
          <mxGeometry y="206" width="160" height="30" as="geometry" />
        </mxCell>
        <mxCell id="z6vCbhi_ukK4YdXHDohs-2" value="description" style="text;strokeColor=none;fillColor=none;spacingLeft=4;spacingRight=4;overflow=hidden;rotatable=0;points=[[0,0.5],[1,0.5]];portConstraint=eastwest;fontSize=12;whiteSpace=wrap;html=1;" vertex="1" parent="44EDoxVs4GtGQKKsdJp0-9">
          <mxGeometry y="236" width="160" height="30" as="geometry" />
        </mxCell>
        <mxCell id="44EDoxVs4GtGQKKsdJp0-25" style="edgeStyle=orthogonalEdgeStyle;rounded=0;orthogonalLoop=1;jettySize=auto;html=1;exitX=1;exitY=0.5;exitDx=0;exitDy=0;entryX=0;entryY=0.5;entryDx=0;entryDy=0;startArrow=ERone;startFill=0;endArrow=ERoneToMany;endFill=0;" edge="1" parent="1" source="kjVwi4K-dnqBiENOUq0f-31" target="kjVwi4K-dnqBiENOUq0f-39">
          <mxGeometry relative="1" as="geometry" />
        </mxCell>
        <mxCell id="44EDoxVs4GtGQKKsdJp0-26" value="состоит из" style="edgeLabel;html=1;align=center;verticalAlign=middle;resizable=0;points=[];" vertex="1" connectable="0" parent="44EDoxVs4GtGQKKsdJp0-25">
          <mxGeometry x="-0.1029" relative="1" as="geometry">
            <mxPoint as="offset" />
          </mxGeometry>
        </mxCell>
        <mxCell id="44EDoxVs4GtGQKKsdJp0-34" style="edgeStyle=orthogonalEdgeStyle;rounded=0;orthogonalLoop=1;jettySize=auto;html=1;startArrow=ERzeroToMany;startFill=0;endArrow=oval;endFill=0;" edge="1" parent="1" source="44EDoxVs4GtGQKKsdJp0-29" target="44EDoxVs4GtGQKKsdJp0-5">
          <mxGeometry relative="1" as="geometry" />
        </mxCell>
        <mxCell id="44EDoxVs4GtGQKKsdJp0-35" value="готовит,&lt;br&gt;упаковывет" style="edgeLabel;html=1;align=center;verticalAlign=middle;resizable=0;points=[];" vertex="1" connectable="0" parent="44EDoxVs4GtGQKKsdJp0-34">
          <mxGeometry x="-0.0425" y="-2" relative="1" as="geometry">
            <mxPoint as="offset" />
          </mxGeometry>
        </mxCell>
        <mxCell id="44EDoxVs4GtGQKKsdJp0-37" style="edgeStyle=orthogonalEdgeStyle;rounded=0;orthogonalLoop=1;jettySize=auto;html=1;entryX=0;entryY=0.5;entryDx=0;entryDy=0;endArrow=ERone;endFill=0;startArrow=ERoneToMany;startFill=0;" edge="1" parent="1" source="44EDoxVs4GtGQKKsdJp0-29" target="kjVwi4K-dnqBiENOUq0f-60">
          <mxGeometry relative="1" as="geometry" />
        </mxCell>
        <mxCell id="44EDoxVs4GtGQKKsdJp0-38" value="изменяет" style="edgeLabel;html=1;align=center;verticalAlign=middle;resizable=0;points=[];" vertex="1" connectable="0" parent="44EDoxVs4GtGQKKsdJp0-37">
          <mxGeometry x="0.3825" y="-4" relative="1" as="geometry">
            <mxPoint as="offset" />
          </mxGeometry>
        </mxCell>
        <mxCell id="44EDoxVs4GtGQKKsdJp0-29" value="Employees" style="swimlane;fontStyle=0;childLayout=stackLayout;horizontal=1;startSize=26;horizontalStack=0;resizeParent=1;resizeParentMax=0;resizeLast=0;collapsible=1;marginBottom=0;align=center;fontSize=14;fillColor=#dae8fc;strokeColor=#6c8ebf;" vertex="1" parent="1">
          <mxGeometry x="40" y="615" width="160" height="146" as="geometry" />
        </mxCell>
        <mxCell id="44EDoxVs4GtGQKKsdJp0-30" value="id" style="text;strokeColor=none;fillColor=none;spacingLeft=4;spacingRight=4;overflow=hidden;rotatable=0;points=[[0,0.5],[1,0.5]];portConstraint=eastwest;fontSize=12;whiteSpace=wrap;html=1;" vertex="1" parent="44EDoxVs4GtGQKKsdJp0-29">
          <mxGeometry y="26" width="160" height="30" as="geometry" />
        </mxCell>
        <mxCell id="44EDoxVs4GtGQKKsdJp0-31" value="firstname" style="text;strokeColor=none;fillColor=none;spacingLeft=4;spacingRight=4;overflow=hidden;rotatable=0;points=[[0,0.5],[1,0.5]];portConstraint=eastwest;fontSize=12;whiteSpace=wrap;html=1;" vertex="1" parent="44EDoxVs4GtGQKKsdJp0-29">
          <mxGeometry y="56" width="160" height="30" as="geometry" />
        </mxCell>
        <mxCell id="44EDoxVs4GtGQKKsdJp0-32" value="lastname" style="text;strokeColor=none;fillColor=none;spacingLeft=4;spacingRight=4;overflow=hidden;rotatable=0;points=[[0,0.5],[1,0.5]];portConstraint=eastwest;fontSize=12;whiteSpace=wrap;html=1;" vertex="1" parent="44EDoxVs4GtGQKKsdJp0-29">
          <mxGeometry y="86" width="160" height="30" as="geometry" />
        </mxCell>
        <mxCell id="44EDoxVs4GtGQKKsdJp0-33" value="secondname" style="text;strokeColor=none;fillColor=none;spacingLeft=4;spacingRight=4;overflow=hidden;rotatable=0;points=[[0,0.5],[1,0.5]];portConstraint=eastwest;fontSize=12;whiteSpace=wrap;html=1;" vertex="1" parent="44EDoxVs4GtGQKKsdJp0-29">
          <mxGeometry y="116" width="160" height="30" as="geometry" />
        </mxCell>
        <mxCell id="44EDoxVs4GtGQKKsdJp0-74" style="edgeStyle=orthogonalEdgeStyle;rounded=0;orthogonalLoop=1;jettySize=auto;html=1;endArrow=ERone;endFill=0;startArrow=ERzeroToMany;startFill=0;" edge="1" parent="1" source="44EDoxVs4GtGQKKsdJp0-48" target="kjVwi4K-dnqBiENOUq0f-10">
          <mxGeometry relative="1" as="geometry" />
        </mxCell>
        <mxCell id="44EDoxVs4GtGQKKsdJp0-75" value="является" style="edgeLabel;html=1;align=center;verticalAlign=middle;resizable=0;points=[];" vertex="1" connectable="0" parent="44EDoxVs4GtGQKKsdJp0-74">
          <mxGeometry x="0.061" y="-2" relative="1" as="geometry">
            <mxPoint as="offset" />
          </mxGeometry>
        </mxCell>
        <mxCell id="44EDoxVs4GtGQKKsdJp0-48" value="Order_items" style="swimlane;fontStyle=0;childLayout=stackLayout;horizontal=1;startSize=26;horizontalStack=0;resizeParent=1;resizeParentMax=0;resizeLast=0;collapsible=1;marginBottom=0;align=center;fontSize=14;fillColor=#dae8fc;strokeColor=#6c8ebf;" vertex="1" parent="1">
          <mxGeometry x="630" y="600" width="160" height="86" as="geometry" />
        </mxCell>
        <mxCell id="44EDoxVs4GtGQKKsdJp0-49" value="id" style="text;strokeColor=none;fillColor=none;spacingLeft=4;spacingRight=4;overflow=hidden;rotatable=0;points=[[0,0.5],[1,0.5]];portConstraint=eastwest;fontSize=12;whiteSpace=wrap;html=1;" vertex="1" parent="44EDoxVs4GtGQKKsdJp0-48">
          <mxGeometry y="26" width="160" height="30" as="geometry" />
        </mxCell>
        <mxCell id="44EDoxVs4GtGQKKsdJp0-50" value="status" style="text;strokeColor=none;fillColor=none;spacingLeft=4;spacingRight=4;overflow=hidden;rotatable=0;points=[[0,0.5],[1,0.5]];portConstraint=eastwest;fontSize=12;whiteSpace=wrap;html=1;" vertex="1" parent="44EDoxVs4GtGQKKsdJp0-48">
          <mxGeometry y="56" width="160" height="30" as="geometry" />
        </mxCell>
        <mxCell id="44EDoxVs4GtGQKKsdJp0-92" style="edgeStyle=orthogonalEdgeStyle;rounded=0;orthogonalLoop=1;jettySize=auto;html=1;startArrow=ERone;startFill=0;endArrow=ERoneToMany;endFill=0;" edge="1" parent="1" source="44EDoxVs4GtGQKKsdJp0-54" target="44EDoxVs4GtGQKKsdJp0-78">
          <mxGeometry relative="1" as="geometry" />
        </mxCell>
        <mxCell id="44EDoxVs4GtGQKKsdJp0-111" value="хранит" style="edgeLabel;html=1;align=center;verticalAlign=middle;resizable=0;points=[];" vertex="1" connectable="0" parent="44EDoxVs4GtGQKKsdJp0-92">
          <mxGeometry x="-0.0773" y="1" relative="1" as="geometry">
            <mxPoint as="offset" />
          </mxGeometry>
        </mxCell>
        <mxCell id="44EDoxVs4GtGQKKsdJp0-54" value="Ingredients" style="swimlane;fontStyle=0;childLayout=stackLayout;horizontal=1;startSize=26;horizontalStack=0;resizeParent=1;resizeParentMax=0;resizeLast=0;collapsible=1;marginBottom=0;align=center;fontSize=14;fillColor=#dae8fc;strokeColor=#6c8ebf;" vertex="1" parent="1">
          <mxGeometry x="1120" y="930" width="160" height="206" as="geometry" />
        </mxCell>
        <mxCell id="44EDoxVs4GtGQKKsdJp0-55" value="id" style="text;strokeColor=none;fillColor=none;spacingLeft=4;spacingRight=4;overflow=hidden;rotatable=0;points=[[0,0.5],[1,0.5]];portConstraint=eastwest;fontSize=12;whiteSpace=wrap;html=1;" vertex="1" parent="44EDoxVs4GtGQKKsdJp0-54">
          <mxGeometry y="26" width="160" height="30" as="geometry" />
        </mxCell>
        <mxCell id="44EDoxVs4GtGQKKsdJp0-56" value="name" style="text;strokeColor=none;fillColor=none;spacingLeft=4;spacingRight=4;overflow=hidden;rotatable=0;points=[[0,0.5],[1,0.5]];portConstraint=eastwest;fontSize=12;whiteSpace=wrap;html=1;" vertex="1" parent="44EDoxVs4GtGQKKsdJp0-54">
          <mxGeometry y="56" width="160" height="30" as="geometry" />
        </mxCell>
        <mxCell id="44EDoxVs4GtGQKKsdJp0-60" value="energy_value" style="text;strokeColor=none;fillColor=none;spacingLeft=4;spacingRight=4;overflow=hidden;rotatable=0;points=[[0,0.5],[1,0.5]];portConstraint=eastwest;fontSize=12;whiteSpace=wrap;html=1;" vertex="1" parent="44EDoxVs4GtGQKKsdJp0-54">
          <mxGeometry y="86" width="160" height="30" as="geometry" />
        </mxCell>
        <mxCell id="44EDoxVs4GtGQKKsdJp0-59" value="proteins" style="text;strokeColor=none;fillColor=none;spacingLeft=4;spacingRight=4;overflow=hidden;rotatable=0;points=[[0,0.5],[1,0.5]];portConstraint=eastwest;fontSize=12;whiteSpace=wrap;html=1;" vertex="1" parent="44EDoxVs4GtGQKKsdJp0-54">
          <mxGeometry y="116" width="160" height="30" as="geometry" />
        </mxCell>
        <mxCell id="44EDoxVs4GtGQKKsdJp0-58" value="fats" style="text;strokeColor=none;fillColor=none;spacingLeft=4;spacingRight=4;overflow=hidden;rotatable=0;points=[[0,0.5],[1,0.5]];portConstraint=eastwest;fontSize=12;whiteSpace=wrap;html=1;" vertex="1" parent="44EDoxVs4GtGQKKsdJp0-54">
          <mxGeometry y="146" width="160" height="30" as="geometry" />
        </mxCell>
        <mxCell id="44EDoxVs4GtGQKKsdJp0-61" value="carbohydrates" style="text;strokeColor=none;fillColor=none;spacingLeft=4;spacingRight=4;overflow=hidden;rotatable=0;points=[[0,0.5],[1,0.5]];portConstraint=eastwest;fontSize=12;whiteSpace=wrap;html=1;" vertex="1" parent="44EDoxVs4GtGQKKsdJp0-54">
          <mxGeometry y="176" width="160" height="30" as="geometry" />
        </mxCell>
        <mxCell id="44EDoxVs4GtGQKKsdJp0-72" style="edgeStyle=orthogonalEdgeStyle;rounded=0;orthogonalLoop=1;jettySize=auto;html=1;startArrow=ERzeroToMany;startFill=0;endArrow=ERone;endFill=0;" edge="1" parent="1" source="44EDoxVs4GtGQKKsdJp0-65" target="44EDoxVs4GtGQKKsdJp0-54">
          <mxGeometry relative="1" as="geometry" />
        </mxCell>
        <mxCell id="44EDoxVs4GtGQKKsdJp0-73" value="является" style="edgeLabel;html=1;align=center;verticalAlign=middle;resizable=0;points=[];" vertex="1" connectable="0" parent="44EDoxVs4GtGQKKsdJp0-72">
          <mxGeometry x="0.024" y="-1" relative="1" as="geometry">
            <mxPoint as="offset" />
          </mxGeometry>
        </mxCell>
        <mxCell id="44EDoxVs4GtGQKKsdJp0-65" value="Menu_ingridients" style="swimlane;fontStyle=0;childLayout=stackLayout;horizontal=1;startSize=26;horizontalStack=0;resizeParent=1;resizeParentMax=0;resizeLast=0;collapsible=1;marginBottom=0;align=center;fontSize=14;fillColor=#dae8fc;strokeColor=#6c8ebf;" vertex="1" parent="1">
          <mxGeometry x="880" y="930" width="160" height="86" as="geometry" />
        </mxCell>
        <mxCell id="44EDoxVs4GtGQKKsdJp0-66" value="id" style="text;strokeColor=none;fillColor=none;spacingLeft=4;spacingRight=4;overflow=hidden;rotatable=0;points=[[0,0.5],[1,0.5]];portConstraint=eastwest;fontSize=12;whiteSpace=wrap;html=1;" vertex="1" parent="44EDoxVs4GtGQKKsdJp0-65">
          <mxGeometry y="26" width="160" height="30" as="geometry" />
        </mxCell>
        <mxCell id="44EDoxVs4GtGQKKsdJp0-67" value="quantity" style="text;strokeColor=none;fillColor=none;spacingLeft=4;spacingRight=4;overflow=hidden;rotatable=0;points=[[0,0.5],[1,0.5]];portConstraint=eastwest;fontSize=12;whiteSpace=wrap;html=1;" vertex="1" parent="44EDoxVs4GtGQKKsdJp0-65">
          <mxGeometry y="56" width="160" height="30" as="geometry" />
        </mxCell>
        <mxCell id="44EDoxVs4GtGQKKsdJp0-78" value="Stocks" style="swimlane;fontStyle=0;childLayout=stackLayout;horizontal=1;startSize=30;horizontalStack=0;resizeParent=1;resizeParentMax=0;resizeLast=0;collapsible=1;marginBottom=0;whiteSpace=wrap;html=1;fillColor=#dae8fc;strokeColor=#6c8ebf;" vertex="1" parent="1">
          <mxGeometry x="1360" y="930" width="140" height="90" as="geometry" />
        </mxCell>
        <mxCell id="44EDoxVs4GtGQKKsdJp0-80" value="id" style="text;strokeColor=none;fillColor=none;align=left;verticalAlign=middle;spacingLeft=4;spacingRight=4;overflow=hidden;points=[[0,0.5],[1,0.5]];portConstraint=eastwest;rotatable=0;whiteSpace=wrap;html=1;" vertex="1" parent="44EDoxVs4GtGQKKsdJp0-78">
          <mxGeometry y="30" width="140" height="30" as="geometry" />
        </mxCell>
        <mxCell id="44EDoxVs4GtGQKKsdJp0-81" value="stock_quantity" style="text;strokeColor=none;fillColor=none;align=left;verticalAlign=middle;spacingLeft=4;spacingRight=4;overflow=hidden;points=[[0,0.5],[1,0.5]];portConstraint=eastwest;rotatable=0;whiteSpace=wrap;html=1;" vertex="1" parent="44EDoxVs4GtGQKKsdJp0-78">
          <mxGeometry y="60" width="140" height="30" as="geometry" />
        </mxCell>
        <mxCell id="44EDoxVs4GtGQKKsdJp0-97" value="Menu_items" style="swimlane;fontStyle=0;childLayout=stackLayout;horizontal=1;startSize=26;horizontalStack=0;resizeParent=1;resizeParentMax=0;resizeLast=0;collapsible=1;marginBottom=0;align=center;fontSize=14;fillColor=#dae8fc;strokeColor=#6c8ebf;" vertex="1" parent="1">
          <mxGeometry x="630" y="960" width="160" height="206" as="geometry" />
        </mxCell>
        <mxCell id="44EDoxVs4GtGQKKsdJp0-98" value="id" style="text;strokeColor=none;fillColor=none;spacingLeft=4;spacingRight=4;overflow=hidden;rotatable=0;points=[[0,0.5],[1,0.5]];portConstraint=eastwest;fontSize=12;whiteSpace=wrap;html=1;" vertex="1" parent="44EDoxVs4GtGQKKsdJp0-97">
          <mxGeometry y="26" width="160" height="30" as="geometry" />
        </mxCell>
        <mxCell id="44EDoxVs4GtGQKKsdJp0-99" value="name" style="text;strokeColor=none;fillColor=none;spacingLeft=4;spacingRight=4;overflow=hidden;rotatable=0;points=[[0,0.5],[1,0.5]];portConstraint=eastwest;fontSize=12;whiteSpace=wrap;html=1;" vertex="1" parent="44EDoxVs4GtGQKKsdJp0-97">
          <mxGeometry y="56" width="160" height="30" as="geometry" />
        </mxCell>
        <mxCell id="44EDoxVs4GtGQKKsdJp0-100" value="image" style="text;strokeColor=none;fillColor=none;spacingLeft=4;spacingRight=4;overflow=hidden;rotatable=0;points=[[0,0.5],[1,0.5]];portConstraint=eastwest;fontSize=12;whiteSpace=wrap;html=1;" vertex="1" parent="44EDoxVs4GtGQKKsdJp0-97">
          <mxGeometry y="86" width="160" height="30" as="geometry" />
        </mxCell>
        <mxCell id="44EDoxVs4GtGQKKsdJp0-101" value="description" style="text;strokeColor=none;fillColor=none;spacingLeft=4;spacingRight=4;overflow=hidden;rotatable=0;points=[[0,0.5],[1,0.5]];portConstraint=eastwest;fontSize=12;whiteSpace=wrap;html=1;" vertex="1" parent="44EDoxVs4GtGQKKsdJp0-97">
          <mxGeometry y="116" width="160" height="30" as="geometry" />
        </mxCell>
        <mxCell id="44EDoxVs4GtGQKKsdJp0-102" value="base_price" style="text;strokeColor=none;fillColor=none;spacingLeft=4;spacingRight=4;overflow=hidden;rotatable=0;points=[[0,0.5],[1,0.5]];portConstraint=eastwest;fontSize=12;whiteSpace=wrap;html=1;" vertex="1" parent="44EDoxVs4GtGQKKsdJp0-97">
          <mxGeometry y="146" width="160" height="30" as="geometry" />
        </mxCell>
        <mxCell id="44EDoxVs4GtGQKKsdJp0-103" value="weight" style="text;strokeColor=none;fillColor=none;spacingLeft=4;spacingRight=4;overflow=hidden;rotatable=0;points=[[0,0.5],[1,0.5]];portConstraint=eastwest;fontSize=12;whiteSpace=wrap;html=1;" vertex="1" parent="44EDoxVs4GtGQKKsdJp0-97">
          <mxGeometry y="176" width="160" height="30" as="geometry" />
        </mxCell>
      </root>
    </mxGraphModel>
  </diagram>
</mxfile>
